# OBJ file
v -0.908203 0.830078 -0.036935
v -0.904297 0.826172 -0.036935
v -0.904297 0.833984 -0.036935
v -0.900391 0.833984 -0.036935
v -0.892578 0.826172 -0.036935
v -0.916016 0.830078 -0.032318
v -0.904297 0.818359 -0.032318
v -0.904297 0.841797 -0.032318
v -0.900391 0.841797 -0.032318
v -0.892578 0.818359 -0.032318
v -0.884766 0.826172 -0.032318
v -0.900391 0.845703 -0.027701
v -0.892578 0.837891 -0.027701
v -0.900391 0.845703 -0.023085
v -0.892578 0.837891 -0.023085
v -0.869141 0.798828 -0.018468
v -0.873047 0.791016 -0.013851
v -0.869141 0.791016 -0.013851
v -0.865234 0.806641 -0.013851
v -0.861328 0.798828 -0.013851
v -0.927734 0.802734 -0.009234
v -0.919922 0.794922 -0.009234
v -0.869141 0.794922 -0.009234
v -0.861328 0.802734 -0.009234
v -0.896484 0.779297 -0.004617
v -0.935547 0.806641 0.000000
v -0.927734 0.798828 0.000000
v -0.880859 0.822266 0.000000
v -0.951172 0.837891 0.009234
v -0.935547 0.853516 0.009234
v -0.943359 0.830078 0.023085
v -0.939453 0.822266 0.023085
v -0.900391 0.837891 0.023085
v -0.896484 0.814453 0.023085
v -0.892578 0.830078 0.023085
v -0.888672 0.822266 0.023085
v -0.935547 0.818359 0.027701
v -0.931641 0.845703 0.027701
v -0.927734 0.810547 0.027701
v -0.923828 0.853516 0.027701
v -0.919922 0.810547 0.027701
v -0.908203 0.814453 0.027701
v -0.908203 0.841797 0.027701
v -0.896484 0.822266 0.027701
v -0.896484 0.830078 0.027701
v -0.927734 0.818359 0.032318
v -0.927734 0.830078 0.032318
v -0.923828 0.845703 0.032318
v -0.919922 0.818359 0.032318
v -0.908203 0.822266 0.032318
v -0.908203 0.833984 0.032318
v -0.904297 0.830078 0.032318
vn -0.330784 0.000000 -0.943707
vn -0.155926 -0.274881 -0.948750
vn -0.155926 0.274881 -0.948750
vn 0.155926 0.274881 -0.948750
vn 0.240709 -0.030520 -0.970117
vn -0.561367 0.065164 -0.824998
vn -0.200796 -0.462404 -0.863634
vn -0.248399 0.610257 -0.752252
vn 0.270577 0.582882 -0.766183
vn 0.029611 -0.464411 -0.885125
vn 0.661093 0.317585 -0.679777
vn 0.296673 0.871489 -0.390503
vn 0.693389 0.657677 -0.294403
vn 0.541687 0.839133 0.049310
vn 0.719557 0.691657 0.062039
vn 0.295792 -0.325523 -0.898077
vn -0.005485 -0.525312 -0.850892
vn 0.489182 -0.839890 -0.235129
vn 0.795208 0.511025 -0.326339
vn 0.909269 -0.339318 -0.241025
vn -0.637853 -0.462509 -0.615816
vn -0.478391 -0.691658 -0.541066
vn 0.487568 -0.545896 0.681378
vn 0.944467 0.062897 0.322531
vn 0.042275 -0.999068 -0.008763
vn -0.830867 -0.527175 -0.178175
vn -0.627572 -0.776585 0.055400
vn 0.720333 0.678656 0.143343
vn -0.975037 0.211785 -0.066711
vn -0.457713 0.881916 -0.112796
vn -0.758204 -0.084722 0.646490
vn -0.829981 -0.462931 0.311169
vn 0.624560 0.697926 0.350463
vn 0.351191 -0.472094 0.808574
vn 0.709632 0.553641 0.435781
vn 0.651126 -0.012736 0.758863
vn -0.648520 -0.375004 0.662415
vn -0.560530 0.396442 0.727076
vn -0.355092 -0.640238 0.681179
vn 0.004545 0.845856 0.533392
vn 0.070323 -0.546422 0.834552
vn 0.217747 -0.487412 0.845586
vn 0.476730 0.598487 0.643850
vn 0.387125 -0.231245 0.892558
vn 0.538579 0.311070 0.783051
vn -0.218222 -0.218222 0.951188
vn -0.246233 0.032687 0.968659
vn -0.086304 0.290245 0.953053
vn 0.045128 -0.251134 0.966900
vn 0.158263 -0.225783 0.961236
vn 0.207385 0.225188 0.951988
vn 0.280559 0.123404 0.951871
f 6//6 21//21 29//29
f 18//18 16//16 20//20
f 17//17 18//18 25//25
f 22//22 7//7 25//25
f 7//7 17//17 25//25
f 18//18 23//23 25//25
f 23//23 34//34 25//25
f 34//34 42//42 25//25
f 46//46 37//37 39//39
f 43//43 33//33 40//40
f 21//21 26//26 29//29
f 26//26 32//32 29//29
f 32//32 26//26 37//37
f 27//27 22//22 25//25
f 39//39 27//27 25//25
f 41//41 39//39 25//25
f 42//42 41//41 25//25
f 38//38 48//48 40//40
f 31//31 32//32 37//37
f 32//32 31//31 29//29
f 31//31 38//38 29//29
f 50//50 44//44 52//52
f 36//36 44//44 34//34
f 35//35 36//36 24//24
f 12//12 30//30 40//40
f 35//35 45//45 36//36
f 28//28 35//35 24//24
f 33//33 14//14 40//40
f 14//14 12//12 40//40
f 19//19 11//11 13//13
f 24//24 19//19 13//13
f 19//19 24//24 20//20
f 11//11 19//19 20//20
f 15//15 28//28 24//24
f 15//15 24//24 13//13
f 12//12 8//8 30//30
f 9//9 8//8 12//12
f 17//17 10//10 18//18
f 7//7 10//10 17//17
f 30//30 38//38 40//40
f 38//38 30//30 29//29
f 10//10 5//5 18//18
f 5//5 16//16 18//18
f 24//24 23//23 18//18
f 24//24 18//18 20//20
f 24//24 36//36 23//23
f 23//23 36//36 34//34
f 6//6 2//2 21//21
f 2//2 6//6 1//1
f 2//2 22//22 21//21
f 2//2 7//7 22//22
f 2//2 10//10 7//7
f 2//2 5//5 10//10
f 22//22 27//27 21//21
f 27//27 26//26 21//21
f 37//37 27//27 39//39
f 26//26 27//27 37//37
f 48//48 43//43 40//40
f 43//43 48//48 51//51
f 31//31 46//46 47//47
f 46//46 31//31 37//37
f 31//31 48//48 38//38
f 48//48 31//31 47//47
f 44//44 50//50 42//42
f 44//44 42//42 34//34
f 5//5 11//11 16//16
f 16//16 11//11 20//20
f 51//51 49//49 52//52
f 46//46 49//49 47//47
f 48//48 49//49 51//51
f 49//49 50//50 52//52
f 49//49 48//48 47//47
f 50//50 49//49 42//42
f 49//49 41//41 42//42
f 49//49 46//46 39//39
f 41//41 49//49 39//39
f 45//45 51//51 52//52
f 45//45 43//43 51//51
f 43//43 45//45 33//33
f 45//45 35//35 33//33
f 44//44 45//45 52//52
f 45//45 44//44 36//36
f 35//35 15//15 33//33
f 28//28 15//15 35//35
f 15//15 14//14 33//33
f 12//12 15//15 13//13
f 14//14 15//15 12//12
f 3//3 2//2 1//1
f 2//2 3//3 5//5
f 3//3 4//4 5//5
f 6//6 8//8 1//1
f 8//8 3//3 1//1
f 30//30 8//8 29//29
f 8//8 6//6 29//29
f 9//9 12//12 13//13
f 11//11 9//9 13//13
f 9//9 11//11 5//5
f 4//4 9//9 5//5
f 3//3 9//9 4//4
f 8//8 9//9 3//3
