# OBJ file
v 0.443359 0.884766 -0.023085
v 0.443359 0.888672 -0.023085
v 0.447266 0.880859 -0.023085
v 0.447266 0.888672 -0.023085
v 0.451172 0.880859 -0.023085
v 0.458984 0.884766 -0.023085
v 0.435547 0.884766 -0.018468
v 0.435547 0.888672 -0.018468
v 0.443359 0.896484 -0.018468
v 0.447266 0.896484 -0.018468
v 0.451172 0.873047 -0.018468
v 0.458984 0.876953 -0.018468
v 0.458984 0.892578 -0.018468
v 0.466797 0.884766 -0.018468
v 0.439453 0.873047 -0.013851
v 0.447266 0.865234 -0.013851
v 0.455078 0.869141 -0.013851
v 0.431641 0.888672 -0.009234
v 0.447266 0.904297 -0.009234
v 0.455078 0.908203 -0.009234
v 0.466797 0.896484 -0.009234
v 0.435547 0.892578 -0.004617
v 0.443359 0.900391 -0.004617
v 0.455078 0.900391 -0.004617
v 0.458984 0.869141 -0.004617
v 0.466797 0.873047 -0.004617
v 0.466797 0.892578 -0.004617
v 0.474609 0.880859 -0.004617
v 0.474609 0.884766 -0.004617
v 0.443359 0.892578 0.000000
v 0.451172 0.892578 0.000000
v 0.458984 0.876953 0.000000
v 0.466797 0.880859 0.000000
v 0.466797 0.884766 0.000000
vn -0.274881 -0.155926 -0.948750
vn -0.218222 0.218222 -0.951188
vn -0.155926 -0.274881 -0.948750
vn 0.045128 0.251134 -0.966900
vn 0.071661 -0.259697 -0.963028
vn 0.288957 0.011483 -0.957273
vn -0.721444 -0.234552 -0.651539
vn -0.698382 0.303890 -0.648007
vn -0.373982 0.614147 -0.694954
vn 0.064119 0.489429 -0.869683
vn 0.143617 -0.483247 -0.863624
vn 0.412033 -0.516170 -0.750865
vn 0.323280 0.466664 -0.823235
vn 0.645738 -0.035784 -0.762720
vn -0.744678 -0.667422 -0.001720
vn -0.297599 -0.949771 -0.096799
vn 0.422842 -0.723447 -0.545737
vn -0.967786 0.053158 0.246099
vn -0.514933 0.852426 -0.090636
vn 0.197732 0.979872 0.027437
vn 0.748902 0.653475 -0.110075
vn -0.728859 0.264842 0.631366
vn -0.457401 0.684924 0.567154
vn 0.145505 0.429836 0.891106
vn 0.124985 -0.851794 0.508750
vn 0.599647 -0.767505 0.226626
vn 0.447573 0.505369 0.737754
vn 0.913634 -0.359736 0.189376
vn 0.933580 0.252521 0.254288
vn -0.275616 0.063461 0.959171
vn 0.047177 0.240853 0.969414
vn -0.084622 -0.309546 0.947112
vn 0.258049 -0.181461 0.948938
vn 0.262197 0.174357 0.949132
f 7//7 15//15 18//18
f 8//8 7//7 18//18
f 23//23 22//22 30//30
f 9//9 19//19 20//20
f 19//19 23//23 20//20
f 13//13 10//10 20//20
f 10//10 9//9 20//20
f 6//6 13//13 14//14
f 24//24 31//31 34//34
f 33//33 26//26 28//28
f 21//21 29//29 14//14
f 14//14 29//29 28//28
f 12//12 6//6 14//14
f 2//2 8//8 9//9
f 13//13 21//21 14//14
f 21//21 13//13 20//20
f 8//8 19//19 9//9
f 19//19 8//8 18//18
f 22//22 19//19 18//18
f 19//19 22//22 23//23
f 15//15 3//3 16//16
f 3//3 15//15 7//7
f 3//3 7//7 1//1
f 3//3 11//11 16//16
f 11//11 3//3 5//5
f 24//24 23//23 30//30
f 23//23 24//24 20//20
f 31//31 24//24 30//30
f 32//32 31//31 30//30
f 31//31 32//32 34//34
f 32//32 33//33 34//34
f 24//24 27//27 20//20
f 27//27 24//24 34//34
f 29//29 21//21 20//20
f 27//27 29//29 20//20
f 33//33 29//29 34//34
f 29//29 33//33 28//28
f 29//29 27//27 34//34
f 12//12 26//26 17//17
f 12//12 14//14 28//28
f 26//26 12//12 28//28
f 11//11 12//12 16//16
f 12//12 17//17 16//16
f 12//12 11//11 5//5
f 6//6 12//12 5//5
f 4//4 10//10 13//13
f 6//6 4//4 13//13
f 22//22 25//25 30//30
f 25//25 15//15 16//16
f 15//15 25//25 18//18
f 25//25 22//22 18//18
f 25//25 32//32 30//30
f 26//26 25//25 17//17
f 17//17 25//25 16//16
f 32//32 25//25 33//33
f 25//25 26//26 33//33
f 2//2 3//3 1//1
f 3//3 2//2 5//5
f 2//2 6//6 5//5
f 2//2 4//4 6//6
f 7//7 2//2 1//1
f 8//8 2//2 7//7
f 4//4 2//2 10//10
f 10//10 2//2 9//9
