# OBJ file
v -0.544922 0.876953 -0.036935
v -0.552734 0.876953 -0.032318
v -0.544922 0.869141 -0.032318
v -0.544922 0.884766 -0.032318
v -0.537109 0.880859 -0.032318
v -0.541016 0.865234 -0.027701
v -0.537109 0.888672 -0.027701
v -0.529297 0.876953 -0.027701
v -0.529297 0.880859 -0.027701
v -0.544922 0.861328 -0.023085
v -0.537109 0.865234 -0.023085
v -0.525391 0.876953 -0.023085
v -0.560547 0.873047 -0.018468
v -0.560547 0.876953 -0.018468
v -0.548828 0.861328 -0.018468
v -0.544922 0.861328 -0.018468
v -0.533203 0.896484 -0.018468
v -0.521484 0.884766 -0.018468
v -0.560547 0.880859 -0.013851
v -0.552734 0.888672 -0.013851
v -0.548828 0.861328 -0.013851
v -0.537109 0.865234 -0.013851
v -0.533203 0.892578 -0.013851
v -0.525391 0.876953 -0.013851
v -0.525391 0.884766 -0.013851
v -0.560547 0.873047 -0.009234
v -0.552734 0.865234 -0.009234
v -0.544922 0.865234 -0.009234
v -0.541016 0.892578 -0.009234
v -0.529297 0.880859 -0.009234
v -0.552734 0.873047 -0.004617
v -0.552734 0.880859 -0.004617
v -0.544922 0.888672 -0.004617
v -0.544922 0.880859 0.000000
vn -0.033633 -0.027498 -0.999056
vn -0.672690 0.038299 -0.738933
vn -0.106366 -0.563581 -0.819184
vn -0.234035 0.629876 -0.740597
vn 0.370328 0.247014 -0.895456
vn 0.325267 -0.668656 -0.668656
vn 0.242297 0.575680 -0.780952
vn 0.582882 -0.270577 -0.766183
vn 0.553606 0.208338 -0.806298
vn -0.047310 -0.915006 -0.400657
vn 0.582882 -0.766183 -0.270577
vn 0.810730 -0.421371 -0.406403
vn -0.881868 -0.368921 -0.293609
vn -0.921863 0.186879 -0.339476
vn -0.432967 -0.872704 -0.225673
vn 0.240965 -0.966046 0.093221
vn 0.285212 0.953298 -0.099387
vn 0.962003 0.270299 -0.038582
vn -0.872324 0.479782 0.094125
vn -0.607851 0.792622 0.047625
vn -0.221660 -0.924830 0.309121
vn 0.530396 -0.732790 0.426263
vn 0.449507 0.552218 0.702139
vn 0.763070 -0.444407 0.469283
vn 0.615146 0.313006 0.723617
vn -0.836735 -0.253362 0.485471
vn -0.430384 -0.706489 0.561821
vn 0.206445 -0.607597 0.766946
vn 0.001814 0.809051 0.587736
vn 0.507597 0.000000 0.861594
vn -0.277306 -0.277306 0.919893
vn -0.538579 0.311070 0.783051
vn -0.116911 0.628816 0.768714
vn 0.049819 0.049819 0.997515
f 4//4 20//20 17//17
f 2//2 4//4 1//1
f 3//3 6//6 10//10
f 21//21 16//16 22//22
f 29//29 23//23 17//17
f 20//20 29//29 17//17
f 33//33 29//29 20//20
f 6//6 11//11 10//10
f 14//14 2//2 13//13
f 14//14 19//19 2//2
f 33//33 32//32 34//34
f 32//32 19//19 26//26
f 7//7 4//4 17//17
f 28//28 27//27 21//21
f 28//28 21//21 22//22
f 27//27 31//31 26//26
f 24//24 12//12 18//18
f 3//3 2//2 1//1
f 6//6 3//3 1//1
f 8//8 6//6 1//1
f 2//2 19//19 4//4
f 19//19 20//20 4//4
f 5//5 8//8 1//1
f 5//5 9//9 8//8
f 15//15 2//2 3//3
f 2//2 15//15 13//13
f 15//15 3//3 10//10
f 16//16 15//15 10//10
f 15//15 16//16 21//21
f 27//27 15//15 21//21
f 15//15 27//27 13//13
f 27//27 26//26 13//13
f 11//11 16//16 10//10
f 16//16 11//11 22//22
f 26//26 14//14 13//13
f 19//19 14//14 26//26
f 19//19 32//32 20//20
f 32//32 33//33 20//20
f 7//7 17//17 18//18
f 9//9 7//7 18//18
f 7//7 5//5 1//1
f 4//4 7//7 1//1
f 5//5 7//7 9//9
f 24//24 28//28 22//22
f 28//28 30//30 34//34
f 30//30 28//28 24//24
f 31//31 28//28 34//34
f 28//28 31//31 27//27
f 32//32 31//31 34//34
f 31//31 32//32 26//26
f 17//17 25//25 18//18
f 23//23 25//25 17//17
f 25//25 29//29 33//33
f 25//25 33//33 34//34
f 30//30 25//25 34//34
f 29//29 25//25 23//23
f 25//25 30//30 24//24
f 25//25 24//24 18//18
f 12//12 6//6 8//8
f 12//12 11//11 6//6
f 12//12 24//24 22//22
f 11//11 12//12 22//22
f 12//12 9//9 18//18
f 9//9 12//12 8//8
