# OBJ file
v -0.701172 0.513672 -0.041552
v -0.708984 0.513672 -0.036935
v -0.701172 0.505859 -0.036935
v -0.701172 0.521484 -0.036935
v -0.693359 0.513672 -0.036935
v -0.708984 0.498047 -0.032318
v -0.716797 0.498047 -0.027701
v -0.708984 0.490234 -0.027701
v -0.701172 0.525391 -0.027701
v -0.697266 0.525391 -0.027701
v -0.693359 0.494141 -0.027701
v -0.685547 0.498047 -0.027701
v -0.681641 0.501953 -0.027701
v -0.720703 0.505859 -0.023085
v -0.716797 0.494141 -0.023085
v -0.712891 0.517578 -0.023085
v -0.708984 0.486328 -0.023085
v -0.705078 0.525391 -0.023085
v -0.697266 0.486328 -0.023085
v -0.685547 0.490234 -0.023085
v -0.673828 0.501953 -0.023085
v -0.720703 0.501953 -0.018468
v -0.705078 0.482422 -0.018468
v -0.685547 0.486328 -0.018468
v -0.677734 0.490234 -0.018468
v -0.669922 0.498047 -0.018468
v -0.716797 0.490234 -0.013851
v -0.712891 0.513672 -0.013851
v -0.708984 0.482422 -0.013851
v -0.705078 0.482422 -0.013851
v -0.701172 0.525391 -0.013851
v -0.666016 0.517578 -0.013851
v -0.658203 0.509766 -0.013851
v -0.716797 0.501953 -0.009234
v -0.708984 0.490234 -0.009234
v -0.669922 0.490234 -0.009234
v -0.654297 0.505859 -0.009234
v -0.708984 0.501953 -0.004617
v -0.705078 0.498047 -0.004617
v -0.701172 0.509766 -0.004617
v -0.666016 0.501953 0.000000
v -0.666016 0.517578 0.000000
v -0.658203 0.509766 0.000000
v -0.666016 0.509766 0.004617
vn 0.000791 0.056848 -0.998383
vn -0.619432 0.248763 -0.744594
vn 0.110047 -0.451853 -0.885279
vn -0.093337 0.687154 -0.720492
vn 0.471493 0.172497 -0.864835
vn -0.247014 -0.370328 -0.895456
vn -0.701021 -0.309213 -0.642618
vn -0.240162 -0.580822 -0.777797
vn -0.155926 0.948750 -0.274881
vn 0.203222 0.935941 -0.287602
vn 0.174049 -0.472542 -0.863951
vn 0.316352 -0.401874 -0.859313
vn 0.409546 -0.283340 -0.867174
vn -0.959417 0.210266 -0.187902
vn -0.774795 -0.501966 -0.384347
vn -0.764065 0.642278 -0.060691
vn -0.372190 -0.730492 -0.572588
vn -0.474936 0.878587 -0.050199
vn 0.136606 -0.691708 -0.709139
vn 0.295327 -0.546975 -0.783326
vn 0.463053 -0.249185 -0.850581
vn -0.990144 -0.015440 0.139200
vn -0.045270 -0.930750 -0.362844
vn 0.272564 -0.897132 -0.347652
vn 0.444076 -0.633560 -0.633560
vn 0.530230 -0.440467 -0.724462
vn -0.785309 -0.529582 0.320675
vn -0.645625 0.514449 0.564367
vn -0.398034 -0.855363 0.331547
vn 0.064031 -0.882069 0.466749
vn -0.234382 0.843078 0.484030
vn 0.512434 0.785906 -0.346068
vn 0.745699 0.334174 -0.576421
vn -0.688082 0.093585 0.719573
vn -0.252353 -0.389220 0.885904
vn 0.477483 -0.856402 0.196433
vn 0.987256 -0.131910 -0.089028
vn -0.358304 0.042860 0.932621
vn -0.161111 -0.301733 0.939681
vn -0.281525 0.347269 0.894510
vn 0.291396 -0.536119 0.792253
vn 0.309816 0.785042 0.536398
vn 0.793137 0.159569 0.587768
vn 0.145922 0.024732 0.988987
f 2//2 7//7 14//14
f 38//38 39//39 44//44
f 6//6 8//8 7//7
f 10//10 42//42 32//32
f 5//5 33//33 21//21
f 41//41 43//43 44//44
f 30//30 29//29 23//23
f 24//24 30//30 23//23
f 30//30 24//24 36//36
f 41//41 30//30 36//36
f 29//29 30//30 41//41
f 29//29 17//17 23//23
f 16//16 2//2 14//14
f 24//24 19//19 20//20
f 19//19 24//24 23//23
f 13//13 12//12 1//1
f 24//24 25//25 36//36
f 25//25 24//24 20//20
f 4//4 5//5 1//1
f 4//4 10//10 32//32
f 10//10 31//31 42//42
f 35//35 39//39 38//38
f 35//35 27//27 29//29
f 39//39 35//35 44//44
f 19//19 11//11 20//20
f 9//9 4//4 18//18
f 4//4 9//9 10//10
f 40//40 38//38 44//44
f 34//34 22//22 27//27
f 27//27 22//22 15//15
f 2//2 6//6 7//7
f 6//6 2//2 1//1
f 3//3 6//6 1//1
f 6//6 3//3 8//8
f 13//13 5//5 21//21
f 5//5 13//13 1//1
f 43//43 41//41 36//36
f 43//43 36//36 37//37
f 43//43 42//42 44//44
f 43//43 33//33 32//32
f 33//33 43//43 37//37
f 42//42 43//43 32//32
f 8//8 17//17 7//7
f 17//17 15//15 7//7
f 17//17 27//27 15//15
f 27//27 17//17 29//29
f 19//19 17//17 8//8
f 17//17 19//19 23//23
f 26//26 33//33 37//37
f 33//33 26//26 21//21
f 36//36 25//25 37//37
f 25//25 26//26 37//37
f 25//25 13//13 21//21
f 25//25 12//12 13//13
f 12//12 25//25 20//20
f 26//26 25//25 21//21
f 16//16 4//4 2//2
f 4//4 16//16 18//18
f 2//2 4//4 1//1
f 33//33 4//4 32//32
f 5//5 4//4 33//33
f 35//35 29//29 41//41
f 35//35 41//41 44//44
f 16//16 28//28 18//18
f 28//28 31//31 18//18
f 28//28 16//16 14//14
f 11//11 3//3 1//1
f 11//11 12//12 20//20
f 12//12 11//11 1//1
f 3//3 11//11 8//8
f 11//11 19//19 8//8
f 31//31 9//9 18//18
f 9//9 31//31 10//10
f 42//42 40//40 44//44
f 31//31 40//40 42//42
f 34//34 35//35 38//38
f 35//35 34//34 27//27
f 28//28 34//34 31//31
f 34//34 40//40 31//31
f 40//40 34//34 38//38
f 22//22 28//28 14//14
f 22//22 34//34 28//28
f 15//15 22//22 7//7
f 7//7 22//22 14//14
