# OBJ file
v 0.248047 0.044922 -0.041552
v 0.248047 0.033203 -0.036935
v 0.248047 0.103516 -0.036935
v 0.251953 0.107422 -0.036935
v 0.310547 0.142578 -0.036935
v 0.349609 0.123047 -0.036935
v 0.353516 0.126953 -0.036935
v 0.240234 0.103516 -0.032318
v 0.248047 0.025391 -0.032318
v 0.310547 0.150391 -0.032318
v 0.318359 0.150391 -0.032318
v 0.353516 0.134766 -0.032318
v 0.361328 0.126953 -0.032318
v 0.251953 0.021484 -0.027701
v 0.263672 0.154297 -0.027701
v 0.349609 0.107422 -0.027701
v 0.357422 0.115234 -0.027701
v 0.361328 0.123047 -0.027701
v 0.142578 -0.041016 -0.023085
v 0.150391 -0.048828 -0.023085
v 0.154297 -0.048828 -0.023085
v 0.255859 0.154297 -0.023085
v 0.263672 0.162109 -0.023085
v 0.134766 -0.041016 -0.018468
v 0.150391 -0.056641 -0.018468
v 0.154297 -0.056641 -0.018468
v 0.169922 0.021484 -0.018468
v 0.251953 0.154297 -0.018468
v 0.259766 0.162109 -0.018468
v 0.263672 0.025391 -0.018468
v 0.314453 0.173828 -0.018468
v 0.318359 0.173828 -0.018468
v 0.138672 -0.060547 -0.013851
v 0.162109 0.021484 -0.013851
v 0.255859 0.154297 -0.013851
v 0.267578 0.166016 -0.013851
v 0.130859 -0.060547 -0.009234
v 0.134766 -0.037109 -0.009234
v 0.138672 -0.068359 -0.009234
v 0.263672 0.025391 -0.009234
v 0.150391 -0.068359 -0.004617
v 0.357422 0.126953 -0.004617
v 0.255859 0.138672 0.000000
v 0.130859 -0.056641 0.004617
v 0.142578 -0.068359 0.004617
v 0.146484 -0.068359 0.004617
v 0.279297 0.158203 0.004617
v 0.310547 0.189453 0.004617
v 0.326172 0.201172 0.004617
v 0.333984 0.193359 0.004617
v 0.162109 0.021484 0.009234
v 0.142578 -0.056641 0.013851
v 0.150391 -0.064453 0.013851
v 0.154297 -0.064453 0.013851
v 0.169922 0.021484 0.013851
v 0.349609 0.185547 0.013851
v 0.357422 0.177734 0.013851
v 0.146484 -0.052734 0.018468
v 0.154297 -0.060547 0.018468
v 0.349609 0.185547 0.018468
v 0.357422 0.177734 0.018468
v 0.154297 -0.052734 0.023085
v 0.197266 -0.033203 0.023085
v 0.306641 0.158203 0.023085
v 0.314453 0.166016 0.023085
v 0.326172 0.173828 0.023085
v 0.345703 0.181641 0.023085
v 0.353516 0.173828 0.023085
v 0.197266 -0.033203 0.027701
v 0.205078 -0.025391 0.027701
v 0.314453 0.158203 0.027701
v 0.326172 0.166016 0.027701
v 0.345703 0.173828 0.027701
v 0.193359 -0.021484 0.032318
v 0.197266 -0.025391 0.032318
v 0.232422 0.021484 0.032318
v 0.318359 0.150391 0.032318
v 0.322266 0.154297 0.032318
v 0.220703 0.017578 0.036935
v 0.224609 0.021484 0.036935
v 0.244141 0.052734 0.036935
vn 0.040299 -0.121477 -0.991776
vn 0.264578 -0.366925 -0.891832
vn -0.257530 0.165962 -0.951911
vn -0.123577 0.142374 -0.982068
vn 0.001325 0.251609 -0.967828
vn 0.287652 -0.295368 -0.911051
vn 0.316423 0.032553 -0.948059
vn -0.441289 0.260878 -0.858607
vn 0.325463 -0.443870 -0.834897
vn -0.019141 0.448213 -0.893722
vn 0.101020 0.417255 -0.903157
vn 0.375337 0.484293 -0.790305
vn 0.804485 0.025422 -0.593429
vn 0.460889 -0.591644 -0.661467
vn -0.232512 0.340101 -0.911191
vn 0.638872 -0.660568 -0.394326
vn 0.752400 -0.601800 -0.267825
vn 0.955983 -0.289441 -0.048162
vn -0.329362 -0.034921 -0.943558
vn -0.116026 -0.286329 -0.951080
vn 0.100707 -0.339638 -0.935149
vn -0.527015 0.426474 -0.735102
vn -0.316239 0.639000 -0.701193
vn -0.785979 0.103000 -0.609613
vn -0.057555 -0.486242 -0.871926
vn 0.264577 -0.603281 -0.752363
vn -0.431025 0.244285 -0.868644
vn -0.770994 0.636034 -0.032075
vn -0.648678 0.760923 -0.014594
vn 0.637775 -0.722214 -0.267675
vn -0.033268 0.529107 -0.847903
vn 0.122357 0.509244 -0.851880
vn -0.308265 -0.371421 -0.875796
vn -0.763396 0.432216 -0.480017
vn -0.566990 0.534829 0.626482
vn -0.553889 0.661356 0.505782
vn -0.859904 -0.380134 -0.340681
vn -0.944538 0.327626 0.022562
vn -0.352875 -0.848931 -0.393441
vn 0.687283 -0.721798 0.081552
vn 0.332195 -0.909800 -0.248817
vn 0.796054 -0.345510 0.496911
vn -0.528780 0.475933 0.702766
vn -0.878149 -0.171941 0.446419
vn -0.346777 -0.855393 0.384770
vn 0.097150 -0.970792 0.219374
vn -0.492186 0.472901 0.730833
vn -0.483028 0.605879 0.632135
vn 0.017377 0.999832 0.005905
vn 0.556710 0.551837 -0.620926
vn -0.753061 0.425633 0.501733
vn -0.488742 -0.381507 0.784591
vn -0.222559 -0.694905 0.683795
vn 0.303562 -0.853548 0.423446
vn -0.394461 0.260453 0.881229
vn 0.635357 0.721806 -0.274441
vn 0.850589 0.458769 -0.256962
vn -0.513723 -0.078627 0.854345
vn -0.043020 -0.569562 0.820822
vn 0.483578 0.732717 0.478831
vn 0.838420 0.326547 0.436371
vn -0.233418 -0.196078 0.952402
vn 0.630893 -0.774956 -0.037652
vn -0.430282 0.407076 0.805697
vn -0.365422 0.440981 0.819758
vn -0.244277 0.458734 0.854337
vn 0.108448 0.504805 0.856394
vn 0.583374 0.002330 0.812200
vn 0.482715 -0.696680 0.530682
vn 0.606991 -0.560669 0.563216
vn -0.337314 0.367843 0.866551
vn -0.210078 0.400563 0.891861
vn 0.219772 0.153576 0.963387
vn -0.166065 -0.006071 0.986096
vn 0.159712 -0.269456 0.949676
vn 0.460824 -0.328875 0.824307
vn -0.244988 0.231259 0.941541
vn 0.026459 0.083854 0.996127
vn -0.082857 0.011380 0.996497
vn 0.222566 -0.164502 0.960939
vn -0.061706 0.075606 0.995227
f 76//76 42//42 68//68
f 50//50 57//57 13//13
f 76//76 70//70 42//42
f 70//70 17//17 42//42
f 44//44 38//38 37//37
f 20//20 19//19 1//1
f 7//7 12//12 13//13
f 62//62 74//74 79//79
f 42//42 61//61 68//68
f 57//57 61//61 13//13
f 18//18 17//17 13//13
f 17//17 18//18 42//42
f 61//61 18//18 13//13
f 18//18 61//61 42//42
f 60//60 56//56 49//49
f 21//21 20//20 1//1
f 12//12 32//32 49//49
f 32//32 31//31 49//49
f 10//10 23//23 31//31
f 31//31 23//23 49//49
f 19//19 3//3 1//1
f 3//3 4//4 1//1
f 4//4 3//3 15//15
f 34//34 24//24 38//38
f 38//38 24//24 37//37
f 62//62 75//75 74//74
f 74//74 75//75 79//79
f 70//70 75//75 69//69
f 80//80 73//73 78//78
f 80//80 81//81 79//79
f 81//81 80//80 78//78
f 75//75 80//80 79//79
f 67//67 60//60 49//49
f 39//39 25//25 26//26
f 20//20 33//33 19//19
f 33//33 39//39 37//37
f 44//44 52//52 58//58
f 2//2 21//21 1//1
f 22//22 23//23 15//15
f 28//28 22//22 34//34
f 34//34 22//22 8//8
f 23//23 29//29 49//49
f 5//5 4//4 15//15
f 4//4 5//5 1//1
f 5//5 7//7 1//1
f 7//7 5//5 11//11
f 27//27 3//3 19//19
f 41//41 54//54 46//46
f 41//41 39//39 26//26
f 41//41 30//30 63//63
f 41//41 63//63 69//69
f 54//54 41//41 69//69
f 30//30 16//16 40//40
f 54//54 59//59 53//53
f 59//59 54//54 69//69
f 7//7 6//6 1//1
f 6//6 2//2 1//1
f 36//36 48//48 49//49
f 29//29 36//36 49//49
f 71//71 77//77 78//78
f 77//77 81//81 78//78
f 77//77 71//71 81//81
f 51//51 44//44 58//58
f 51//51 38//38 44//44
f 66//66 67//67 49//49
f 16//16 14//14 9//9
f 14//14 16//16 30//30
f 9//9 14//14 26//26
f 14//14 41//41 26//26
f 41//41 14//14 30//30
f 71//71 55//55 81//81
f 81//81 55//55 79//79
f 55//55 62//62 79//79
f 73//73 72//72 78//78
f 72//72 71//71 78//78
f 48//48 65//65 49//49
f 65//65 66//66 49//49
f 47//47 51//51 64//64
f 47//47 43//43 51//51
f 47//47 35//35 43//43
f 51//51 35//35 28//28
f 43//43 35//35 51//51
f 50//50 12//12 49//49
f 12//12 50//50 13//13
f 56//56 50//50 49//49
f 50//50 56//56 57//57
f 56//56 60//60 57//57
f 60//60 61//61 57//57
f 32//32 7//7 11//11
f 32//32 12//12 7//7
f 73//73 80//80 68//68
f 80//80 76//76 68//68
f 80//80 70//70 76//76
f 80//80 75//75 70//70
f 30//30 40//40 69//69
f 63//63 30//30 69//69
f 60//60 67//67 61//61
f 67//67 73//73 68//68
f 61//61 67//67 68//68
f 21//21 25//25 20//20
f 25//25 21//21 26//26
f 39//39 45//45 37//37
f 45//45 44//44 37//37
f 33//33 24//24 19//19
f 24//24 33//33 37//37
f 25//25 33//33 20//20
f 33//33 25//25 39//39
f 45//45 52//52 44//44
f 52//52 45//45 53//53
f 45//45 54//54 53//53
f 54//54 45//45 46//46
f 21//21 2//2 26//26
f 2//2 9//9 26//26
f 22//22 3//3 8//8
f 3//3 22//22 15//15
f 22//22 29//29 23//23
f 29//29 22//22 28//28
f 5//5 23//23 10//10
f 23//23 5//5 15//15
f 5//5 10//10 31//31
f 32//32 5//5 31//31
f 5//5 32//32 11//11
f 24//24 27//27 19//19
f 27//27 24//24 34//34
f 3//3 27//27 8//8
f 27//27 34//34 8//8
f 41//41 45//45 39//39
f 45//45 41//41 46//46
f 70//70 16//16 17//17
f 16//16 70//70 69//69
f 40//40 16//16 69//69
f 59//59 52//52 53//53
f 59//59 62//62 58//58
f 52//52 59//59 58//58
f 75//75 59//59 69//69
f 59//59 75//75 62//62
f 17//17 6//6 13//13
f 6//6 7//7 13//13
f 16//16 6//6 17//17
f 2//2 6//6 9//9
f 6//6 16//16 9//9
f 51//51 28//28 34//34
f 51//51 34//34 38//38
f 51//51 55//55 64//64
f 55//55 71//71 64//64
f 62//62 55//55 58//58
f 55//55 51//51 58//58
f 67//67 72//72 73//73
f 66//66 72//72 67//67
f 65//65 72//72 66//66
f 72//72 65//65 71//71
f 71//71 65//65 64//64
f 65//65 47//47 64//64
f 47//47 65//65 48//48
f 35//35 47//47 48//48
f 36//36 35//35 48//48
f 35//35 29//29 28//28
f 35//35 36//36 29//29
