# OBJ file
v -0.728516 0.892578 0.023085
v -0.728516 0.896484 0.023085
v -0.724609 0.888672 0.023085
v -0.724609 0.896484 0.023085
v -0.736328 0.892578 0.027701
v -0.736328 0.896484 0.027701
v -0.728516 0.904297 0.027701
v -0.724609 0.880859 0.027701
v -0.724609 0.904297 0.027701
v -0.716797 0.888672 0.027701
v -0.716797 0.896484 0.027701
v -0.740234 0.896484 0.032318
v -0.728516 0.908203 0.032318
v -0.720703 0.908203 0.032318
v -0.712891 0.900391 0.032318
v -0.732422 0.884766 0.036935
v -0.724609 0.876953 0.036935
v -0.716797 0.884766 0.036935
v -0.744141 0.896484 0.041552
v -0.736328 0.904297 0.041552
v -0.724609 0.912109 0.046169
v -0.744141 0.896484 0.050786
v -0.728516 0.912109 0.050786
v -0.724609 0.876953 0.050786
v -0.716797 0.884766 0.050786
v -0.740234 0.896484 0.055403
v -0.740234 0.900391 0.055403
v -0.732422 0.908203 0.055403
v -0.728516 0.884766 0.055403
v -0.724609 0.884766 0.055403
v -0.724609 0.912109 0.055403
v -0.716797 0.900391 0.055403
v -0.716797 0.904297 0.055403
vn -0.274881 -0.155926 -0.948750
vn -0.218222 0.218222 -0.951188
vn 0.063461 -0.275616 -0.959171
vn 0.218222 0.218222 -0.951188
vn -0.659958 -0.354197 -0.662571
vn -0.582882 0.270577 -0.766183
vn -0.270577 0.582882 -0.766183
vn 0.000000 -0.767881 -0.640593
vn 0.166824 0.540787 -0.824451
vn 0.737958 -0.319312 -0.594524
vn 0.540787 0.166824 -0.824451
vn -0.837582 0.167862 -0.519884
vn -0.321868 0.816340 -0.479573
vn 0.409995 0.782568 -0.468500
vn 0.892740 0.283535 -0.350176
vn -0.704005 -0.689290 -0.171046
vn -0.000000 -0.977813 -0.209482
vn 0.845206 -0.518946 -0.127758
vn -0.983148 0.018735 -0.181847
vn -0.674511 0.718226 -0.170839
vn 0.265427 0.956196 -0.123440
vn -0.961703 -0.044070 0.270526
vn -0.390200 0.919221 0.052695
vn 0.017592 -0.909684 0.414928
vn 0.792987 -0.413534 0.447393
vn -0.432967 -0.225673 0.872704
vn -0.573242 0.415943 0.705964
vn -0.469323 0.532831 0.704150
vn -0.274298 -0.367650 0.888591
vn 0.181461 -0.258049 0.948938
vn 0.211801 0.740784 0.637479
vn 0.638105 -0.037132 0.769054
vn 0.671252 0.329969 0.663733
f 27//27 22//22 26//26
f 13//13 20//20 23//23
f 10//10 11//11 15//15
f 8//8 3//3 10//10
f 25//25 30//30 24//24
f 21//21 14//14 13//13
f 21//21 13//13 23//23
f 31//31 21//21 23//23
f 28//28 31//31 23//23
f 30//30 29//29 24//24
f 25//25 32//32 30//30
f 33//33 32//32 15//15
f 32//32 25//25 15//15
f 18//18 10//10 15//15
f 25//25 18//18 15//15
f 5//5 12//12 6//6
f 12//12 5//5 19//19
f 5//5 16//16 19//19
f 7//7 2//2 6//6
f 24//24 16//16 17//17
f 16//16 22//22 19//19
f 22//22 16//16 24//24
f 11//11 3//3 4//4
f 3//3 11//11 10//10
f 20//20 12//12 19//19
f 12//12 20//20 13//13
f 3//3 2//2 4//4
f 2//2 3//3 1//1
f 21//21 31//31 33//33
f 21//21 33//33 15//15
f 14//14 21//21 15//15
f 20//20 28//28 23//23
f 28//28 22//22 27//27
f 22//22 28//28 19//19
f 28//28 20//20 19//19
f 22//22 29//29 26//26
f 29//29 22//22 24//24
f 31//31 32//32 33//33
f 32//32 27//27 26//26
f 32//32 29//29 30//30
f 28//28 32//32 31//31
f 32//32 28//28 27//27
f 29//29 32//32 26//26
f 8//8 18//18 17//17
f 18//18 8//8 10//10
f 18//18 24//24 17//17
f 18//18 25//25 24//24
f 5//5 3//3 8//8
f 3//3 5//5 1//1
f 5//5 2//2 1//1
f 2//2 5//5 6//6
f 16//16 5//5 17//17
f 5//5 8//8 17//17
f 7//7 12//12 13//13
f 12//12 7//7 6//6
f 9//9 14//14 15//15
f 9//9 11//11 4//4
f 11//11 9//9 15//15
f 2//2 9//9 4//4
f 7//7 9//9 2//2
f 9//9 7//7 13//13
f 14//14 9//9 13//13
