# OBJ file
v -0.068359 0.904297 -0.032318
v -0.064453 0.900391 -0.032318
v -0.107422 0.865234 -0.027701
v -0.099609 0.861328 -0.027701
v -0.076172 0.904297 -0.027701
v -0.068359 0.912109 -0.027701
v -0.064453 0.884766 -0.027701
v -0.056641 0.900391 -0.027701
v -0.115234 0.865234 -0.023085
v -0.095703 0.826172 -0.023085
v -0.091797 0.830078 -0.023085
v -0.060547 0.912109 -0.023085
v -0.052734 0.888672 -0.023085
v -0.052734 0.904297 -0.023085
v -0.115234 0.869141 -0.018468
v -0.103516 0.826172 -0.018468
v -0.095703 0.818359 -0.018468
v -0.083984 0.830078 -0.018468
v -0.044922 0.888672 -0.018468
v -0.111328 0.876953 -0.013851
v -0.103516 0.884766 -0.013851
v -0.056641 0.908203 -0.013851
v -0.044922 0.896484 -0.013851
v -0.107422 0.814453 -0.009234
v -0.099609 0.806641 -0.009234
v -0.041016 0.884766 -0.009234
v -0.041016 0.888672 -0.009234
v -0.041016 0.884766 -0.004617
v -0.052734 0.900391 0.000000
v -0.041016 0.888672 0.000000
v -0.056641 0.900391 0.004617
v -0.048828 0.892578 0.004617
v -0.134766 0.833984 0.013851
v -0.134766 0.837891 0.013851
v -0.126953 0.826172 0.013851
v -0.076172 0.791016 0.018468
v -0.068359 0.798828 0.018468
v -0.119141 0.888672 0.023085
v -0.111328 0.896484 0.023085
v -0.087891 0.802734 0.032318
v -0.076172 0.791016 0.032318
v -0.068359 0.798828 0.032318
v -0.076172 0.798828 0.036935
v -0.115234 0.853516 0.041552
v -0.115234 0.892578 0.041552
v -0.111328 0.837891 0.041552
v -0.107422 0.900391 0.041552
v -0.103516 0.830078 0.041552
v -0.095703 0.892578 0.041552
v -0.087891 0.884766 0.041552
v -0.111328 0.861328 0.046169
v -0.107422 0.892578 0.046169
v -0.103516 0.837891 0.046169
v -0.095703 0.884766 0.046169
v -0.103516 0.849609 0.050786
v -0.103516 0.861328 0.050786
v -0.099609 0.873047 0.050786
v -0.076172 0.857422 0.050786
v -0.095703 0.849609 0.055403
v -0.091797 0.849609 0.055403
v -0.083984 0.857422 0.055403
vn -0.013288 0.306406 -0.951808
vn 0.275237 0.075295 -0.958423
vn -0.314159 0.034813 -0.948732
vn -0.025962 -0.099971 -0.994652
vn -0.546293 0.512337 -0.662627
vn -0.095435 0.832136 -0.546299
vn 0.357220 -0.237382 -0.903351
vn 0.487350 0.135372 -0.862650
vn -0.701102 0.152580 -0.696546
vn -0.029677 -0.345916 -0.937796
vn 0.313716 -0.284894 -0.905769
vn 0.383354 0.881629 -0.275262
vn 0.420601 -0.218889 -0.880444
vn 0.700329 0.513707 -0.495625
vn -0.781339 0.459021 -0.422858
vn -0.512118 -0.302295 -0.803961
vn 0.048637 -0.500366 -0.864447
vn 0.494222 -0.383624 -0.780114
vn 0.725190 -0.081448 -0.683714
vn -0.668772 0.592623 -0.448934
vn -0.642112 0.644901 -0.414482
vn 0.497159 0.834847 0.236354
vn 0.843442 0.511851 -0.163136
vn -0.624707 -0.512567 -0.589080
vn -0.266605 -0.785583 -0.558374
vn 0.934278 -0.207637 -0.289847
vn 0.962464 0.189486 -0.194317
vn 0.983654 -0.165260 0.071515
vn 0.575422 0.706691 0.411676
vn 0.884723 0.270351 0.379704
vn 0.427498 0.698358 0.574057
vn 0.553174 0.489954 0.673753
vn -0.934302 -0.353055 0.049323
vn -0.995648 0.072907 0.058056
vn -0.680040 -0.713836 0.167283
vn 0.157903 -0.938993 -0.305545
vn 0.777059 -0.526808 -0.344460
vn -0.853734 0.507142 -0.118091
vn -0.613720 0.766045 -0.191108
vn -0.535952 -0.531824 0.655682
vn 0.057230 -0.885646 0.460821
vn 0.771651 -0.429338 0.469280
vn 0.074034 -0.367382 0.927119
vn -0.681469 -0.080875 0.727365
vn -0.747921 0.410144 0.521917
vn -0.561149 -0.333631 0.757497
vn -0.224748 0.818478 0.528755
vn -0.425384 -0.449128 0.785705
vn 0.386194 0.506266 0.771070
vn 0.459410 0.439754 0.771725
vn -0.577397 -0.007434 0.816430
vn -0.127662 0.313771 0.940877
vn -0.377111 -0.358159 0.854114
vn 0.321793 0.394170 0.860860
vn -0.482874 -0.143411 0.863867
vn -0.409913 0.042935 0.911113
vn -0.110661 0.151235 0.982284
vn 0.583841 0.108174 0.804629
vn -0.222346 -0.127111 0.966646
vn 0.073780 -0.162400 0.983963
vn 0.251968 0.104461 0.962081
f 41//41 25//25 36//36
f 35//35 25//25 41//41
f 6//6 39//39 47//47
f 9//9 24//24 33//33
f 40//40 46//46 33//33
f 37//37 19//19 26//26
f 19//19 37//37 18//18
f 25//25 17//17 36//36
f 9//9 16//16 24//24
f 48//48 53//53 46//46
f 44//44 51//51 45//45
f 46//46 44//44 33//33
f 55//55 44//44 46//46
f 44//44 55//55 51//51
f 30//30 58//58 42//42
f 58//58 30//30 32//32
f 42//42 43//43 41//41
f 53//53 43//43 59//59
f 49//49 31//31 47//47
f 31//31 22//22 47//47
f 28//28 30//30 42//42
f 34//34 9//9 33//33
f 38//38 34//34 45//45
f 50//50 58//58 32//32
f 43//43 60//60 59//59
f 31//31 29//29 22//22
f 12//12 6//6 47//47
f 22//22 12//12 47//47
f 2//2 11//11 10//10
f 11//11 2//2 7//7
f 14//14 23//23 19//19
f 34//34 15//15 9//9
f 15//15 34//34 38//38
f 20//20 15//15 38//38
f 15//15 5//5 9//9
f 5//5 15//15 20//20
f 21//21 39//39 6//6
f 54//54 52//52 61//61
f 45//45 52//52 47//47
f 52//52 56//56 59//59
f 2//2 13//13 7//7
f 13//13 11//11 7//7
f 8//8 14//14 19//19
f 3//3 4//4 10//10
f 4//4 2//2 10//10
f 2//2 4//4 3//3
f 27//27 23//23 30//30
f 19//19 27//27 26//26
f 23//23 27//27 19//19
f 1//1 5//5 6//6
f 1//1 2//2 3//3
f 61//61 57//57 59//59
f 57//57 52//52 59//59
f 52//52 57//57 61//61
f 35//35 24//24 25//25
f 24//24 35//35 33//33
f 35//35 40//40 33//33
f 40//40 35//35 41//41
f 37//37 42//42 41//41
f 37//37 41//41 36//36
f 17//17 37//37 36//36
f 37//37 17//17 18//18
f 39//39 38//38 47//47
f 38//38 45//45 47//47
f 24//24 16//16 25//25
f 16//16 17//17 25//25
f 17//17 16//16 10//10
f 48//48 40//40 41//41
f 40//40 48//48 46//46
f 53//53 55//55 46//46
f 55//55 53//53 59//59
f 56//56 55//55 59//59
f 55//55 56//56 51//51
f 43//43 48//48 41//41
f 48//48 43//43 53//53
f 58//58 61//61 42//42
f 61//61 43//43 42//42
f 37//37 28//28 42//42
f 28//28 37//37 26//26
f 11//11 17//17 10//10
f 17//17 11//11 18//18
f 16//16 3//3 10//10
f 3//3 16//16 9//9
f 34//34 44//44 45//45
f 44//44 34//34 33//33
f 31//31 50//50 32//32
f 50//50 31//31 49//49
f 60//60 61//61 59//59
f 61//61 60//60 43//43
f 54//54 61//61 58//58
f 50//50 54//54 58//58
f 54//54 50//50 49//49
f 29//29 31//31 32//32
f 30//30 29//29 32//32
f 23//23 29//29 30//30
f 29//29 23//23 22//22
f 12//12 23//23 14//14
f 23//23 12//12 22//22
f 21//21 5//5 20//20
f 5//5 21//21 6//6
f 21//21 38//38 39//39
f 21//21 20//20 38//38
f 52//52 54//54 49//49
f 52//52 49//49 47//47
f 56//56 52//52 51//51
f 51//51 52//52 45//45
f 11//11 13//13 18//18
f 13//13 19//19 18//18
f 13//13 8//8 19//19
f 8//8 13//13 2//2
f 27//27 28//28 26//26
f 28//28 27//27 30//30
f 1//1 8//8 2//2
f 12//12 1//1 6//6
f 1//1 12//12 14//14
f 8//8 1//1 14//14
f 1//1 3//3 9//9
f 5//5 1//1 9//9
