# OBJ file
v 0.701172 0.794922 -0.004617
v 0.705078 0.791016 -0.004617
v 0.705078 0.802734 -0.004617
v 0.712891 0.802734 -0.004617
v 0.716797 0.798828 -0.004617
v 0.693359 0.794922 0.000000
v 0.705078 0.783203 0.000000
v 0.712891 0.810547 0.000000
v 0.716797 0.791016 0.000000
v 0.724609 0.798828 0.000000
v 0.689453 0.814453 0.004617
v 0.693359 0.818359 0.004617
v 0.681641 0.814453 0.009234
v 0.693359 0.826172 0.009234
v 0.701172 0.791016 0.009234
v 0.708984 0.783203 0.009234
v 0.720703 0.794922 0.009234
v 0.720703 0.798828 0.009234
v 0.708984 0.791016 0.013851
v 0.712891 0.794922 0.013851
v 0.716797 0.802734 0.013851
v 0.681641 0.822266 0.018468
v 0.681641 0.826172 0.018468
v 0.689453 0.833984 0.018468
v 0.693359 0.806641 0.018468
v 0.701172 0.798828 0.018468
v 0.701172 0.830078 0.018468
v 0.708984 0.802734 0.018468
v 0.708984 0.822266 0.018468
v 0.689453 0.822266 0.023085
v 0.689453 0.826172 0.023085
v 0.701172 0.806641 0.023085
v 0.701172 0.822266 0.023085
vn -0.290416 -0.113326 -0.950166
vn -0.056711 -0.318257 -0.946307
vn -0.109051 0.221254 -0.969100
vn 0.155926 0.274881 -0.948750
vn 0.321958 -0.016089 -0.946617
vn -0.798061 -0.452725 -0.397666
vn -0.203858 -0.898301 -0.389227
vn 0.386700 0.602287 -0.698365
vn 0.569400 -0.656098 -0.495298
vn 0.936988 -0.022459 -0.348640
vn -0.389106 0.252636 -0.885873
vn -0.212778 0.399193 -0.891836
vn -0.941950 -0.132559 -0.308477
vn -0.092447 0.613543 -0.784231
vn -0.640458 -0.616333 0.458201
vn 0.103062 -0.902566 0.418034
vn 0.754448 -0.421214 0.503375
vn 0.825636 0.109271 0.553521
vn 0.213087 -0.411617 0.886096
vn 0.388306 -0.313048 0.866729
vn 0.623048 0.005969 0.782161
vn -0.822048 -0.162087 0.545862
vn -0.872453 0.458416 0.169353
vn -0.234870 0.966054 0.107586
vn -0.564381 -0.470447 0.678346
vn -0.317292 -0.523411 0.790802
vn 0.453893 0.869674 0.194032
vn 0.390988 -0.159446 0.906479
vn 0.756955 0.502647 0.417570
vn -0.269177 -0.113724 0.956353
vn -0.174030 0.243286 0.954215
vn 0.015104 -0.228312 0.973471
vn 0.248111 0.192732 0.949366
f 22//22 23//23 13//13
f 11//11 12//12 3//3
f 9//9 16//16 7//7
f 9//9 5//5 10//10
f 6//6 15//15 13//13
f 23//23 31//31 24//24
f 27//27 33//33 29//29
f 1//1 11//11 3//3
f 27//27 14//14 24//24
f 14//14 27//27 8//8
f 25//25 22//22 13//13
f 15//15 25//25 13//13
f 32//32 25//25 26//26
f 29//29 18//18 10//10
f 18//18 17//17 10//10
f 18//18 21//21 17//17
f 21//21 18//18 29//29
f 9//9 2//2 5//5
f 2//2 9//9 7//7
f 16//16 15//15 7//7
f 15//15 6//6 7//7
f 22//22 31//31 23//23
f 31//31 22//22 30//30
f 27//27 31//31 33//33
f 31//31 27//27 24//24
f 27//27 29//29 10//10
f 8//8 27//27 10//10
f 1//1 2//2 7//7
f 6//6 1//1 7//7
f 11//11 1//1 13//13
f 1//1 6//6 13//13
f 4//4 8//8 10//10
f 5//5 4//4 10//10
f 2//2 4//4 5//5
f 1//1 4//4 2//2
f 4//4 1//1 3//3
f 14//14 4//4 3//3
f 12//12 14//14 3//3
f 4//4 14//14 8//8
f 14//14 23//23 24//24
f 23//23 14//14 13//13
f 11//11 14//14 12//12
f 14//14 11//11 13//13
f 9//9 17//17 16//16
f 17//17 9//9 10//10
f 19//19 32//32 16//16
f 16//16 32//32 26//26
f 32//32 31//31 30//30
f 31//31 32//32 33//33
f 25//25 16//16 26//26
f 25//25 15//15 16//16
f 22//22 25//25 30//30
f 25//25 32//32 30//30
f 17//17 20//20 16//16
f 20//20 19//19 16//16
f 20//20 32//32 19//19
f 20//20 28//28 32//32
f 32//32 21//21 33//33
f 28//28 21//21 32//32
f 33//33 21//21 29//29
f 20//20 21//21 28//28
f 21//21 20//20 17//17
