# OBJ file
v -0.154297 -0.552734 -0.050786
v -0.134766 -0.521484 -0.050786
v -0.134766 -0.517578 -0.050786
v -0.162109 -0.552734 -0.046169
v -0.154297 -0.560547 -0.046169
v -0.146484 -0.552734 -0.046169
v -0.166016 -0.552734 -0.041552
v -0.166016 -0.548828 -0.041552
v -0.158203 -0.560547 -0.041552
v -0.142578 -0.478516 -0.041552
v -0.134766 -0.470703 -0.041552
v -0.119141 -0.521484 -0.041552
v -0.107422 -0.451172 -0.041552
v -0.150391 -0.478516 -0.036935
v -0.103516 -0.474609 -0.036935
v -0.099609 -0.451172 -0.036935
v -0.099609 -0.431641 -0.036935
v -0.169922 -0.552734 -0.032318
v -0.154297 -0.474609 -0.032318
v -0.138672 -0.447266 -0.032318
v -0.115234 -0.525391 -0.032318
v -0.099609 -0.423828 -0.032318
v -0.095703 -0.455078 -0.032318
v -0.091797 -0.435547 -0.032318
v -0.091797 -0.431641 -0.032318
v -0.146484 -0.447266 -0.027701
v -0.138672 -0.439453 -0.027701
v -0.095703 -0.466797 -0.027701
v -0.091797 -0.447266 -0.027701
v -0.107422 -0.509766 -0.023085
v -0.107422 -0.423828 -0.023085
v -0.150391 -0.443359 -0.018468
v -0.138672 -0.431641 -0.018468
v -0.095703 -0.470703 -0.018468
v -0.087891 -0.435547 -0.018468
v -0.087891 -0.431641 -0.018468
v -0.103516 -0.505859 -0.013851
v -0.095703 -0.419922 -0.013851
v -0.087891 -0.427734 -0.013851
v -0.103516 -0.505859 -0.004617
v -0.095703 -0.423828 -0.004617
v -0.087891 -0.431641 -0.004617
v -0.169922 -0.568359 0.000000
v -0.162109 -0.576172 0.000000
v -0.099609 -0.427734 0.000000
v -0.091797 -0.435547 0.000000
v -0.173828 -0.560547 0.004617
v -0.169922 -0.529297 0.004617
v -0.134766 -0.583984 0.004617
v -0.126953 -0.576172 0.004617
v -0.103516 -0.501953 0.004617
v -0.099609 -0.435547 0.004617
v -0.173828 -0.568359 0.009234
v -0.166016 -0.576172 0.009234
v -0.115234 -0.455078 0.013851
v -0.107422 -0.505859 0.013851
v -0.173828 -0.568359 0.018468
v -0.173828 -0.556641 0.018468
v -0.169922 -0.533203 0.018468
v -0.162109 -0.580078 0.018468
v -0.154297 -0.580078 0.023085
v -0.150391 -0.580078 0.023085
v -0.142578 -0.576172 0.023085
v -0.134766 -0.568359 0.023085
v -0.166016 -0.568359 0.027701
v -0.158203 -0.576172 0.027701
v -0.158203 -0.568359 0.032318
v -0.134766 -0.556641 0.032318
v -0.126953 -0.548828 0.032318
v -0.111328 -0.498047 0.032318
v -0.111328 -0.494141 0.032318
v -0.134766 -0.548828 0.036935
v -0.130859 -0.498047 0.036935
v -0.123047 -0.490234 0.036935
v -0.115234 -0.501953 0.036935
v -0.115234 -0.498047 0.036935
v -0.123047 -0.501953 0.041552
v -0.123047 -0.498047 0.041552
vn -0.070257 -0.210460 -0.975075
vn 0.253335 -0.106919 -0.961452
vn 0.010353 0.072119 -0.997342
vn -0.578424 -0.204437 -0.789704
vn -0.012704 -0.690551 -0.723172
vn 0.531366 -0.432460 -0.728442
vn -0.773222 -0.321923 -0.546345
vn -0.795143 0.122477 -0.593925
vn -0.544568 -0.701554 -0.459639
vn -0.315582 0.201471 -0.927264
vn -0.189562 0.219286 -0.957068
vn 0.627816 -0.269974 -0.730042
vn 0.143873 0.106440 -0.983855
vn -0.509274 0.210227 -0.834533
vn 0.638364 -0.146719 -0.755622
vn 0.515657 -0.061113 -0.854613
vn 0.142292 0.284927 -0.947929
vn -0.927530 -0.203764 -0.313319
vn -0.806611 0.234579 -0.542542
vn -0.322860 0.338166 -0.883971
vn 0.809062 -0.384977 -0.444085
vn 0.138899 0.777289 -0.613619
vn 0.777746 -0.159509 -0.608003
vn 0.764554 -0.041009 -0.643254
vn 0.733255 0.284342 -0.617646
vn -0.598272 0.389275 -0.700383
vn -0.412803 0.540974 -0.732763
vn 0.907125 -0.217893 -0.360065
vn 0.919441 -0.171183 -0.354012
vn 0.902287 -0.286519 -0.322157
vn -0.245165 0.951547 -0.185612
vn -0.821585 0.564214 0.081613
vn -0.553856 0.829785 0.068553
vn 0.973633 -0.220656 -0.057872
vn 0.987174 -0.098984 -0.125260
vn 0.973993 0.114160 -0.195715
vn 0.947815 -0.283113 -0.146609
vn 0.265711 0.960657 0.080845
vn 0.885200 0.465029 -0.012973
vn 0.961598 -0.266531 0.065503
vn 0.235359 0.768956 0.594401
vn 0.854093 0.245888 0.458328
vn -0.680241 -0.643742 -0.350526
vn -0.438854 -0.832451 -0.338278
vn -0.006269 0.620284 0.784352
vn 0.509537 0.277006 0.814641
vn -0.996536 0.025194 -0.079253
vn -0.981574 0.189128 -0.027261
vn 0.384200 -0.922103 -0.046006
vn 0.801995 -0.597255 0.009522
vn 0.945951 -0.229707 0.228936
vn 0.237835 0.390020 0.889561
vn -0.900978 -0.415231 -0.125785
vn -0.614287 -0.768185 -0.180394
vn -0.339032 0.517128 0.785898
vn 0.904504 -0.262584 0.336039
vn -0.875579 -0.341586 0.341586
vn -0.910126 0.087172 0.405058
vn -0.823909 0.217209 0.523445
vn -0.444118 -0.873465 0.199544
vn -0.084737 -0.884402 0.458969
vn 0.148918 -0.778427 0.609816
vn 0.386606 -0.579797 0.717197
vn 0.568569 -0.513581 0.642623
vn -0.575796 -0.226019 0.785732
vn -0.195829 -0.596369 0.778457
vn -0.184403 -0.236289 0.954025
vn 0.359895 -0.457540 0.813101
vn 0.679987 -0.326003 0.656764
vn 0.835477 -0.130975 0.533689
vn 0.713062 0.067910 0.697805
vn 0.180665 -0.227722 0.956819
vn -0.500503 0.306359 0.809716
vn -0.246571 0.467848 0.848718
vn 0.634841 -0.135724 0.760629
vn 0.554868 0.101289 0.825750
vn 0.148855 -0.057100 0.987209
vn 0.002024 0.212900 0.977072
f 44//44 5//5 49//49
f 42//42 40//40 35//35
f 40//40 42//42 51//51
f 59//59 73//73 32//32
f 48//48 18//18 47//47
f 18//18 48//48 32//32
f 48//48 59//59 32//32
f 9//9 5//5 44//44
f 5//5 4//4 1//1
f 10//10 3//3 1//1
f 19//19 18//18 32//32
f 19//19 8//8 18//18
f 29//29 24//24 35//35
f 65//65 73//73 59//59
f 74//74 73//73 78//78
f 6//6 12//12 21//21
f 6//6 5//5 1//1
f 3//3 2//2 1//1
f 13//13 2//2 3//3
f 63//63 62//62 49//49
f 60//60 44//44 49//49
f 41//41 33//33 45//45
f 41//41 38//38 33//33
f 18//18 53//53 47//47
f 65//65 58//58 57//57
f 58//58 65//65 59//59
f 58//58 48//48 47//47
f 48//48 58//58 59//59
f 67//67 65//65 66//66
f 74//74 55//55 33//33
f 55//55 74//74 45//45
f 33//33 55//55 45//45
f 4//4 7//7 8//8
f 8//8 7//7 18//18
f 28//28 29//29 35//35
f 12//12 28//28 21//21
f 50//50 40//40 51//51
f 50//50 37//37 40//40
f 37//37 50//50 21//21
f 50//50 6//6 21//21
f 62//62 61//61 49//49
f 61//61 60//60 49//49
f 61//61 62//62 66//66
f 60//60 61//61 66//66
f 38//38 31//31 33//33
f 60//60 54//54 44//44
f 13//13 11//11 17//17
f 11//11 20//20 17//17
f 20//20 11//11 10//10
f 11//11 3//3 10//10
f 11//11 13//13 3//3
f 22//22 27//27 33//33
f 15//15 16//16 24//24
f 23//23 15//15 24//24
f 28//28 15//15 23//23
f 15//15 28//28 12//12
f 30//30 37//37 21//21
f 28//28 30//30 21//21
f 30//30 28//28 37//37
f 34//34 28//28 35//35
f 28//28 34//34 37//37
f 67//67 77//77 78//78
f 72//72 77//77 67//67
f 72//72 68//68 69//69
f 42//42 70//70 51//51
f 64//64 50//50 69//69
f 36//36 25//25 39//39
f 26//26 27//27 20//20
f 26//26 14//14 19//19
f 26//26 19//19 32//32
f 70//70 56//56 51//51
f 56//56 70//70 69//69
f 56//56 50//50 51//51
f 50//50 56//56 69//69
f 70//70 75//75 69//69
f 71//71 70//70 42//42
f 74//74 33//33 32//32
f 73//73 74//74 32//32
f 74//74 52//52 45//45
f 52//52 74//74 78//78
f 6//6 2//2 12//12
f 2//2 6//6 1//1
f 60//60 65//65 57//57
f 65//65 60//60 66//66
f 52//52 41//41 45//45
f 41//41 46//46 42//42
f 46//46 41//41 52//52
f 39//39 41//41 42//42
f 41//41 39//39 38//38
f 53//53 58//58 47//47
f 58//58 53//53 57//57
f 65//65 67//67 73//73
f 73//73 67//67 78//78
f 4//4 14//14 1//1
f 14//14 10//10 1//1
f 14//14 4//4 8//8
f 19//19 14//14 8//8
f 7//7 9//9 44//44
f 43//43 7//7 44//44
f 7//7 53//53 18//18
f 53//53 7//7 43//43
f 9//9 7//7 5//5
f 7//7 4//4 5//5
f 28//28 23//23 24//24
f 29//29 28//28 24//24
f 6//6 50//50 5//5
f 5//5 50//50 49//49
f 31//31 22//22 33//33
f 22//22 31//31 38//38
f 36//36 39//39 42//42
f 36//36 42//42 35//35
f 53//53 54//54 57//57
f 54//54 60//60 57//57
f 54//54 43//43 44//44
f 54//54 53//53 43//43
f 20//20 27//27 17//17
f 27//27 22//22 17//17
f 2//2 15//15 12//12
f 16//16 15//15 13//13
f 15//15 2//2 13//13
f 37//37 34//34 40//40
f 40//40 34//34 35//35
f 68//68 72//72 67//67
f 68//68 62//62 63//63
f 62//62 68//68 66//66
f 68//68 67//67 66//66
f 64//64 68//68 63//63
f 68//68 64//64 69//69
f 50//50 64//64 49//49
f 64//64 63//63 49//49
f 25//25 36//36 35//35
f 24//24 25//25 35//35
f 39//39 25//25 38//38
f 25//25 22//22 38//38
f 25//25 13//13 17//17
f 25//25 16//16 13//13
f 16//16 25//25 24//24
f 22//22 25//25 17//17
f 33//33 26//26 32//32
f 27//27 26//26 33//33
f 14//14 26//26 10//10
f 26//26 20//20 10//10
f 75//75 77//77 72//72
f 75//75 72//72 69//69
f 76//76 52//52 78//78
f 76//76 46//46 52//52
f 75//75 76//76 77//77
f 77//77 76//76 78//78
f 46//46 71//71 42//42
f 76//76 71//71 46//46
f 71//71 76//76 75//75
f 71//71 75//75 70//70
