# OBJ file
v 0.501953 -0.853516 -0.018468
v 0.505859 -0.849609 -0.018468
v 0.509766 -0.849609 -0.018468
v 0.529297 -0.830078 -0.018468
v 0.494141 -0.853516 -0.013851
v 0.501953 -0.861328 -0.013851
v 0.505859 -0.841797 -0.013851
v 0.509766 -0.857422 -0.013851
v 0.529297 -0.822266 -0.013851
v 0.537109 -0.830078 -0.013851
v 0.548828 -0.814453 -0.009234
v 0.505859 -0.833984 -0.004617
v 0.517578 -0.861328 -0.004617
v 0.529297 -0.849609 -0.004617
v 0.544922 -0.806641 -0.004617
v 0.548828 -0.806641 -0.004617
v 0.556641 -0.814453 -0.004617
v 0.501953 -0.833984 0.000000
v 0.494141 -0.837891 0.004617
v 0.544922 -0.802734 0.004617
v 0.556641 -0.802734 0.004617
v 0.564453 -0.810547 0.004617
v 0.498047 -0.876953 0.009234
v 0.501953 -0.830078 0.009234
v 0.544922 -0.802734 0.009234
v 0.552734 -0.798828 0.009234
v 0.560547 -0.806641 0.009234
v 0.458984 -0.865234 0.013851
v 0.466797 -0.857422 0.013851
v 0.474609 -0.880859 0.013851
v 0.541016 -0.806641 0.013851
v 0.552734 -0.802734 0.013851
v 0.560547 -0.814453 0.013851
v 0.560547 -0.810547 0.013851
v 0.541016 -0.810547 0.018468
v 0.552734 -0.810547 0.018468
v 0.482422 -0.845703 0.023085
v 0.490234 -0.837891 0.023085
v 0.498047 -0.833984 0.023085
v 0.505859 -0.880859 0.023085
v 0.517578 -0.869141 0.023085
v 0.470703 -0.873047 0.032318
v 0.478516 -0.880859 0.032318
v 0.470703 -0.869141 0.036935
v 0.482422 -0.880859 0.036935
v 0.505859 -0.880859 0.036935
v 0.521484 -0.865234 0.036935
v 0.498047 -0.849609 0.041552
v 0.501953 -0.876953 0.041552
v 0.513672 -0.865234 0.041552
v 0.478516 -0.869141 0.046169
v 0.486328 -0.876953 0.046169
v 0.486328 -0.861328 0.046169
v 0.498047 -0.857422 0.046169
v 0.501953 -0.869141 0.046169
v 0.501953 -0.865234 0.046169
v 0.486328 -0.869141 0.050786
vn -0.203567 -0.097850 -0.974159
vn -0.209996 0.221216 -0.952347
vn 0.196726 -0.239124 -0.950852
vn 0.087117 0.058208 -0.994496
vn -0.545950 0.112415 -0.830242
vn -0.014345 -0.604907 -0.796167
vn -0.469350 0.512218 -0.719266
vn 0.344798 -0.525533 -0.777772
vn -0.303341 0.600905 -0.739525
vn 0.528158 -0.336650 -0.779562
vn 0.287885 0.225973 -0.930623
vn -0.534941 0.630826 -0.562047
vn 0.525308 -0.680392 -0.510997
vn 0.651519 -0.597246 -0.467782
vn -0.222508 0.714619 -0.663182
vn 0.189903 0.623279 -0.758591
vn 0.662399 -0.057608 -0.746933
vn -0.555792 0.678704 -0.480059
vn -0.596217 0.676790 -0.431834
vn -0.419667 0.873760 -0.245809
vn 0.540684 0.727182 -0.422928
vn 0.969506 0.090735 -0.227651
vn 0.162375 -0.843849 -0.511423
vn -0.559032 0.808462 -0.184044
vn -0.467146 0.862697 0.193724
vn 0.156529 0.977650 0.140351
vn 0.723617 0.615146 0.313006
vn -0.980550 0.011416 -0.195935
vn -0.693637 0.707105 -0.137367
vn -0.403331 -0.843403 -0.354957
vn -0.350453 0.761156 0.545733
vn 0.191253 0.621218 0.759941
vn 0.780221 -0.270804 0.563844
vn 0.686427 0.240075 0.686427
vn -0.151831 0.581238 0.799443
vn 0.276543 0.276496 0.920366
vn -0.632286 0.623253 0.460185
vn -0.551604 0.765664 0.330896
vn -0.343150 0.706565 0.618881
vn 0.379532 -0.908309 -0.175871
vn 0.722908 -0.681975 -0.110971
vn -0.710298 -0.586483 0.389248
vn -0.400132 -0.876924 0.266267
vn -0.766791 0.000304 0.641896
vn -0.274298 -0.888591 0.367650
vn 0.385142 -0.833581 0.395990
vn 0.707659 -0.451440 0.543526
vn -0.206526 0.559086 0.802976
vn 0.287044 -0.486657 0.825088
vn 0.388514 -0.148077 0.909467
vn -0.630747 0.000000 0.775989
vn -0.158980 -0.656436 0.737440
vn -0.380844 0.523161 0.762404
vn 0.071918 0.298259 0.951772
vn 0.304747 -0.236262 0.922665
vn 0.273063 0.065375 0.959772
vn -0.148454 -0.048258 0.987741
f 42//42 44//44 28//28
f 24//24 29//29 38//38
f 6//6 8//8 13//13
f 6//6 23//23 30//30
f 23//23 6//6 13//13
f 44//44 37//37 28//28
f 34//34 33//33 22//22
f 19//19 24//24 18//18
f 24//24 19//19 29//29
f 21//21 16//16 26//26
f 33//33 47//47 22//22
f 23//23 40//40 30//30
f 40//40 23//23 13//13
f 53//53 48//48 38//38
f 53//53 51//51 57//57
f 51//51 52//52 57//57
f 48//48 39//39 38//38
f 39//39 31//31 38//38
f 27//27 34//34 22//22
f 20//20 25//25 26//26
f 25//25 31//31 26//26
f 31//31 25//25 38//38
f 25//25 24//24 38//38
f 25//25 20//20 24//24
f 17//17 11//11 16//16
f 17//17 14//14 10//10
f 14//14 17//17 22//22
f 56//56 54//54 57//57
f 54//54 56//56 36//36
f 46//46 52//52 45//45
f 47//47 41//41 22//22
f 41//41 14//14 22//22
f 12//12 9//9 7//7
f 9//9 12//12 18//18
f 15//15 9//9 18//18
f 16//16 15//15 26//26
f 15//15 20//20 26//26
f 55//55 56//56 57//57
f 55//55 50//50 56//56
f 56//56 50//50 36//36
f 46//46 49//49 52//52
f 43//43 42//42 30//30
f 30//30 42//42 28//28
f 5//5 30//30 28//28
f 6//6 5//5 1//1
f 5//5 6//6 30//30
f 37//37 29//29 28//28
f 29//29 37//37 38//38
f 3//3 6//6 1//1
f 3//3 8//8 6//6
f 10//10 3//3 4//4
f 8//8 3//3 10//10
f 37//37 53//53 38//38
f 53//53 37//37 44//44
f 51//51 53//53 44//44
f 53//53 54//54 48//48
f 54//54 53//53 57//57
f 52//52 42//42 43//43
f 52//52 44//44 42//42
f 45//45 52//52 43//43
f 52//52 51//51 44//44
f 35//35 39//39 48//48
f 39//39 35//35 31//31
f 27//27 21//21 26//26
f 21//21 27//27 22//22
f 14//14 8//8 10//10
f 8//8 14//14 13//13
f 2//2 3//3 1//1
f 3//3 2//2 4//4
f 5//5 2//2 1//1
f 7//7 2//2 5//5
f 2//2 9//9 4//4
f 9//9 2//2 7//7
f 17//17 21//21 22//22
f 21//21 17//17 16//16
f 17//17 10//10 4//4
f 11//11 17//17 4//4
f 46//46 43//43 30//30
f 46//46 45//45 43//43
f 40//40 46//46 30//30
f 54//54 32//32 48//48
f 32//32 54//54 36//36
f 32//32 35//35 48//48
f 35//35 32//32 31//31
f 31//31 32//32 26//26
f 32//32 27//27 26//26
f 27//27 32//32 34//34
f 34//34 32//32 36//36
f 41//41 46//46 40//40
f 46//46 41//41 47//47
f 14//14 41//41 13//13
f 41//41 40//40 13//13
f 12//12 5//5 28//28
f 12//12 7//7 5//5
f 29//29 12//12 28//28
f 19//19 12//12 29//29
f 12//12 19//19 18//18
f 20//20 15//15 24//24
f 24//24 15//15 18//18
f 11//11 15//15 16//16
f 15//15 11//11 4//4
f 9//9 15//15 4//4
f 34//34 50//50 33//33
f 50//50 34//34 36//36
f 50//50 47//47 33//33
f 49//49 46//46 47//47
f 49//49 50//50 55//55
f 50//50 49//49 47//47
f 52//52 49//49 57//57
f 49//49 55//55 57//57
