# OBJ file
v 0.185547 -0.103516 -0.046169
v 0.189453 -0.103516 -0.046169
v 0.189453 -0.095703 -0.046169
v 0.193359 -0.099609 -0.046169
v 0.173828 -0.107422 -0.041552
v 0.181641 -0.095703 -0.041552
v 0.185547 -0.111328 -0.041552
v 0.189453 -0.111328 -0.041552
v 0.189453 -0.087891 -0.041552
v 0.201172 -0.099609 -0.041552
v 0.166016 -0.107422 -0.036935
v 0.173828 -0.115234 -0.036935
v 0.173828 -0.099609 -0.036935
v 0.189453 -0.115234 -0.036935
v 0.193359 -0.087891 -0.036935
v 0.197266 -0.107422 -0.036935
v 0.201172 -0.095703 -0.036935
v 0.166016 -0.107422 -0.032318
v 0.173828 -0.115234 -0.032318
v 0.185547 -0.087891 -0.032318
v 0.201172 -0.103516 -0.032318
v 0.166016 -0.103516 -0.027701
v 0.173828 -0.095703 -0.027701
v 0.181641 -0.115234 -0.023085
v 0.185547 -0.087891 -0.023085
v 0.189453 -0.115234 -0.023085
v 0.197266 -0.107422 -0.023085
v 0.166016 -0.103516 -0.018468
v 0.173828 -0.111328 -0.018468
v 0.173828 -0.095703 -0.018468
v 0.189453 -0.111328 -0.018468
v 0.189453 -0.087891 -0.018468
v 0.193359 -0.087891 -0.018468
v 0.201172 -0.099609 -0.018468
v 0.201172 -0.095703 -0.018468
v 0.173828 -0.103516 -0.013851
v 0.189453 -0.103516 -0.013851
v 0.189453 -0.095703 -0.013851
v 0.193359 -0.099609 -0.013851
v 0.193359 -0.095703 -0.013851
vn -0.175199 -0.136713 -0.974995
vn 0.155926 -0.274881 -0.948750
vn -0.018931 0.318770 -0.947643
vn 0.330784 0.000000 -0.943707
vn -0.355877 -0.116983 -0.927182
vn -0.505369 0.447573 -0.737754
vn -0.047525 -0.566307 -0.822823
vn 0.270577 -0.582882 -0.766183
vn -0.035183 0.807893 -0.588278
vn 0.806070 -0.023073 -0.591370
vn -0.862556 -0.083995 -0.498940
vn -0.351280 -0.826596 -0.439706
vn -0.619189 0.640191 -0.454709
vn 0.341586 -0.875579 -0.341586
vn 0.432967 0.872704 -0.225673
vn 0.697904 -0.649526 -0.301738
vn 0.872704 0.432967 -0.225673
vn -0.908078 -0.412490 0.072427
vn -0.404185 -0.909304 0.098999
vn -0.350640 0.929628 -0.113330
vn 0.918512 -0.393794 -0.035524
vn -0.899380 0.422486 -0.112343
vn -0.641637 0.751084 -0.155480
vn -0.067139 -0.923212 0.378380
vn -0.311983 0.940161 0.136983
vn 0.341586 -0.875579 0.341586
vn 0.714519 -0.634636 0.294449
vn -0.867728 0.052042 0.494307
vn -0.361398 -0.694318 0.622346
vn -0.523078 0.697178 0.490238
vn 0.270577 -0.582882 0.766183
vn -0.119444 0.833210 0.539903
vn 0.323411 0.822714 0.467491
vn 0.818375 -0.226390 0.528215
vn 0.822714 0.323411 0.467491
vn -0.258654 -0.037074 0.965258
vn 0.155926 -0.274881 0.948750
vn -0.071661 0.259697 0.963028
vn 0.274881 -0.155926 0.948750
vn 0.218222 0.218222 0.951188
f 3//3 6//6 9//9
f 30//30 28//28 36//36
f 28//28 29//29 36//36
f 5//5 3//3 1//1
f 13//13 23//23 9//9
f 32//32 25//25 30//30
f 23//23 20//20 9//9
f 19//19 24//24 29//29
f 21//21 16//16 10//10
f 27//27 21//21 34//34
f 40//40 35//35 33//33
f 4//4 9//9 10//10
f 4//4 3//3 9//9
f 3//3 5//5 6//6
f 6//6 5//5 11//11
f 13//13 6//6 11//11
f 6//6 13//13 9//9
f 22//22 13//13 11//11
f 13//13 22//22 23//23
f 23//23 22//22 30//30
f 22//22 28//28 30//30
f 15//15 20//20 33//33
f 32//32 20//20 25//25
f 20//20 15//15 9//9
f 20//20 32//32 33//33
f 20//20 23//23 30//30
f 25//25 20//20 30//30
f 18//18 22//22 11//11
f 22//22 18//18 28//28
f 18//18 19//19 28//28
f 28//28 19//19 29//29
f 27//27 31//31 26//26
f 31//31 27//27 34//34
f 15//15 17//17 9//9
f 9//9 17//17 10//10
f 17//17 15//15 33//33
f 35//35 17//17 33//33
f 14//14 8//8 16//16
f 16//16 8//8 10//10
f 24//24 31//31 29//29
f 31//31 24//24 26//26
f 12//12 14//14 26//26
f 12//12 24//24 19//19
f 24//24 12//12 26//26
f 12//12 18//18 11//11
f 12//12 19//19 18//18
f 12//12 8//8 14//14
f 8//8 12//12 7//7
f 5//5 12//12 11//11
f 12//12 5//5 1//1
f 7//7 12//12 1//1
f 14//14 21//21 26//26
f 21//21 27//27 26//26
f 21//21 14//14 16//16
f 17//17 21//21 10//10
f 21//21 17//17 35//35
f 21//21 35//35 34//34
f 31//31 37//37 29//29
f 29//29 37//37 36//36
f 37//37 31//31 34//34
f 39//39 37//37 34//34
f 35//35 40//40 34//34
f 40//40 39//39 34//34
f 4//4 2//2 3//3
f 3//3 2//2 1//1
f 2//2 8//8 7//7
f 2//2 7//7 1//1
f 2//2 4//4 10//10
f 8//8 2//2 10//10
f 37//37 38//38 36//36
f 38//38 37//37 39//39
f 40//40 38//38 39//39
f 38//38 30//30 36//36
f 38//38 32//32 30//30
f 32//32 38//38 33//33
f 38//38 40//40 33//33
