# OBJ file
v 0.732422 0.861328 0.004617
v 0.720703 0.857422 0.009234
v 0.720703 0.861328 0.009234
v 0.724609 0.853516 0.009234
v 0.724609 0.865234 0.009234
v 0.732422 0.853516 0.009234
v 0.732422 0.869141 0.009234
v 0.740234 0.861328 0.009234
v 0.712891 0.857422 0.013851
v 0.712891 0.861328 0.013851
v 0.724609 0.845703 0.013851
v 0.724609 0.873047 0.013851
v 0.728516 0.845703 0.013851
v 0.732422 0.873047 0.013851
v 0.736328 0.849609 0.013851
v 0.744141 0.857422 0.013851
v 0.744141 0.861328 0.013851
v 0.716797 0.853516 0.018468
v 0.724609 0.845703 0.018468
v 0.732422 0.845703 0.018468
v 0.736328 0.873047 0.018468
v 0.744141 0.865234 0.018468
v 0.712891 0.861328 0.023085
v 0.724609 0.873047 0.023085
v 0.728516 0.845703 0.023085
v 0.732422 0.845703 0.023085
v 0.732422 0.876953 0.023085
v 0.744141 0.857422 0.023085
v 0.720703 0.857422 0.027701
v 0.728516 0.849609 0.027701
v 0.728516 0.869141 0.027701
v 0.736328 0.873047 0.027701
v 0.744141 0.865234 0.027701
v 0.728516 0.857422 0.032318
v 0.728516 0.861328 0.032318
v 0.736328 0.865234 0.032318
vn 0.115984 0.027744 -0.992864
vn -0.376241 -0.195093 -0.905749
vn -0.389056 0.192355 -0.900908
vn -0.211362 -0.387947 -0.897120
vn -0.313048 0.388306 -0.866729
vn 0.210523 -0.455907 -0.864771
vn 0.196367 0.567704 -0.799470
vn 0.563581 0.106366 -0.819184
vn -0.843907 -0.345486 -0.410440
vn -0.822714 0.323411 -0.467491
vn -0.323411 -0.822714 -0.467491
vn -0.414588 0.771959 -0.481868
vn 0.108353 -0.841863 -0.528703
vn 0.270577 0.766183 -0.582882
vn 0.560387 -0.675789 -0.478828
vn 0.835706 -0.366194 -0.409264
vn 0.872704 0.225673 -0.432967
vn -0.697904 -0.649526 0.301738
vn -0.432967 -0.872704 0.225673
vn 0.386189 -0.915444 -0.113228
vn 0.615146 0.723617 -0.313006
vn 0.872704 0.432967 -0.225673
vn -0.861766 0.120501 0.492787
vn -0.528280 0.726538 0.439389
vn -0.225673 -0.872704 0.432967
vn 0.366194 -0.835706 0.409264
vn 0.087261 0.970338 0.225454
vn 0.829086 -0.414246 0.375522
vn -0.523411 -0.317292 0.790802
vn -0.106366 -0.563581 0.819184
vn -0.308644 0.456487 0.834481
vn 0.334019 0.725112 0.602199
vn 0.821111 0.186188 0.539547
vn -0.063461 -0.275616 0.959171
vn -0.258049 0.181461 0.948938
vn 0.203567 0.097850 0.974159
f 23//23 10//10 9//9
f 7//7 8//8 1//1
f 14//14 12//12 27//27
f 14//14 7//7 12//12
f 4//4 2//2 1//1
f 36//36 35//35 34//34
f 15//15 13//13 6//6
f 29//29 30//30 34//34
f 20//20 13//13 15//15
f 18//18 23//23 9//9
f 30//30 25//25 26//26
f 3//3 5//5 1//1
f 2//2 3//3 1//1
f 8//8 17//17 16//16
f 21//21 14//14 27//27
f 8//8 6//6 1//1
f 8//8 15//15 6//6
f 15//15 8//8 16//16
f 4//4 11//11 9//9
f 2//2 4//4 9//9
f 10//10 24//24 12//12
f 24//24 10//10 23//23
f 12//12 24//24 27//27
f 28//28 36//36 26//26
f 36//36 30//30 26//26
f 36//36 28//28 33//33
f 30//30 36//36 34//34
f 6//6 13//13 1//1
f 13//13 4//4 1//1
f 4//4 13//13 11//11
f 29//29 35//35 23//23
f 35//35 29//29 34//34
f 7//7 5//5 12//12
f 5//5 7//7 1//1
f 31//31 24//24 23//23
f 35//35 31//31 23//23
f 20//20 15//15 16//16
f 20//20 28//28 26//26
f 28//28 20//20 16//16
f 11//11 18//18 9//9
f 19//19 18//18 11//11
f 25//25 29//29 23//23
f 29//29 25//25 30//30
f 25//25 18//18 19//19
f 18//18 25//25 23//23
f 13//13 25//25 11//11
f 20//20 25//25 13//13
f 25//25 19//19 11//11
f 25//25 20//20 26//26
f 3//3 2//2 9//9
f 10//10 3//3 9//9
f 3//3 10//10 12//12
f 5//5 3//3 12//12
f 28//28 17//17 33//33
f 17//17 28//28 16//16
f 17//17 22//22 33//33
f 14//14 21//21 7//7
f 21//21 8//8 7//7
f 17//17 21//21 22//22
f 21//21 17//17 8//8
f 24//24 32//32 27//27
f 31//31 32//32 24//24
f 32//32 31//31 35//35
f 36//36 32//32 35//35
f 22//22 32//32 33//33
f 32//32 21//21 27//27
f 21//21 32//32 22//22
f 32//32 36//36 33//33
