# OBJ file
v -0.900391 0.751953 -0.023085
v -0.900391 0.755859 -0.023085
v -0.884766 0.759766 -0.023085
v -0.908203 0.751953 -0.018468
v -0.908203 0.755859 -0.018468
v -0.900391 0.744141 -0.018468
v -0.900391 0.763672 -0.018468
v -0.884766 0.751953 -0.018468
v -0.884766 0.767578 -0.018468
v -0.876953 0.759766 -0.018468
v -0.876953 0.763672 -0.018468
v -0.892578 0.744141 -0.013851
v -0.884766 0.748047 -0.013851
v -0.876953 0.771484 -0.013851
v -0.869141 0.763672 -0.013851
v -0.908203 0.751953 -0.009234
v -0.900391 0.744141 -0.009234
v -0.884766 0.775391 -0.009234
v -0.876953 0.751953 -0.009234
v -0.865234 0.763672 -0.009234
v -0.900391 0.751953 -0.004617
v -0.892578 0.763672 -0.004617
v -0.884766 0.771484 -0.004617
v -0.876953 0.751953 -0.004617
v -0.869141 0.775391 -0.004617
v -0.861328 0.767578 -0.004617
v -0.884766 0.759766 0.000000
v -0.884766 0.763672 0.000000
v -0.876953 0.759766 0.000000
v -0.869141 0.767578 0.000000
vn -0.147817 -0.253957 -0.955854
vn -0.241981 0.198827 -0.949691
vn 0.192644 0.030835 -0.980784
vn -0.822714 -0.323411 -0.467491
vn -0.840986 0.397688 -0.366860
vn -0.236571 -0.827318 -0.509489
vn -0.546206 0.740156 -0.392208
vn 0.399164 -0.539197 -0.741576
vn 0.002582 0.567999 -0.823025
vn 0.523411 -0.317292 -0.790802
vn 0.370328 0.247014 -0.895456
vn 0.290929 -0.946160 -0.141921
vn 0.476123 -0.795494 -0.374829
vn 0.246540 0.628293 -0.737879
vn 0.605680 -0.051898 -0.794014
vn -0.862556 -0.083995 0.498940
vn -0.294531 -0.831478 0.471059
vn -0.292322 0.956320 0.000112
vn 0.602316 -0.755014 -0.259169
vn 0.777271 -0.444888 -0.444888
vn -0.297961 -0.139711 0.944299
vn -0.505369 0.447573 0.737754
vn -0.338212 0.561110 0.755492
vn 0.419045 -0.739836 0.526350
vn 0.388281 0.904710 0.175319
vn 0.984815 0.104049 0.138975
vn -0.081435 -0.195406 0.977336
vn -0.206833 0.228491 0.951321
vn 0.155926 -0.274881 0.948750
vn 0.243204 0.082314 0.966476
f 25//25 30//30 26//26
f 25//25 14//14 18//18
f 16//16 5//5 4//4
f 1//1 6//6 4//4
f 9//9 7//7 18//18
f 14//14 9//9 18//18
f 11//11 14//14 15//15
f 1//1 2//2 3//3
f 2//2 5//5 7//7
f 23//23 25//25 18//18
f 28//28 23//23 22//22
f 28//28 21//21 27//27
f 10//10 8//8 3//3
f 24//24 17//17 12//12
f 20//20 15//15 26//26
f 15//15 14//14 26//26
f 14//14 25//25 26//26
f 7//7 5//5 18//18
f 5//5 16//16 18//18
f 29//29 28//28 27//27
f 28//28 29//29 30//30
f 29//29 24//24 26//26
f 30//30 29//29 26//26
f 11//11 10//10 3//3
f 10//10 11//11 15//15
f 9//9 11//11 3//3
f 11//11 9//9 14//14
f 2//2 9//9 3//3
f 9//9 2//2 7//7
f 2//2 1//1 4//4
f 5//5 2//2 4//4
f 23//23 28//28 30//30
f 23//23 30//30 25//25
f 16//16 23//23 18//18
f 22//22 23//23 16//16
f 21//21 22//22 16//16
f 21//21 28//28 22//22
f 1//1 8//8 6//6
f 8//8 1//1 3//3
f 6//6 8//8 12//12
f 8//8 13//13 12//12
f 17//17 21//21 16//16
f 21//21 17//17 27//27
f 29//29 17//17 24//24
f 17//17 29//29 27//27
f 6//6 17//17 4//4
f 17//17 16//16 4//4
f 17//17 6//6 12//12
f 19//19 10//10 15//15
f 19//19 8//8 10//10
f 8//8 19//19 13//13
f 20//20 19//19 15//15
f 24//24 19//19 26//26
f 19//19 20//20 26//26
f 13//13 19//19 12//12
f 19//19 24//24 12//12
