# OBJ file
v 0.361328 0.021484 -0.046169
v 0.361328 0.033203 -0.046169
v 0.365234 0.021484 -0.046169
v 0.376953 0.056641 -0.046169
v 0.388672 0.037109 -0.046169
v 0.392578 0.041016 -0.046169
v 0.392578 0.056641 -0.046169
v 0.353516 0.021484 -0.041552
v 0.353516 0.033203 -0.041552
v 0.361328 0.013672 -0.041552
v 0.365234 0.013672 -0.041552
v 0.369141 0.056641 -0.041552
v 0.376953 0.064453 -0.041552
v 0.388672 0.029297 -0.041552
v 0.400391 0.041016 -0.041552
v 0.388672 0.025391 -0.036935
v 0.400391 0.080078 -0.036935
v 0.408203 0.044922 -0.036935
v 0.408203 0.068359 -0.036935
v 0.357422 0.009766 -0.032318
v 0.396484 0.029297 -0.032318
v 0.400391 0.087891 -0.032318
v 0.408203 0.041016 -0.032318
v 0.408203 0.080078 -0.032318
v 0.416016 0.056641 -0.032318
v 0.416016 0.068359 -0.032318
v 0.345703 0.017578 -0.027701
v 0.353516 0.009766 -0.027701
v 0.365234 0.056641 -0.027701
v 0.376953 0.068359 -0.027701
v 0.400391 0.087891 -0.027701
v 0.416016 0.052734 -0.027701
v 0.345703 0.017578 -0.023085
v 0.357422 0.005859 -0.023085
v 0.400391 0.029297 -0.023085
v 0.404297 0.083984 -0.023085
v 0.408203 0.083984 -0.023085
v 0.412109 0.041016 -0.023085
v 0.416016 0.076172 -0.023085
v 0.365234 0.052734 -0.018468
v 0.376953 0.064453 -0.018468
v 0.400391 0.029297 -0.018468
v 0.416016 0.060547 -0.018468
v 0.416016 0.068359 -0.018468
v 0.349609 0.013672 -0.013851
v 0.357422 0.005859 -0.013851
v 0.400391 0.072266 -0.013851
v 0.404297 0.033203 -0.013851
v 0.404297 0.072266 -0.013851
v 0.412109 0.041016 -0.013851
v 0.412109 0.064453 -0.013851
v 0.349609 0.017578 -0.009234
v 0.349609 0.025391 -0.009234
v 0.357422 0.009766 -0.009234
v 0.365234 0.013672 -0.009234
v 0.380859 0.056641 -0.009234
v 0.400391 0.033203 -0.009234
v 0.400391 0.064453 -0.009234
v 0.404297 0.064453 -0.009234
v 0.408203 0.041016 -0.009234
v 0.353516 0.025391 -0.004617
v 0.357422 0.017578 -0.004617
v 0.361328 0.017578 -0.004617
v 0.361328 0.033203 -0.004617
v 0.369141 0.021484 -0.004617
v 0.380859 0.048828 -0.004617
v 0.400391 0.041016 -0.004617
v 0.361328 0.025391 0.000000
v 0.369141 0.029297 0.000000
v 0.376953 0.037109 0.000000
vn -0.218222 -0.218222 -0.951188
vn -0.266464 0.099559 -0.958689
vn 0.099559 -0.266464 -0.958689
vn -0.189669 0.245966 -0.950540
vn 0.204351 -0.229489 -0.951617
vn 0.274881 -0.155926 -0.948750
vn 0.191617 0.119221 -0.974202
vn -0.635586 -0.242486 -0.732960
vn -0.782636 0.289517 -0.551054
vn -0.227483 -0.672821 -0.703962
vn 0.243294 -0.746937 -0.618784
vn -0.632777 0.515176 -0.578089
vn -0.476621 0.617595 -0.625627
vn 0.435799 -0.525301 -0.730848
vn 0.523411 -0.317292 -0.790802
vn 0.504178 -0.747293 -0.432849
vn 0.160132 0.377714 -0.911970
vn 0.641477 -0.297216 -0.707227
vn 0.409448 0.150299 -0.899868
vn -0.317292 -0.790802 -0.523411
vn 0.588640 -0.692445 -0.417161
vn -0.003845 0.886037 -0.463599
vn 0.702139 -0.552218 -0.449507
vn 0.588795 0.502182 -0.633352
vn 0.849102 -0.092360 -0.520091
vn 0.825757 0.149083 -0.543967
vn -0.947438 -0.206746 -0.244166
vn -0.615146 -0.723617 -0.313006
vn -0.781240 0.623535 0.029460
vn -0.673824 0.736196 0.063057
vn -0.141769 0.937575 0.317576
vn 0.959243 -0.247423 -0.136505
vn -0.985302 -0.159192 0.061947
vn -0.128124 -0.982202 -0.137341
vn 0.609156 -0.779764 -0.144561
vn -0.070565 0.624824 0.777570
vn 0.492071 0.782705 0.381103
vn 0.830811 -0.529927 -0.170090
vn 0.847973 0.484013 0.216039
vn -0.668498 0.568766 0.479183
vn -0.525505 0.633627 0.567768
vn 0.569747 -0.810962 0.133152
vn 0.925261 -0.027914 0.378303
vn 0.835691 0.192406 0.514393
vn -0.763165 -0.570036 0.304366
vn -0.126561 -0.933831 0.334576
vn -0.143148 0.525319 0.838778
vn 0.627048 -0.714267 0.310858
vn 0.190049 0.472177 0.860773
vn 0.834106 -0.395920 0.384077
vn 0.549317 0.182833 0.815367
vn -0.743557 -0.261433 0.615448
vn -0.854301 0.297797 0.426013
vn -0.135668 -0.628264 0.766080
vn 0.328882 -0.617472 0.714538
vn -0.317633 0.491688 0.810772
vn 0.420954 -0.598151 0.681919
vn -0.066102 0.382036 0.921780
vn 0.243403 0.286976 0.926499
vn 0.576391 -0.249906 0.778023
vn -0.563183 0.172315 0.808166
vn -0.247014 -0.370328 0.895456
vn 0.143617 -0.483247 0.863624
vn -0.431893 0.466544 0.771884
vn 0.265124 -0.486217 0.832648
vn -0.209676 0.392061 0.895725
vn 0.310274 -0.134808 0.941040
vn -0.170008 -0.056824 0.983803
vn 0.137342 -0.228044 0.963915
vn -0.032076 0.123669 0.991805
f 9//9 8//8 27//27
f 29//29 53//53 40//40
f 31//31 37//37 22//22
f 17//17 19//19 7//7
f 29//29 12//12 9//9
f 53//53 61//61 40//40
f 70//70 66//66 68//68
f 70//70 67//67 59//59
f 67//67 57//57 60//60
f 30//30 31//31 22//22
f 13//13 30//30 22//22
f 36//36 31//31 47//47
f 36//36 37//37 31//31
f 24//24 17//17 22//22
f 26//26 24//24 39//39
f 4//4 12//12 13//13
f 4//4 17//17 7//7
f 58//58 70//70 59//59
f 58//58 66//66 70//70
f 69//69 70//70 68//68
f 69//69 67//67 70//70
f 48//48 57//57 46//46
f 14//14 16//16 11//11
f 16//16 21//21 35//35
f 34//34 16//16 35//35
f 16//16 34//34 11//11
f 30//30 41//41 31//31
f 31//31 56//56 47//47
f 41//41 56//56 31//31
f 45//45 52//52 33//33
f 52//52 54//54 62//62
f 50//50 32//32 43//43
f 42//42 48//48 46//46
f 28//28 20//20 34//34
f 65//65 55//55 57//57
f 55//55 54//54 46//46
f 57//57 55//55 46//46
f 64//64 56//56 41//41
f 29//29 33//33 53//53
f 33//33 9//9 27//27
f 33//33 29//29 9//9
f 67//67 51//51 59//59
f 51//51 67//67 60//60
f 12//12 30//30 13//13
f 30//30 12//12 29//29
f 49//49 44//44 39//39
f 37//37 49//49 39//39
f 49//49 51//51 44//44
f 51//51 49//49 59//59
f 36//36 49//49 37//37
f 49//49 36//36 47//47
f 24//24 26//26 19//19
f 17//17 24//24 19//19
f 24//24 37//37 39//39
f 37//37 24//24 22//22
f 17//17 4//4 22//22
f 4//4 13//13 22//22
f 19//19 18//18 7//7
f 18//18 6//6 7//7
f 26//26 18//18 19//19
f 18//18 26//26 25//25
f 18//18 15//15 6//6
f 3//3 10//10 1//1
f 10//10 3//3 11//11
f 10//10 8//8 1//1
f 49//49 58//58 59//59
f 58//58 49//49 47//47
f 69//69 65//65 57//57
f 67//67 69//69 57//57
f 8//8 2//2 1//1
f 2//2 8//8 9//9
f 12//12 2//2 9//9
f 4//4 2//2 12//12
f 21//21 38//38 35//35
f 38//38 21//21 23//23
f 44//44 32//32 39//39
f 32//32 26//26 39//39
f 26//26 32//32 25//25
f 43//43 32//32 44//44
f 32//32 18//18 25//25
f 18//18 32//32 23//23
f 32//32 38//38 23//23
f 6//6 5//5 7//7
f 5//5 2//2 4//4
f 5//5 3//3 1//1
f 5//5 4//4 7//7
f 2//2 5//5 1//1
f 15//15 5//5 6//6
f 14//14 5//5 15//15
f 5//5 14//14 11//11
f 3//3 5//5 11//11
f 21//21 16//16 23//23
f 16//16 14//14 15//15
f 16//16 18//18 23//23
f 18//18 16//16 15//15
f 20//20 10//10 11//11
f 34//34 20//20 11//11
f 41//41 30//30 29//29
f 41//41 29//29 40//40
f 56//56 58//58 47//47
f 58//58 56//56 66//66
f 33//33 52//52 53//53
f 52//52 45//45 46//46
f 54//54 52//52 46//46
f 52//52 61//61 53//53
f 61//61 52//52 68//68
f 52//52 62//62 68//68
f 32//32 50//50 38//38
f 51//51 50//50 44//44
f 50//50 51//51 60//60
f 50//50 43//43 44//44
f 57//57 50//50 60//60
f 48//48 50//50 57//57
f 42//42 50//50 48//48
f 38//38 42//42 35//35
f 50//50 42//42 38//38
f 34//34 42//42 46//46
f 42//42 34//34 35//35
f 28//28 45//45 33//33
f 28//28 34//34 46//46
f 28//28 33//33 27//27
f 45//45 28//28 46//46
f 10//10 28//28 8//8
f 8//8 28//28 27//27
f 20//20 28//28 10//10
f 69//69 63//63 65//65
f 63//63 69//69 68//68
f 62//62 63//63 68//68
f 54//54 63//63 62//62
f 63//63 55//55 65//65
f 55//55 63//63 54//54
f 64//64 61//61 68//68
f 56//56 64//64 66//66
f 66//66 64//64 68//68
f 61//61 64//64 40//40
f 64//64 41//41 40//40
