# OBJ file
v -0.583984 0.208984 -0.027701
v -0.583984 0.212891 -0.027701
v -0.580078 0.212891 -0.027701
v -0.580078 0.220703 -0.027701
v -0.591797 0.208984 -0.023085
v -0.591797 0.212891 -0.023085
v -0.587891 0.220703 -0.023085
v -0.583984 0.201172 -0.023085
v -0.580078 0.228516 -0.023085
v -0.572266 0.205078 -0.023085
v -0.572266 0.220703 -0.023085
v -0.595703 0.212891 -0.018468
v -0.591797 0.193359 -0.018468
v -0.591797 0.220703 -0.018468
v -0.583984 0.228516 -0.018468
v -0.572266 0.197266 -0.018468
v -0.568359 0.228516 -0.018468
v -0.564453 0.205078 -0.018468
v -0.599609 0.193359 -0.013851
v -0.591797 0.185547 -0.013851
v -0.591797 0.220703 -0.013851
v -0.583984 0.228516 -0.013851
v -0.568359 0.236328 -0.013851
v -0.560547 0.228516 -0.013851
v -0.595703 0.212891 -0.009234
v -0.591797 0.193359 -0.009234
v -0.564453 0.240234 -0.009234
v -0.556641 0.232422 -0.009234
v -0.591797 0.212891 -0.004617
v -0.591797 0.216797 -0.004617
v -0.580078 0.228516 -0.004617
v -0.572266 0.197266 -0.004617
v -0.564453 0.205078 -0.004617
v -0.560547 0.216797 -0.004617
v -0.583984 0.212891 0.000000
v -0.583984 0.220703 0.000000
v -0.572266 0.232422 0.000000
v -0.568359 0.232422 0.000000
v -0.560547 0.216797 0.000000
v -0.560547 0.224609 0.000000
v -0.576172 0.216797 0.004617
v -0.576172 0.220703 0.004617
v -0.572266 0.212891 0.004617
v -0.572266 0.224609 0.004617
v -0.568359 0.216797 0.004617
v -0.568359 0.224609 0.004617
vn -0.122824 -0.207746 -0.970441
vn -0.259697 0.071661 -0.963028
vn 0.230494 -0.060996 -0.971160
vn 0.020708 0.241979 -0.970060
vn -0.558525 -0.076474 -0.825955
vn -0.592375 0.146210 -0.792284
vn -0.539197 0.399164 -0.741576
vn 0.077661 -0.458170 -0.885465
vn -0.176111 0.646222 -0.742551
vn 0.338124 -0.256256 -0.905541
vn 0.465940 0.105053 -0.878558
vn -0.886839 0.251700 -0.387510
vn -0.247014 -0.370328 -0.895456
vn -0.774885 0.539107 -0.330026
vn -0.584559 0.759904 -0.284319
vn 0.484438 -0.714845 -0.504298
vn 0.378381 0.338781 -0.861427
vn 0.771987 -0.380396 -0.509250
vn -0.916849 -0.399171 0.007101
vn -0.226086 -0.973912 -0.019488
vn -0.784639 0.604576 0.137222
vn -0.624571 0.766850 0.147822
vn 0.206034 0.569445 -0.795791
vn 0.559210 0.191881 -0.806514
vn -0.897928 0.245238 0.365491
vn -0.294739 -0.343899 0.891551
vn 0.256591 0.966023 -0.031003
vn 0.906177 0.415410 -0.079234
vn -0.563058 -0.058848 0.824319
vn -0.686393 0.335781 0.645070
vn -0.588640 0.692445 0.417161
vn 0.398091 -0.729787 0.555819
vn 0.750303 -0.524784 0.402053
vn 0.961156 -0.275132 -0.021947
vn -0.407441 -0.120964 0.905185
vn -0.523411 0.317292 0.790802
vn -0.321644 0.672964 0.666081
vn 0.208338 0.553606 0.806298
vn 0.795088 -0.248080 0.553436
vn 0.663578 0.177546 0.726734
vn -0.237750 -0.081423 0.967908
vn -0.274881 0.155926 0.948750
vn 0.073566 -0.290390 0.954076
vn -0.155926 0.274881 0.948750
vn 0.274881 -0.155926 0.948750
vn 0.218222 0.218222 0.951188
f 26//26 43//43 41//41
f 35//35 26//26 41//41
f 20//20 26//26 19//19
f 20//20 16//16 32//32
f 7//7 9//9 4//4
f 23//23 9//9 27//27
f 9//9 15//15 27//27
f 18//18 24//24 28//28
f 34//34 18//18 28//28
f 15//15 22//22 27//27
f 21//21 25//25 30//30
f 13//13 20//20 19//19
f 20//20 8//8 16//16
f 18//18 11//11 24//24
f 10//10 18//18 16//16
f 37//37 38//38 27//27
f 39//39 34//34 28//28
f 3//3 10//10 1//1
f 23//23 24//24 17//17
f 23//23 27//27 28//28
f 24//24 23//23 28//28
f 25//25 29//29 30//30
f 29//29 25//25 19//19
f 40//40 38//38 46//46
f 27//27 40//40 28//28
f 38//38 40//40 27//27
f 35//35 29//29 19//19
f 26//26 35//35 19//19
f 20//20 43//43 26//26
f 43//43 20//20 32//32
f 9//9 23//23 17//17
f 9//9 17//17 4//4
f 31//31 21//21 30//30
f 22//22 21//21 31//31
f 13//13 8//8 20//20
f 8//8 13//13 1//1
f 2//2 6//6 7//7
f 2//2 7//7 4//4
f 13//13 5//5 1//1
f 5//5 13//13 19//19
f 2//2 5//5 6//6
f 5//5 2//2 1//1
f 16//16 33//33 32//32
f 18//18 33//33 16//16
f 24//24 11//11 17//17
f 17//17 11//11 4//4
f 10//10 8//8 1//1
f 8//8 10//10 16//16
f 14//14 22//22 15//15
f 14//14 21//21 22//22
f 9//9 14//14 15//15
f 14//14 9//9 7//7
f 35//35 42//42 29//29
f 29//29 42//42 30//30
f 42//42 35//35 41//41
f 42//42 36//36 30//30
f 42//42 45//45 46//46
f 45//45 42//42 43//43
f 43//43 42//42 41//41
f 44//44 42//42 46//46
f 36//36 37//37 30//30
f 37//37 31//31 30//30
f 38//38 37//37 46//46
f 37//37 44//44 46//46
f 37//37 42//42 44//44
f 42//42 37//37 36//36
f 37//37 22//22 31//31
f 22//22 37//37 27//27
f 39//39 18//18 34//34
f 39//39 33//33 18//18
f 40//40 39//39 28//28
f 39//39 40//40 46//46
f 45//45 39//39 46//46
f 39//39 43//43 32//32
f 33//33 39//39 32//32
f 39//39 45//45 43//43
f 11//11 3//3 4//4
f 3//3 11//11 18//18
f 10//10 3//3 18//18
f 2//2 3//3 1//1
f 3//3 2//2 4//4
f 6//6 12//12 7//7
f 12//12 14//14 7//7
f 14//14 12//12 21//21
f 21//21 12//12 25//25
f 5//5 12//12 6//6
f 12//12 5//5 19//19
f 25//25 12//12 19//19
