# OBJ file
v -0.251953 -0.998047 -0.036935
v -0.248047 -0.998047 -0.036935
v -0.248047 -0.994141 -0.036935
v -0.259766 -0.998047 -0.032318
v -0.251953 -0.986328 -0.032318
v -0.240234 -0.998047 -0.032318
v -0.240234 -0.994141 -0.032318
v -0.263672 -0.994141 -0.027701
v -0.259766 -0.986328 -0.027701
v -0.251953 -0.978516 -0.027701
v -0.240234 -0.978516 -0.027701
v -0.244141 -0.970703 -0.023085
v -0.240234 -0.970703 -0.023085
v -0.232422 -0.978516 -0.023085
v -0.263672 -0.986328 -0.018468
v -0.251953 -0.974609 -0.018468
v -0.240234 -0.966797 -0.018468
v -0.232422 -0.998047 -0.018468
v -0.232422 -0.974609 -0.018468
v -0.228516 -0.982422 -0.018468
v -0.244141 -0.966797 -0.013851
v -0.236328 -0.970703 -0.013851
v -0.228516 -0.978516 -0.013851
v -0.275391 -0.998047 -0.009234
v -0.271484 -0.994141 0.000000
v -0.263672 -0.986328 0.000000
v -0.251953 -0.978516 0.000000
v -0.240234 -0.998047 0.000000
v -0.240234 -0.990234 0.000000
v -0.267578 -0.998047 0.004617
v -0.267578 -0.994141 0.004617
v -0.259766 -0.986328 0.004617
v -0.251953 -0.986328 0.004617
v -0.248047 -0.990234 0.004617
v -0.259766 -0.998047 0.009234
v -0.259766 -0.994141 0.009234
v -0.255859 -0.998047 0.009234
vn -0.244767 -0.571433 -0.783297
vn 0.172834 -0.658865 -0.732137
vn 0.101574 0.204572 -0.973567
vn -0.446502 -0.583883 -0.678025
vn -0.233986 0.393459 -0.889067
vn 0.461380 -0.671293 -0.580082
vn 0.558525 0.076474 -0.825955
vn -0.736355 0.156203 -0.658318
vn -0.617756 0.478367 -0.624134
vn -0.384863 0.609694 -0.692931
vn 0.247014 0.370328 -0.895456
vn -0.266097 0.687869 -0.675299
vn 0.270577 0.582882 -0.766183
vn 0.657430 0.316200 -0.683962
vn -0.737437 0.641085 -0.212595
vn -0.658421 0.725214 -0.201360
vn 0.241849 0.939690 -0.241849
vn 0.704769 -0.707007 -0.058673
vn 0.723617 0.615146 -0.313006
vn 0.961647 -0.008001 -0.274175
vn -0.179604 0.948125 0.262302
vn 0.568488 0.674456 0.471095
vn 0.893951 0.327654 0.305770
vn -0.925734 -0.371696 -0.069700
vn -0.845843 0.319184 0.427400
vn -0.642819 0.699985 0.311134
vn -0.067957 0.665255 0.743517
vn 0.486176 -0.669233 0.561925
vn 0.540787 0.166824 0.824451
vn -0.455588 -0.672436 0.583326
vn -0.582882 0.270577 0.766183
vn -0.317462 0.578722 0.751198
vn 0.211362 0.387947 0.897120
vn 0.387947 0.211362 0.897120
vn -0.172834 -0.658865 0.732137
vn -0.157592 0.222012 0.962224
vn 0.184004 -0.609584 0.771071
f 23//23 18//18 20//20
f 9//9 8//8 24//24
f 28//28 18//18 23//23
f 15//15 9//9 24//24
f 8//8 4//4 24//24
f 4//4 8//8 9//9
f 18//18 6//6 20//20
f 5//5 3//3 1//1
f 31//31 36//36 32//32
f 30//30 25//25 24//24
f 25//25 30//30 31//31
f 3//3 2//2 1//1
f 36//36 35//35 37//37
f 21//21 22//22 17//17
f 22//22 21//21 27//27
f 12//12 21//21 17//17
f 29//29 28//28 23//23
f 13//13 12//12 17//17
f 27//27 26//26 32//32
f 21//21 26//26 27//27
f 14//14 19//19 23//23
f 14//14 23//23 20//20
f 4//4 5//5 1//1
f 5//5 4//4 9//9
f 19//19 22//22 23//23
f 22//22 19//19 17//17
f 14//14 7//7 11//11
f 7//7 3//3 11//11
f 2//2 7//7 6//6
f 7//7 2//2 3//3
f 7//7 14//14 20//20
f 6//6 7//7 20//20
f 35//35 6//6 18//18
f 28//28 35//35 18//18
f 35//35 4//4 1//1
f 35//35 28//28 37//37
f 4//4 35//35 24//24
f 35//35 2//2 6//6
f 35//35 30//30 24//24
f 2//2 35//35 1//1
f 30//30 35//35 31//31
f 35//35 36//36 31//31
f 28//28 29//29 37//37
f 29//29 34//34 37//37
f 22//22 33//33 23//23
f 33//33 22//22 27//27
f 29//29 33//33 34//34
f 33//33 29//29 23//23
f 33//33 27//27 32//32
f 36//36 33//33 32//32
f 34//34 33//33 37//37
f 33//33 36//36 37//37
f 10//10 5//5 9//9
f 10//10 15//15 16//16
f 15//15 10//10 9//9
f 21//21 10//10 16//16
f 10//10 21//21 12//12
f 14//14 13//13 19//19
f 19//19 13//13 17//17
f 13//13 14//14 11//11
f 3//3 13//13 11//11
f 13//13 10//10 12//12
f 5//5 13//13 3//3
f 10//10 13//13 5//5
f 26//26 31//31 32//32
f 26//26 25//25 31//31
f 15//15 26//26 16//16
f 26//26 15//15 24//24
f 25//25 26//26 24//24
f 26//26 21//21 16//16
