# OBJ file
v -0.228516 -0.033203 -0.041552
v -0.228516 -0.021484 -0.041552
v -0.236328 -0.033203 -0.036935
v -0.236328 -0.021484 -0.036935
v -0.228516 -0.041016 -0.036935
v -0.224609 -0.005859 -0.036935
v -0.220703 -0.033203 -0.036935
v -0.220703 -0.021484 -0.036935
v -0.240234 -0.025391 -0.032318
v -0.240234 -0.021484 -0.032318
v -0.232422 -0.005859 -0.032318
v -0.224609 -0.044922 -0.032318
v -0.224609 0.001953 -0.032318
v -0.216797 -0.037109 -0.032318
v -0.216797 -0.005859 -0.032318
v -0.240234 -0.029297 -0.027701
v -0.240234 -0.025391 -0.027701
v -0.236328 -0.033203 -0.023085
v -0.236328 -0.009766 -0.023085
v -0.224609 -0.044922 -0.023085
v -0.224609 0.001953 -0.023085
v -0.216797 -0.037109 -0.023085
v -0.216797 -0.005859 -0.023085
v -0.232422 -0.033203 -0.018468
v -0.232422 -0.025391 -0.018468
v -0.228516 -0.009766 -0.018468
v -0.224609 -0.041016 -0.018468
v -0.224609 -0.005859 -0.018468
v -0.216797 -0.033203 -0.018468
v -0.216797 -0.025391 -0.018468
v -0.224609 -0.033203 -0.013851
v -0.224609 -0.025391 -0.013851
vn 0.000000 -0.216333 -0.976320
vn -0.028901 0.124743 -0.991768
vn -0.720309 -0.419932 -0.552097
vn -0.578728 0.164482 -0.798761
vn -0.264842 -0.728859 -0.631366
vn 0.040211 0.328127 -0.943777
vn 0.540787 -0.166824 -0.824451
vn 0.570617 0.034042 -0.820510
vn -0.923212 -0.067139 -0.378380
vn -0.926419 0.189488 -0.325335
vn -0.684426 0.551630 -0.476724
vn 0.058136 -0.930426 -0.361839
vn 0.000000 0.897514 -0.440985
vn 0.835706 -0.366194 -0.409264
vn 0.825319 0.346417 -0.445919
vn -0.924667 -0.300856 0.233402
vn -0.925221 0.034885 0.377821
vn -0.777271 -0.444888 0.444888
vn -0.802187 0.410314 0.433748
vn 0.000000 -0.943130 0.332425
vn 0.000000 0.897514 0.440985
vn 0.872704 -0.432967 0.225673
vn 0.824823 0.367256 0.429872
vn -0.582882 -0.270577 0.766183
vn -0.570617 0.034042 0.820510
vn -0.352494 0.249783 0.901863
vn -0.000000 -0.630747 0.775989
vn 0.038521 0.347527 0.936878
vn 0.811454 -0.194817 0.550989
vn 0.835361 0.055743 0.546868
vn -0.000000 -0.216333 0.976320
vn 0.009316 0.081530 0.996627
f 15//15 6//6 13//13
f 6//6 11//11 13//13
f 27//27 29//29 31//31
f 21//21 28//28 23//23
f 11//11 10//10 19//19
f 10//10 17//17 19//19
f 26//26 32//32 28//28
f 4//4 10//10 11//11
f 5//5 3//3 1//1
f 3//3 16//16 9//9
f 21//21 11//11 19//19
f 11//11 21//21 13//13
f 15//15 21//21 23//23
f 21//21 15//15 13//13
f 22//22 15//15 23//23
f 15//15 22//22 14//14
f 22//22 30//30 29//29
f 30//30 22//22 23//23
f 22//22 20//20 12//12
f 22//22 12//12 14//14
f 27//27 22//22 29//29
f 22//22 27//27 20//20
f 20//20 24//24 18//18
f 27//27 24//24 20//20
f 24//24 27//27 31//31
f 24//24 16//16 18//18
f 24//24 17//17 16//16
f 24//24 25//25 19//19
f 17//17 24//24 19//19
f 17//17 10//10 16//16
f 16//16 10//10 9//9
f 26//26 21//21 19//19
f 26//26 28//28 21//21
f 30//30 32//32 29//29
f 29//29 32//32 31//31
f 32//32 30//30 23//23
f 28//28 32//32 23//23
f 32//32 24//24 31//31
f 24//24 32//32 25//25
f 25//25 32//32 19//19
f 32//32 26//26 19//19
f 7//7 5//5 1//1
f 12//12 5//5 14//14
f 5//5 7//7 14//14
f 8//8 15//15 14//14
f 7//7 8//8 14//14
f 8//8 6//6 15//15
f 8//8 2//2 6//6
f 8//8 7//7 1//1
f 2//2 8//8 1//1
f 2//2 4//4 6//6
f 6//6 4//4 11//11
f 3//3 4//4 2//2
f 3//3 2//2 1//1
f 3//3 20//20 18//18
f 20//20 3//3 12//12
f 16//16 3//3 18//18
f 3//3 5//5 12//12
f 4//4 3//3 10//10
f 10//10 3//3 9//9
