# OBJ file
v 0.298828 -0.080078 -0.004617
v 0.291016 -0.080078 0.000000
v 0.298828 -0.087891 0.000000
v 0.298828 -0.072266 0.000000
v 0.306641 -0.080078 0.000000
v 0.287109 -0.083984 0.009234
v 0.287109 -0.072266 0.009234
v 0.294922 -0.091797 0.009234
v 0.294922 -0.064453 0.009234
v 0.310547 -0.080078 0.009234
v 0.298828 -0.095703 0.013851
v 0.302734 -0.068359 0.013851
v 0.310547 -0.083984 0.013851
v 0.310547 -0.076172 0.013851
v 0.283203 -0.076172 0.023085
v 0.291016 -0.068359 0.023085
v 0.302734 -0.095703 0.023085
v 0.310547 -0.087891 0.023085
v 0.298828 -0.095703 0.027701
v 0.298828 -0.064453 0.027701
v 0.302734 -0.064453 0.027701
v 0.310547 -0.083984 0.027701
v 0.310547 -0.072266 0.027701
v 0.283203 -0.080078 0.032318
v 0.294922 -0.091797 0.032318
v 0.294922 -0.068359 0.032318
v 0.302734 -0.068359 0.032318
v 0.310547 -0.076172 0.032318
v 0.298828 -0.087891 0.036935
v 0.298828 -0.072266 0.036935
v 0.306641 -0.080078 0.036935
v 0.298828 -0.080078 0.041552
vn 0.000000 0.000000 -1.000000
vn -0.651746 -0.051334 -0.756698
vn 0.050495 -0.686283 -0.725580
vn 0.115958 0.638760 -0.760618
vn 0.731313 0.000000 -0.682042
vn -0.841591 -0.427273 -0.330397
vn -0.807213 0.436612 -0.397212
vn -0.560927 -0.751471 -0.347351
vn -0.151386 0.904749 -0.398134
vn 0.943707 -0.000000 -0.330784
vn -0.032141 -0.955624 -0.292832
vn 0.615154 0.718113 -0.325421
vn 0.902066 -0.364246 -0.231522
vn 0.898704 0.382945 -0.213738
vn -0.955507 0.294609 0.014569
vn -0.630406 0.757987 0.167462
vn 0.489508 -0.864439 0.114577
vn 0.864439 -0.489508 0.114577
vn -0.078027 -0.921259 0.381043
vn -0.188758 0.915720 0.354723
vn 0.385259 0.883946 0.264981
vn 0.887067 -0.307863 0.343996
vn 0.867227 0.473400 0.154302
vn -0.867615 -0.074834 0.491573
vn -0.466262 -0.725758 0.505841
vn -0.388576 0.692615 0.607696
vn 0.313006 0.615146 0.723617
vn 0.837035 0.179031 0.517030
vn 0.106366 -0.563581 0.819184
vn 0.000000 0.507597 0.861594
vn 0.593932 -0.104919 0.797645
vn 0.000000 0.000000 1.000000
f 6//6 24//24 15//15
f 5//5 3//3 1//1
f 4//4 5//5 1//1
f 8//8 3//3 11//11
f 3//3 2//2 1//1
f 2//2 4//4 1//1
f 7//7 2//2 6//6
f 7//7 6//6 15//15
f 13//13 5//5 10//10
f 20//20 16//16 26//26
f 9//9 20//20 21//21
f 20//20 9//9 16//16
f 31//31 22//22 28//28
f 29//29 31//31 32//32
f 5//5 14//14 10//10
f 9//9 12//12 4//4
f 12//12 9//9 21//21
f 19//19 29//29 25//25
f 17//17 19//19 11//11
f 2//2 8//8 6//6
f 8//8 2//2 3//3
f 24//24 30//30 26//26
f 30//30 24//24 32//32
f 16//16 24//24 26//26
f 24//24 16//16 15//15
f 7//7 9//9 4//4
f 2//2 7//7 4//4
f 16//16 7//7 15//15
f 9//9 7//7 16//16
f 27//27 23//23 21//21
f 23//23 27//27 28//28
f 29//29 24//24 25//25
f 24//24 29//29 32//32
f 5//5 13//13 3//3
f 3//3 13//13 11//11
f 30//30 20//20 26//26
f 27//27 20//20 30//30
f 20//20 27//27 21//21
f 31//31 30//30 32//32
f 31//31 27//27 30//30
f 27//27 31//31 28//28
f 12//12 5//5 4//4
f 12//12 14//14 5//5
f 23//23 12//12 21//21
f 14//14 12//12 23//23
f 19//19 24//24 6//6
f 8//8 19//19 6//6
f 24//24 19//19 25//25
f 19//19 8//8 11//11
f 18//18 14//14 23//23
f 18//18 23//23 28//28
f 22//22 18//18 28//28
f 18//18 13//13 10//10
f 14//14 18//18 10//10
f 18//18 31//31 29//29
f 31//31 18//18 22//22
f 18//18 19//19 17//17
f 19//19 18//18 29//29
f 13//13 18//18 11//11
f 18//18 17//17 11//11
