# OBJ file
v -0.611328 -0.056641 -0.027701
v -0.619141 -0.064453 -0.023085
v -0.619141 -0.056641 -0.023085
v -0.611328 -0.048828 -0.023085
v -0.548828 -0.048828 -0.023085
v -0.548828 -0.041016 -0.023085
v -0.544922 -0.044922 -0.023085
v -0.626953 -0.064453 -0.018468
v -0.619141 -0.072266 -0.018468
v -0.548828 -0.072266 -0.018468
v -0.548828 -0.033203 -0.018468
v -0.541016 -0.068359 -0.018468
v -0.537109 -0.048828 -0.018468
v -0.537109 -0.044922 -0.018468
v -0.548828 -0.080078 -0.013851
v -0.541016 -0.076172 -0.013851
v -0.533203 -0.068359 -0.013851
v -0.529297 -0.048828 -0.013851
v -0.576172 -0.025391 -0.009234
v -0.533203 -0.037109 -0.009234
v -0.525391 -0.044922 -0.009234
v -0.556641 -0.083984 -0.004617
v -0.548828 -0.083984 -0.004617
v -0.541016 -0.025391 -0.004617
v -0.533203 -0.080078 -0.004617
v -0.525391 -0.072266 -0.004617
v -0.521484 -0.044922 -0.004617
v -0.630859 -0.056641 0.000000
v -0.619141 -0.044922 0.000000
v -0.576172 -0.021484 0.000000
v -0.634766 -0.060547 0.004617
v -0.611328 -0.037109 0.004617
v -0.537109 -0.025391 0.004617
v -0.529297 -0.033203 0.004617
v -0.630859 -0.052734 0.009234
v -0.619141 -0.041016 0.009234
v -0.521484 -0.044922 0.009234
v -0.611328 -0.037109 0.013851
v -0.544922 -0.083984 0.013851
v -0.533203 -0.072266 0.013851
v -0.638672 -0.076172 0.018468
v -0.638672 -0.068359 0.018468
v -0.634766 -0.056641 0.018468
v -0.630859 -0.083984 0.018468
v -0.623047 -0.044922 0.018468
v -0.541016 -0.021484 0.018468
v -0.638672 -0.068359 0.023085
v -0.638672 -0.064453 0.023085
v -0.607422 -0.037109 0.023085
v -0.568359 -0.083984 0.023085
v -0.537109 -0.021484 0.023085
v -0.529297 -0.029297 0.023085
v -0.634766 -0.076172 0.027701
v -0.634766 -0.060547 0.027701
v -0.623047 -0.087891 0.027701
v -0.615234 -0.041016 0.027701
v -0.548828 -0.076172 0.027701
v -0.537109 -0.025391 0.027701
v -0.529297 -0.052734 0.027701
v -0.529297 -0.033203 0.027701
v -0.634766 -0.068359 0.032318
v -0.615234 -0.083984 0.032318
v -0.548828 -0.072266 0.032318
v -0.626953 -0.072266 0.036935
v -0.619141 -0.080078 0.036935
v -0.619141 -0.048828 0.036935
v -0.611328 -0.041016 0.036935
v -0.548828 -0.064453 0.036935
v -0.541016 -0.060547 0.036935
v -0.541016 -0.037109 0.036935
v -0.533203 -0.052734 0.036935
v -0.533203 -0.044922 0.036935
v -0.623047 -0.064453 0.041552
v -0.623047 -0.060547 0.041552
v -0.619141 -0.072266 0.041552
v -0.619141 -0.052734 0.041552
v -0.611328 -0.072266 0.041552
v -0.611328 -0.044922 0.041552
v -0.541016 -0.052734 0.041552
v -0.541016 -0.044922 0.041552
v -0.615234 -0.064453 0.046169
v -0.615234 -0.060547 0.046169
v -0.611328 -0.064453 0.046169
v -0.611328 -0.052734 0.046169
v -0.607422 -0.056641 0.046169
vn -0.172700 0.034203 -0.984380
vn -0.277306 -0.277306 -0.919893
vn -0.594927 0.369167 -0.713987
vn -0.376623 0.627271 -0.681679
vn 0.095976 -0.119927 -0.988133
vn 0.155750 0.309484 -0.938063
vn 0.292589 0.121488 -0.948490
vn -0.752702 -0.073893 -0.654201
vn -0.277403 -0.686219 -0.672421
vn 0.102448 -0.338698 -0.935301
vn 0.190155 0.599327 -0.777592
vn 0.292035 -0.252383 -0.922506
vn 0.437125 -0.048639 -0.898085
vn 0.474813 0.254878 -0.842372
vn 0.113847 -0.704384 -0.700630
vn 0.344798 -0.525533 -0.777772
vn 0.526781 -0.268738 -0.806400
vn 0.590064 0.032996 -0.806682
vn -0.157428 0.777539 -0.608809
vn 0.527813 0.538975 -0.656445
vn 0.638050 0.308922 -0.705308
vn -0.032736 -0.943849 -0.328751
vn 0.118373 -0.961626 -0.247513
vn 0.357433 0.817833 -0.450990
vn 0.561675 -0.792426 -0.237872
vn 0.853527 -0.468998 -0.227009
vn 0.898053 0.235622 -0.371461
vn -0.752213 0.547403 -0.366777
vn -0.617021 0.696657 -0.365998
vn -0.191553 0.975802 -0.105442
vn -0.914447 0.269107 -0.302272
vn -0.467780 0.856453 -0.218335
vn 0.586688 0.772129 -0.244159
vn 0.714990 0.658760 -0.234148
vn -0.749151 0.639074 -0.174231
vn -0.594730 0.795227 -0.117941
vn 0.981001 0.084484 0.174640
vn -0.419104 0.902871 0.095791
vn 0.359919 -0.878605 0.313864
vn 0.702139 -0.552218 0.449507
vn -0.904153 -0.424626 -0.046913
vn -0.984870 0.054933 -0.164358
vn -0.811406 0.579259 0.077971
vn -0.520616 -0.842746 -0.136890
vn -0.658237 0.734378 0.165568
vn 0.088532 0.990114 -0.108798
vn -0.963028 -0.071661 0.259697
vn -0.949450 0.248864 0.191343
vn -0.351423 0.917694 0.185309
vn 0.116936 -0.851868 0.510536
vn 0.335323 0.896863 0.288436
vn 0.786903 0.577122 0.218435
vn -0.708069 -0.457590 0.537820
vn -0.744156 0.472351 0.472351
vn -0.278119 -0.914574 0.293605
vn -0.536110 0.808957 0.241194
vn 0.359395 -0.683184 0.635684
vn 0.264931 0.613716 0.743750
vn 0.883588 -0.210523 0.418273
vn 0.744056 0.317206 0.588015
vn -0.735525 -0.041644 0.676217
vn 0.080435 -0.723376 0.685753
vn 0.321403 -0.580603 0.748065
vn -0.487624 -0.332713 0.807171
vn -0.177241 -0.558466 0.810371
vn -0.641510 0.610838 0.464050
vn -0.377696 0.786152 0.489194
vn 0.156275 -0.421204 0.893401
vn 0.417549 -0.509378 0.752454
vn 0.185169 0.476056 0.859700
vn 0.686427 -0.240075 0.686427
vn 0.660925 0.147540 0.735806
vn -0.485219 -0.094508 0.869270
vn -0.561740 0.174716 0.808655
vn -0.247014 -0.370328 0.895456
vn -0.554909 0.404951 0.726699
vn 0.066550 -0.476125 0.876856
vn -0.285783 0.570301 0.770120
vn 0.269646 -0.194738 0.943063
vn 0.231760 0.227161 0.945878
vn -0.194317 -0.189486 0.962464
vn -0.259697 0.071661 0.963028
vn 0.040456 -0.242327 0.969351
vn -0.174178 0.256761 0.950650
vn 0.038572 0.007249 0.999230
f 31//31 8//8 41//41
f 4//4 19//19 11//11
f 19//19 24//24 11//11
f 24//24 19//19 30//30
f 28//28 8//8 31//31
f 52//52 37//37 27//27
f 37//37 52//52 60//60
f 24//24 46//46 51//51
f 51//51 46//46 30//30
f 46//46 24//24 30//30
f 67//67 51//51 30//30
f 22//22 44//44 9//9
f 8//8 2//2 9//9
f 35//35 28//28 31//31
f 28//28 3//3 8//8
f 3//3 4//4 1//1
f 70//70 58//58 78//78
f 24//24 20//20 11//11
f 37//37 26//26 27//27
f 38//38 32//32 36//36
f 32//32 38//38 30//30
f 6//6 7//7 1//1
f 7//7 5//5 1//1
f 33//33 24//24 51//51
f 34//34 52//52 27//27
f 18//18 21//21 27//27
f 26//26 18//18 27//27
f 59//59 26//26 37//37
f 84//84 85//85 80//80
f 63//63 65//65 62//62
f 77//77 65//65 63//63
f 56//56 38//38 36//36
f 49//49 67//67 30//30
f 38//38 49//49 30//30
f 50//50 63//63 62//62
f 42//42 31//31 41//41
f 42//42 48//48 31//31
f 43//43 35//35 31//31
f 48//48 43//43 31//31
f 54//54 43//43 48//48
f 22//22 15//15 23//23
f 15//15 22//22 9//9
f 7//7 12//12 5//5
f 18//18 14//14 21//21
f 45//45 56//56 36//36
f 57//57 50//50 39//39
f 50//50 57//57 63//63
f 61//61 54//54 48//48
f 15//15 25//25 23//23
f 25//25 39//39 23//23
f 13//13 12//12 7//7
f 17//17 18//18 26//26
f 79//79 83//83 68//68
f 79//79 69//69 71//71
f 83//83 79//79 85//85
f 85//85 79//79 80//80
f 39//39 55//55 23//23
f 22//22 55//55 44//44
f 55//55 22//22 23//23
f 50//50 55//55 39//39
f 55//55 50//50 62//62
f 76//76 84//84 78//78
f 76//76 66//66 54//54
f 64//64 61//61 53//53
f 47//47 61//61 48//48
f 17//17 16//16 12//12
f 16//16 25//25 15//15
f 75//75 64//64 65//65
f 64//64 73//73 61//61
f 73//73 74//74 61//61
f 44//44 8//8 9//9
f 8//8 44//44 41//41
f 19//19 32//32 30//30
f 32//32 19//19 4//4
f 6//6 4//4 11//11
f 4//4 6//6 1//1
f 58//58 52//52 51//51
f 52//52 58//58 60//60
f 67//67 58//58 51//51
f 58//58 67//67 78//78
f 32//32 29//29 36//36
f 29//29 32//32 4//4
f 29//29 35//35 36//36
f 35//35 29//29 28//28
f 3//3 29//29 4//4
f 29//29 3//3 28//28
f 2//2 3//3 1//1
f 3//3 2//2 8//8
f 20//20 24//24 27//27
f 21//21 20//20 27//27
f 70//70 84//84 80//80
f 84//84 70//70 78//78
f 58//58 72//72 60//60
f 70//70 72//72 58//58
f 72//72 70//70 80//80
f 52//52 34//34 51//51
f 34//34 33//33 51//51
f 24//24 34//34 27//27
f 33//33 34//34 24//24
f 72//72 59//59 60//60
f 59//59 37//37 60//60
f 59//59 72//72 71//71
f 59//59 71//71 40//40
f 26//26 59//59 40//40
f 56//56 49//49 38//38
f 49//49 56//56 67//67
f 10//10 15//15 1//1
f 2//2 15//15 9//9
f 15//15 2//2 1//1
f 12//12 10//10 1//1
f 5//5 12//12 1//1
f 14//14 20//20 21//21
f 20//20 14//14 11//11
f 14//14 6//6 11//11
f 14//14 7//7 6//6
f 83//83 77//77 63//63
f 68//68 83//83 63//63
f 35//35 45//45 36//36
f 43//43 45//45 35//35
f 69//69 57//57 71//71
f 71//71 57//57 40//40
f 57//57 39//39 40//40
f 57//57 69//69 63//63
f 56//56 66//66 67//67
f 45//45 66//66 56//56
f 54//54 66//66 43//43
f 66//66 45//45 43//43
f 39//39 25//25 40//40
f 25//25 26//26 40//40
f 14//14 13//13 7//7
f 13//13 14//14 18//18
f 17//17 13//13 18//18
f 13//13 17//17 12//12
f 79//79 68//68 63//63
f 69//69 79//79 63//63
f 79//79 72//72 80//80
f 72//72 79//79 71//71
f 44//44 55//55 41//41
f 55//55 53//53 41//41
f 65//65 55//55 62//62
f 67//67 76//76 78//78
f 66//66 76//76 67//67
f 55//55 64//64 53//53
f 64//64 55//55 65//65
f 42//42 47//47 48//48
f 47//47 42//42 41//41
f 53//53 47//47 41//41
f 61//61 47//47 53//53
f 16//16 15//15 10//10
f 12//12 16//16 10//10
f 25//25 16//16 26//26
f 16//16 17//17 26//26
f 82//82 85//85 84//84
f 82//82 83//83 85//85
f 83//83 82//82 81//81
f 75//75 83//83 81//81
f 83//83 75//75 77//77
f 75//75 65//65 77//77
f 61//61 74//74 54//54
f 74//74 76//76 54//54
f 74//74 82//82 84//84
f 76//76 74//74 84//84
f 73//73 75//75 81//81
f 75//75 73//73 64//64
f 82//82 73//73 81//81
f 74//74 73//73 82//82
