# OBJ file
v 0.330078 0.544922 -0.050786
v 0.318359 0.537109 -0.046169
v 0.318359 0.544922 -0.046169
v 0.330078 0.537109 -0.046169
v 0.330078 0.552734 -0.046169
v 0.447266 0.544922 -0.046169
v 0.451172 0.548828 -0.046169
v 0.451172 0.552734 -0.046169
v 0.310547 0.537109 -0.041552
v 0.310547 0.544922 -0.041552
v 0.318359 0.529297 -0.041552
v 0.318359 0.552734 -0.041552
v 0.447266 0.537109 -0.041552
v 0.306641 0.533203 -0.036935
v 0.314453 0.525391 -0.036935
v 0.423828 0.576172 -0.036935
v 0.451172 0.568359 -0.036935
v 0.306641 0.529297 -0.032318
v 0.314453 0.521484 -0.032318
v 0.326172 0.521484 -0.032318
v 0.423828 0.583984 -0.032318
v 0.451172 0.529297 -0.032318
v 0.466797 0.564453 -0.032318
v 0.478516 0.548828 -0.032318
v 0.423828 0.587891 -0.027701
v 0.458984 0.576172 -0.027701
v 0.466797 0.572266 -0.027701
v 0.474609 0.564453 -0.027701
v 0.478516 0.541016 -0.027701
v 0.486328 0.548828 -0.027701
v 0.306641 0.564453 -0.023085
v 0.318359 0.576172 -0.023085
v 0.322266 0.513672 -0.023085
v 0.427734 0.591797 -0.018468
v 0.466797 0.572266 -0.018468
v 0.474609 0.564453 -0.018468
v 0.306641 0.568359 -0.013851
v 0.314453 0.576172 -0.013851
v 0.322266 0.513672 -0.013851
v 0.330078 0.509766 -0.013851
v 0.400391 0.509766 -0.013851
v 0.478516 0.552734 -0.013851
v 0.306641 0.568359 -0.009234
v 0.318359 0.580078 -0.009234
v 0.396484 0.509766 -0.009234
v 0.400391 0.509766 -0.009234
v 0.435547 0.587891 -0.009234
v 0.455078 0.521484 -0.009234
v 0.470703 0.552734 -0.009234
v 0.435547 0.580078 -0.004617
v 0.451172 0.564453 -0.004617
v 0.470703 0.525391 -0.004617
v 0.478516 0.533203 -0.004617
v 0.306641 0.529297 0.000000
v 0.314453 0.521484 0.000000
v 0.462891 0.525391 0.000000
v 0.314453 0.529297 0.004617
v 0.462891 0.533203 0.004617
v 0.310547 0.572266 0.009234
v 0.318359 0.580078 0.009234
v 0.330078 0.537109 0.013851
v 0.333984 0.537109 0.013851
v 0.310547 0.568359 0.018468
v 0.322266 0.580078 0.018468
v 0.330078 0.544922 0.018468
v 0.333984 0.544922 0.018468
v 0.314453 0.564453 0.023085
v 0.314453 0.568359 0.023085
v 0.322266 0.576172 0.023085
v 0.322266 0.564453 0.027701
v 0.322266 0.568359 0.027701
vn -0.106954 0.025389 -0.993940
vn -0.268358 -0.262932 -0.926742
vn -0.370667 0.213249 -0.903953
vn 0.019077 -0.460943 -0.887225
vn -0.161201 0.501836 -0.849809
vn 0.158554 -0.282214 -0.946159
vn 0.254694 -0.143127 -0.956371
vn 0.216827 0.203261 -0.954815
vn -0.540787 -0.166824 -0.824451
vn -0.657920 0.215295 -0.721657
vn -0.157427 -0.542890 -0.824917
vn -0.370561 0.478491 -0.796072
vn 0.182124 -0.547069 -0.817035
vn -0.836055 -0.221470 -0.501959
vn -0.313006 -0.615146 -0.723617
vn 0.038338 0.407706 -0.912308
vn 0.223507 0.483169 -0.846518
vn -0.872704 -0.432967 -0.225673
vn -0.444888 -0.777271 -0.444888
vn 0.025190 -0.701398 -0.712325
vn 0.057903 0.604126 -0.794782
vn 0.250448 -0.752152 -0.609543
vn 0.379043 0.375716 -0.845674
vn 0.430547 -0.057507 -0.900734
vn 0.044711 0.811935 -0.582033
vn 0.380130 0.805798 -0.454083
vn 0.524560 0.722814 -0.449863
vn 0.672482 0.572458 -0.469104
vn 0.520862 -0.623147 -0.583431
vn 0.940610 0.010817 -0.339317
vn -0.853206 0.352776 -0.384172
vn -0.362105 0.753494 -0.548750
vn -0.352970 -0.861932 -0.363984
vn 0.140030 0.986603 -0.083701
vn 0.563813 0.712546 0.417605
vn 0.682029 0.582313 0.442434
vn -0.899380 0.422486 -0.112343
vn -0.654372 0.733928 -0.182063
vn -0.551814 -0.827106 0.106758
vn -0.131587 -0.981863 0.136491
vn 0.089443 -0.927563 -0.362803
vn 0.669466 0.352993 0.653614
vn -0.929377 0.366235 0.046159
vn -0.401609 0.908087 -0.118692
vn -0.001938 -0.889105 0.457700
vn 0.078180 -0.887734 0.453670
vn 0.338032 0.781309 0.524681
vn 0.252683 -0.955277 -0.153611
vn 0.406679 0.371347 0.834694
vn 0.275098 0.376268 0.884728
vn 0.380291 0.376889 0.844590
vn 0.520059 -0.823309 0.227380
vn 0.815966 -0.311444 0.487033
vn -0.831685 -0.394621 0.390607
vn -0.453050 -0.717149 0.529569
vn 0.219496 -0.679393 0.700176
vn -0.323175 -0.411554 0.852163
vn 0.289741 -0.082384 0.953553
vn -0.810828 0.560739 0.167722
vn -0.461364 0.878902 0.121141
vn -0.088410 -0.499264 0.861928
vn 0.012523 -0.510519 0.859775
vn -0.841808 0.264074 0.470769
vn -0.270798 0.850436 0.451029
vn -0.097231 -0.421986 0.901373
vn 0.028349 -0.398416 0.916767
vn -0.585515 -0.168237 0.793012
vn -0.582882 0.270577 0.766183
vn -0.203495 0.583643 0.786098
vn -0.178751 -0.177028 0.967837
vn -0.139197 0.226023 0.964126
f 1//1 16//16 8//8
f 7//7 1//1 8//8
f 32//32 44//44 34//34
f 64//64 47//47 34//34
f 54//54 63//63 43//43
f 25//25 32//32 34//34
f 29//29 22//22 13//13
f 52//52 22//22 29//29
f 40//40 45//45 55//55
f 66//66 58//58 70//70
f 28//28 23//23 27//27
f 31//31 10//10 14//14
f 57//57 54//54 55//55
f 60//60 64//64 34//34
f 44//44 60//60 34//34
f 69//69 47//47 64//64
f 50//50 58//58 51//51
f 67//67 63//63 54//54
f 17//17 26//26 27//27
f 26//26 25//25 34//34
f 7//7 6//6 1//1
f 52//52 56//56 46//46
f 56//56 62//62 46//46
f 48//48 52//52 46//46
f 52//52 48//48 22//22
f 45//45 61//61 55//55
f 58//58 49//49 51//51
f 36//36 42//42 30//30
f 28//28 36//36 30//30
f 11//11 4//4 13//13
f 22//22 41//41 13//13
f 41//41 48//48 46//46
f 48//48 41//41 22//22
f 39//39 40//40 55//55
f 63//63 59//59 43//43
f 38//38 44//44 32//32
f 67//67 68//68 63//63
f 26//26 21//21 25//25
f 21//21 26//26 17//17
f 25//25 21//21 32//32
f 29//29 24//24 30//30
f 24//24 6//6 7//7
f 24//24 7//7 8//8
f 23//23 24//24 8//8
f 65//65 66//66 70//70
f 42//42 53//53 30//30
f 5//5 12//12 32//32
f 21//21 5//5 32//32
f 20//20 11//11 13//13
f 41//41 20//20 13//13
f 2//2 3//3 1//1
f 12//12 3//3 10//10
f 10//10 9//9 14//14
f 68//68 71//71 69//69
f 58//58 71//71 70//70
f 50//50 71//71 58//58
f 33//33 41//41 40//40
f 33//33 20//20 41//41
f 39//39 33//33 40//40
f 23//23 17//17 27//27
f 17//17 23//23 8//8
f 18//18 37//37 14//14
f 37//37 31//31 14//14
f 37//37 18//18 54//54
f 37//37 54//54 43//43
f 67//67 57//57 70//70
f 57//57 67//67 54//54
f 26//26 35//35 27//27
f 26//26 47//47 35//35
f 47//47 26//26 34//34
f 56//56 66//66 62//62
f 66//66 56//56 58//58
f 61//61 45//45 46//46
f 62//62 61//61 46//46
f 47//47 36//36 35//35
f 36//36 49//49 42//42
f 50//50 36//36 47//47
f 36//36 50//50 51//51
f 49//49 36//36 51//51
f 35//35 36//36 27//27
f 36//36 28//28 27//27
f 12//12 10//10 31//31
f 12//12 31//31 32//32
f 6//6 4//4 1//1
f 4//4 6//6 13//13
f 45//45 41//41 46//46
f 41//41 45//45 40//40
f 4//4 2//2 1//1
f 2//2 4//4 11//11
f 59//59 63//63 64//64
f 60//60 59//59 64//64
f 38//38 37//37 43//43
f 38//38 59//59 60//60
f 38//38 60//60 44//44
f 59//59 38//38 43//43
f 37//37 38//38 31//31
f 31//31 38//38 32//32
f 63//63 68//68 64//64
f 68//68 69//69 64//64
f 21//21 17//17 8//8
f 16//16 21//21 8//8
f 6//6 24//24 13//13
f 24//24 29//29 13//13
f 28//28 24//24 23//23
f 24//24 28//28 30//30
f 61//61 65//65 55//55
f 65//65 57//57 55//55
f 57//57 65//65 70//70
f 66//66 65//65 62//62
f 65//65 61//61 62//62
f 49//49 53//53 42//42
f 53//53 49//49 58//58
f 56//56 53//53 58//58
f 53//53 56//56 52//52
f 53//53 29//29 30//30
f 53//53 52//52 29//29
f 5//5 21//21 16//16
f 1//1 5//5 16//16
f 3//3 5//5 1//1
f 5//5 3//3 12//12
f 9//9 2//2 11//11
f 15//15 9//9 11//11
f 9//9 15//15 14//14
f 3//3 9//9 10//10
f 9//9 3//3 2//2
f 71//71 67//67 70//70
f 71//71 68//68 67//67
f 71//71 50//50 47//47
f 69//69 71//71 47//47
f 19//19 15//15 11//11
f 20//20 19//19 11//11
f 33//33 19//19 20//20
f 54//54 19//19 55//55
f 18//18 19//19 54//54
f 19//19 39//39 55//55
f 19//19 33//33 39//39
f 19//19 18//18 14//14
f 15//15 19//19 14//14
