# OBJ file
v -0.376953 -0.998047 -0.041552
v -0.369141 -0.998047 -0.036935
v -0.412109 -0.998047 -0.032318
v -0.408203 -0.994141 -0.032318
v -0.361328 -0.998047 -0.027701
v -0.361328 -0.943359 -0.027701
v -0.427734 -0.998047 -0.023085
v -0.419922 -0.982422 -0.023085
v -0.357422 -0.919922 -0.023085
v -0.427734 -0.998047 -0.018468
v -0.427734 -0.982422 -0.018468
v -0.357422 -0.912109 -0.018468
v -0.349609 -0.919922 -0.018468
v -0.345703 -0.966797 -0.018468
v -0.345703 -0.943359 -0.018468
v -0.345703 -0.974609 -0.013851
v -0.431641 -0.978516 -0.009234
v -0.337891 -0.958984 -0.009234
v -0.373047 -0.916016 -0.004617
v -0.365234 -0.908203 -0.004617
v -0.361328 -0.908203 -0.004617
v -0.353516 -0.998047 -0.004617
v -0.345703 -0.986328 -0.004617
v -0.361328 -0.912109 0.000000
v -0.349609 -0.919922 0.000000
v -0.341797 -0.927734 0.000000
v -0.357422 -0.998047 0.009234
v -0.349609 -0.990234 0.009234
v -0.341797 -0.978516 0.009234
v -0.333984 -0.947266 0.009234
v -0.419922 -0.998047 0.013851
v -0.416016 -0.986328 0.013851
v -0.349609 -0.927734 0.013851
v -0.337891 -0.970703 0.013851
v -0.333984 -0.955078 0.013851
v -0.333984 -0.943359 0.013851
v -0.341797 -0.970703 0.018468
v -0.337891 -0.962891 0.018468
v -0.416016 -0.998047 0.023085
v -0.361328 -0.990234 0.023085
v -0.357422 -0.935547 0.023085
v -0.345703 -0.947266 0.023085
v -0.341797 -0.958984 0.023085
v -0.341797 -0.955078 0.023085
v -0.373047 -0.998047 0.027701
v -0.357422 -0.943359 0.027701
v -0.353516 -0.947266 0.027701
v -0.349609 -0.958984 0.027701
v -0.349609 -0.955078 0.027701
v -0.404297 -0.994141 0.032318
v -0.400391 -0.998047 0.032318
v -0.396484 -0.986328 0.032318
v -0.380859 -0.998047 0.032318
v -0.396484 -0.994141 0.036935
vn 0.057794 -0.570870 -0.819004
vn 0.392013 -0.674478 -0.625624
vn -0.271416 -0.582537 -0.766148
vn -0.253475 0.259719 -0.931824
vn 0.509311 -0.757109 -0.409132
vn 0.409804 0.079913 -0.908666
vn -0.640265 -0.573106 -0.511479
vn -0.388306 0.313048 -0.866729
vn 0.060327 0.323644 -0.944254
vn -0.646331 -0.759838 0.070014
vn -0.654024 0.319316 -0.685777
vn 0.156477 0.797872 -0.582164
vn 0.720463 0.444521 -0.532291
vn 0.705068 -0.122863 -0.698416
vn 0.658853 0.088656 -0.747030
vn 0.818877 -0.288998 -0.495904
vn -0.932084 0.358577 0.051395
vn 0.897072 -0.080535 -0.434483
vn -0.707761 0.699307 0.100216
vn -0.426209 0.894718 0.133514
vn 0.273029 0.937473 0.215870
vn 0.523797 -0.850107 -0.054365
vn 0.873375 -0.445117 -0.197704
vn 0.037280 0.668839 0.742472
vn 0.656418 0.712114 0.249016
vn 0.853612 0.520231 0.026567
vn 0.389632 -0.878330 0.276989
vn 0.727329 -0.580471 0.366123
vn 0.852959 -0.505470 0.130235
vn 0.976099 0.089396 -0.198091
vn -0.618689 -0.735049 0.277356
vn -0.584476 0.468392 0.662568
vn 0.413264 0.616956 0.669760
vn 0.879910 -0.381827 0.282783
vn 0.953257 -0.098479 0.285663
vn 0.866605 0.317636 0.384842
vn 0.569793 -0.370464 0.733548
vn 0.729823 -0.194803 0.655294
vn -0.598819 -0.522617 0.606868
vn 0.549014 -0.454035 0.701738
vn -0.041143 0.514385 0.856572
vn 0.436179 0.311024 0.844400
vn 0.558706 -0.108488 0.822240
vn 0.560494 0.085344 0.823749
vn 0.309811 -0.790458 0.528388
vn 0.024248 0.361817 0.931934
vn 0.281430 0.228103 0.932076
vn 0.338519 -0.096600 0.935988
vn 0.313905 0.087762 0.945390
vn -0.520260 0.065248 0.851512
vn -0.192406 -0.835691 0.514393
vn -0.432412 0.448520 0.782209
vn 0.186874 -0.729304 0.658175
vn -0.181278 -0.162676 0.969884
f 4//4 9//9 1//1
f 22//22 5//5 23//23
f 22//22 28//28 27//27
f 31//31 39//39 17//17
f 21//21 12//12 20//20
f 26//26 36//36 30//30
f 34//34 28//28 29//29
f 34//34 29//29 23//23
f 9//9 6//6 1//1
f 13//13 26//26 30//30
f 12//12 13//13 9//9
f 39//39 32//32 17//17
f 50//50 32//32 39//39
f 32//32 19//19 17//17
f 32//32 50//50 19//19
f 3//3 4//4 1//1
f 11//11 7//7 17//17
f 7//7 10//10 17//17
f 10//10 31//31 17//17
f 25//25 21//21 33//33
f 41//41 24//24 20//20
f 24//24 21//21 20//20
f 24//24 41//41 33//33
f 21//21 24//24 33//33
f 47//47 46//46 54//54
f 13//13 18//18 15//15
f 18//18 13//13 30//30
f 18//18 34//34 23//23
f 14//14 2//2 15//15
f 2//2 14//14 5//5
f 53//53 48//48 54//54
f 48//48 49//49 54//54
f 49//49 47//47 54//54
f 34//34 38//38 37//37
f 38//38 43//43 37//37
f 5//5 16//16 23//23
f 16//16 18//18 23//23
f 45//45 40//40 37//37
f 43//43 45//45 37//37
f 35//35 38//38 34//34
f 36//36 35//35 30//30
f 35//35 18//18 30//30
f 18//18 35//35 34//34
f 42//42 44//44 36//36
f 28//28 22//22 29//29
f 29//29 22//22 23//23
f 52//52 50//50 54//54
f 19//19 41//41 20//20
f 41//41 50//50 52//52
f 50//50 41//41 19//19
f 41//41 52//52 54//54
f 46//46 41//41 54//54
f 6//6 2//2 1//1
f 2//2 6//6 15//15
f 6//6 13//13 15//15
f 13//13 6//6 9//9
f 50//50 51//51 54//54
f 51//51 50//50 39//39
f 3//3 8//8 9//9
f 4//4 3//3 9//9
f 11//11 19//19 20//20
f 19//19 11//11 17//17
f 12//12 11//11 20//20
f 11//11 12//12 9//9
f 8//8 11//11 9//9
f 11//11 3//3 7//7
f 3//3 11//11 8//8
f 21//21 25//25 12//12
f 25//25 13//13 12//12
f 13//13 25//25 26//26
f 36//36 25//25 33//33
f 25//25 36//36 26//26
f 18//18 14//14 15//15
f 40//40 34//34 37//37
f 34//34 40//40 28//28
f 51//51 53//53 54//54
f 16//16 14//14 18//18
f 14//14 16//16 5//5
f 53//53 45//45 48//48
f 45//45 43//43 48//48
f 40//40 45//45 28//28
f 28//28 45//45 27//27
f 22//22 45//45 5//5
f 45//45 2//2 5//5
f 45//45 10//10 7//7
f 31//31 45//45 39//39
f 45//45 22//22 27//27
f 3//3 45//45 7//7
f 45//45 53//53 51//51
f 2//2 45//45 1//1
f 45//45 51//51 39//39
f 45//45 3//3 1//1
f 10//10 45//45 31//31
f 42//42 41//41 46//46
f 41//41 42//42 33//33
f 42//42 36//36 33//33
f 47//47 42//42 46//46
f 35//35 44//44 38//38
f 38//38 44//44 43//43
f 44//44 35//35 36//36
f 43//43 44//44 48//48
f 44//44 49//49 48//48
f 44//44 42//42 47//47
f 49//49 44//44 47//47
