# OBJ file
v -0.220703 0.201172 -0.036935
v -0.216797 0.205078 -0.036935
v -0.216797 0.208984 -0.036935
v -0.236328 0.208984 -0.032318
v -0.220703 0.193359 -0.032318
v -0.216797 0.216797 -0.032318
v -0.208984 0.205078 -0.032318
v -0.208984 0.208984 -0.032318
v -0.244141 0.208984 -0.027701
v -0.228516 0.224609 -0.027701
v -0.216797 0.189453 -0.027701
v -0.205078 0.201172 -0.027701
v -0.205078 0.208984 -0.027701
v -0.248047 0.205078 -0.023085
v -0.248047 0.208984 -0.023085
v -0.240234 0.197266 -0.023085
v -0.236328 0.224609 -0.023085
v -0.228516 0.232422 -0.023085
v -0.220703 0.189453 -0.023085
v -0.248047 0.205078 -0.018468
v -0.240234 0.197266 -0.018468
v -0.205078 0.205078 -0.018468
v -0.201172 0.212891 -0.018468
v -0.201172 0.216797 -0.018468
v -0.244141 0.212891 -0.013851
v -0.228516 0.236328 -0.013851
v -0.220703 0.244141 -0.013851
v -0.216797 0.193359 -0.013851
v -0.208984 0.201172 -0.013851
v -0.208984 0.232422 -0.013851
v -0.240234 0.216797 -0.009234
v -0.220703 0.197266 -0.009234
v -0.216797 0.197266 -0.009234
v -0.208984 0.205078 -0.009234
v -0.205078 0.212891 -0.009234
v -0.236328 0.216797 -0.004617
v -0.228516 0.224609 -0.004617
v -0.224609 0.205078 -0.004617
v -0.208984 0.212891 -0.004617
v -0.220703 0.208984 0.000000
v -0.220703 0.224609 0.000000
v -0.212891 0.216797 0.000000
v -0.220703 0.216797 0.004617
vn -0.027255 -0.281109 -0.959289
vn 0.274881 -0.155926 -0.948750
vn 0.155119 0.217000 -0.963768
vn -0.380726 0.019387 -0.924485
vn -0.063097 -0.611948 -0.788377
vn 0.254710 0.474092 -0.842828
vn 0.540787 -0.166824 -0.824451
vn 0.565477 0.217046 -0.795693
vn -0.553314 0.059317 -0.830858
vn -0.208012 0.418042 -0.884292
vn 0.310125 -0.889538 -0.335477
vn 0.813782 -0.457396 -0.358536
vn 0.780771 0.129393 -0.611273
vn -0.835706 -0.366194 -0.409264
vn -0.916192 0.293673 -0.272668
vn -0.535250 -0.738234 -0.410511
vn -0.658945 0.559305 -0.502960
vn -0.345090 0.618547 -0.705912
vn -0.127169 -0.984757 0.118664
vn -0.858750 -0.298358 0.416570
vn -0.507929 -0.750594 0.422632
vn 0.834481 -0.456487 0.308644
vn 0.987057 -0.152207 0.050519
vn 0.945628 0.304718 -0.113729
vn -0.837928 0.298129 0.457161
vn -0.705775 0.668441 0.234664
vn 0.052313 0.997577 0.045862
vn 0.282924 -0.814049 0.507226
vn 0.712032 -0.573561 0.405017
vn 0.777726 0.627283 0.040722
vn -0.766618 0.325428 0.553528
vn -0.158815 -0.661314 0.733104
vn 0.288684 -0.601205 0.745127
vn 0.633560 -0.444076 0.633560
vn 0.812867 -0.089126 0.575590
vn -0.554851 0.071598 0.828863
vn -0.437959 0.455752 0.774908
vn -0.342723 -0.480960 0.806981
vn 0.599317 -0.234860 0.765284
vn -0.002352 -0.464374 0.885636
vn 0.022634 0.485738 0.873811
vn 0.553490 0.042563 0.831768
vn 0.000000 0.000000 1.000000
f 6//6 18//18 27//27
f 36//36 26//26 31//31
f 26//26 17//17 15//15
f 20//20 15//15 14//14
f 32//32 28//28 33//33
f 28//28 21//21 19//19
f 28//28 32//32 21//21
f 32//32 38//38 21//21
f 40//40 32//32 33//33
f 40//40 38//38 32//32
f 4//4 10//10 3//3
f 1//1 4//4 3//3
f 21//21 16//16 19//19
f 15//15 9//9 14//14
f 17//17 9//9 15//15
f 37//37 41//41 27//27
f 26//26 25//25 31//31
f 25//25 26//26 15//15
f 20//20 25//25 15//15
f 24//24 8//8 30//30
f 8//8 24//24 13//13
f 6//6 8//8 3//3
f 11//11 16//16 5//5
f 16//16 11//11 19//19
f 11//11 28//28 19//19
f 22//22 12//12 23//23
f 12//12 22//22 29//29
f 35//35 42//42 39//39
f 24//24 35//35 23//23
f 42//42 35//35 30//30
f 34//34 35//35 39//39
f 2//2 1//1 3//3
f 37//37 26//26 36//36
f 26//26 37//37 27//27
f 18//18 26//26 27//27
f 17//17 26//26 18//18
f 24//24 12//12 13//13
f 12//12 24//24 23//23
f 28//28 34//34 33//33
f 34//34 28//28 29//29
f 42//42 40//40 39//39
f 40//40 34//34 39//39
f 40//40 42//42 43//43
f 34//34 40//40 33//33
f 40//40 20//20 21//21
f 20//20 40//40 36//36
f 36//36 40//40 43//43
f 38//38 40//40 21//21
f 6//6 10//10 18//18
f 10//10 6//6 3//3
f 20//20 16//16 21//21
f 16//16 20//20 14//14
f 1//1 9//9 4//4
f 16//16 9//9 5//5
f 9//9 16//16 14//14
f 9//9 1//1 5//5
f 9//9 17//17 18//18
f 10//10 9//9 18//18
f 9//9 10//10 4//4
f 41//41 37//37 36//36
f 41//41 36//36 43//43
f 41//41 30//30 27//27
f 41//41 42//42 30//30
f 42//42 41//41 43//43
f 25//25 20//20 36//36
f 25//25 36//36 31//31
f 30//30 8//8 27//27
f 8//8 6//6 27//27
f 28//28 11//11 29//29
f 11//11 12//12 29//29
f 35//35 24//24 30//30
f 35//35 34//34 29//29
f 22//22 35//35 29//29
f 35//35 22//22 23//23
f 1//1 7//7 5//5
f 11//11 7//7 12//12
f 7//7 11//11 5//5
f 2//2 7//7 1//1
f 12//12 7//7 13//13
f 7//7 8//8 13//13
f 8//8 7//7 3//3
f 7//7 2//2 3//3
