# OBJ file
v -0.095703 0.712891 -0.032318
v -0.119141 0.701172 -0.027701
v -0.119141 0.732422 -0.027701
v -0.115234 0.701172 -0.027701
v -0.095703 0.705078 -0.027701
v -0.095703 0.720703 -0.027701
v -0.087891 0.712891 -0.027701
v -0.126953 0.701172 -0.023085
v -0.126953 0.732422 -0.023085
v -0.119141 0.693359 -0.023085
v -0.119141 0.740234 -0.023085
v -0.115234 0.693359 -0.023085
v -0.103516 0.697266 -0.023085
v -0.095703 0.705078 -0.023085
v -0.130859 0.697266 -0.018468
v -0.130859 0.728516 -0.018468
v -0.123047 0.689453 -0.018468
v -0.119141 0.689453 -0.018468
v -0.111328 0.736328 -0.018468
v -0.091797 0.712891 -0.018468
v -0.091797 0.716797 -0.018468
v -0.126953 0.732422 -0.013851
v -0.123047 0.697266 -0.013851
v -0.119141 0.740234 -0.013851
v -0.111328 0.736328 -0.013851
v -0.107422 0.697266 -0.013851
v -0.103516 0.728516 -0.013851
v -0.095703 0.708984 -0.013851
v -0.123047 0.708984 -0.009234
v -0.119141 0.732422 -0.009234
v -0.111328 0.697266 -0.009234
v -0.111328 0.732422 -0.009234
v -0.103516 0.705078 -0.009234
v -0.103516 0.724609 -0.009234
v -0.115234 0.708984 -0.004617
v -0.111328 0.705078 -0.004617
v -0.111328 0.724609 -0.004617
vn 0.230676 -0.016174 -0.972896
vn -0.247065 -0.242015 -0.938290
vn -0.162360 0.272618 -0.948324
vn 0.030309 -0.394130 -0.918555
vn 0.500171 -0.668736 -0.550110
vn 0.553279 0.652823 -0.517402
vn 0.944753 -0.023494 -0.326939
vn -0.540787 -0.166824 -0.824451
vn -0.706489 0.430384 -0.561821
vn -0.166824 -0.540787 -0.824451
vn -0.114486 0.882169 -0.456806
vn 0.130641 -0.651946 -0.746927
vn 0.513800 -0.816307 -0.263917
vn 0.714518 -0.676610 0.177943
vn -0.900115 -0.435440 0.013583
vn -0.976711 0.214560 -0.000000
vn -0.435440 -0.900115 0.013583
vn 0.125062 -0.992140 0.004133
vn 0.582516 0.800321 -0.141989
vn 0.824451 -0.166824 0.540787
vn 0.813549 0.385212 0.435603
vn -0.709444 0.444344 0.547036
vn -0.369405 -0.369405 0.852690
vn -0.156022 0.890573 0.427244
vn 0.539107 0.774885 0.330026
vn 0.548002 -0.727486 0.412866
vn 0.689965 0.654322 0.309535
vn 0.680044 -0.318505 0.660375
vn -0.543064 -0.085316 0.835346
vn -0.266357 0.306604 0.913809
vn 0.178309 -0.627721 0.757742
vn 0.311070 0.538579 0.783051
vn 0.523411 -0.317292 0.790802
vn 0.567135 0.313684 0.761552
vn -0.273196 -0.099754 0.956772
vn 0.096462 -0.258426 0.961203
vn 0.090181 0.196937 0.976260
f 17//17 23//23 15//15
f 31//31 17//17 18//18
f 1//1 6//6 7//7
f 3//3 9//9 11//11
f 3//3 1//1 2//2
f 36//36 31//31 33//33
f 23//23 36//36 35//35
f 13//13 26//26 18//18
f 26//26 31//31 18//18
f 20//20 28//28 7//7
f 19//19 6//6 11//11
f 12//12 13//13 18//18
f 28//28 14//14 7//7
f 21//21 27//27 34//34
f 28//28 21//21 34//34
f 21//21 28//28 20//20
f 21//21 20//20 7//7
f 12//12 5//5 13//13
f 1//1 4//4 2//2
f 30//30 24//24 22//22
f 37//37 30//30 35//35
f 36//36 37//37 35//35
f 32//32 37//37 34//34
f 24//24 32//32 25//25
f 29//29 23//23 35//35
f 23//23 29//29 15//15
f 29//29 16//16 15//15
f 16//16 29//29 22//22
f 16//16 8//8 15//15
f 8//8 16//16 9//9
f 3//3 6//6 1//1
f 6//6 3//3 11//11
f 8//8 3//3 2//2
f 3//3 8//8 9//9
f 10//10 8//8 2//2
f 10//10 17//17 15//15
f 8//8 10//10 15//15
f 31//31 36//36 17//17
f 17//17 36//36 23//23
f 31//31 28//28 33//33
f 26//26 28//28 31//31
f 10//10 12//12 17//17
f 17//17 12//12 18//18
f 30//30 29//29 35//35
f 29//29 30//30 22//22
f 14//14 28//28 26//26
f 14//14 26//26 13//13
f 21//21 25//25 27//27
f 19//19 21//21 6//6
f 6//6 21//21 7//7
f 21//21 19//19 25//25
f 5//5 14//14 13//13
f 14//14 5//5 7//7
f 5//5 1//1 7//7
f 4//4 10//10 2//2
f 4//4 12//12 10//10
f 5//5 4//4 1//1
f 4//4 5//5 12//12
f 16//16 24//24 9//9
f 24//24 16//16 22//22
f 9//9 24//24 11//11
f 19//19 24//24 25//25
f 24//24 19//19 11//11
f 37//37 36//36 33//33
f 28//28 37//37 33//33
f 37//37 28//28 34//34
f 25//25 32//32 27//27
f 27//27 32//32 34//34
f 37//37 32//32 30//30
f 32//32 24//24 30//30
