# OBJ file
v -0.685547 0.982422 -0.036935
v -0.685547 0.986328 -0.036935
v -0.681641 0.978516 -0.036935
v -0.681641 0.982422 -0.036935
v -0.693359 0.982422 -0.032318
v -0.693359 0.986328 -0.032318
v -0.685547 0.994141 -0.032318
v -0.681641 0.970703 -0.032318
v -0.673828 0.978516 -0.032318
v -0.669922 0.994141 -0.032318
v -0.685547 0.998047 -0.027701
v -0.666016 0.998047 -0.027701
v -0.662109 0.994141 -0.027701
v -0.697266 0.986328 -0.023085
v -0.693359 0.994141 -0.023085
v -0.689453 0.998047 -0.023085
v -0.677734 0.970703 -0.023085
v -0.697266 0.986328 -0.018468
v -0.693359 0.978516 -0.018468
v -0.685547 0.970703 -0.018468
v -0.681641 0.970703 -0.018468
v -0.697266 0.982422 -0.013851
v -0.693359 0.990234 -0.013851
v -0.689453 0.974609 -0.013851
v -0.685547 0.998047 -0.013851
v -0.658203 0.986328 -0.013851
v -0.650391 0.994141 -0.013851
v -0.650391 0.998047 -0.013851
v -0.689453 0.982422 -0.009234
v -0.677734 0.974609 -0.009234
v -0.681641 0.986328 -0.004617
v -0.681641 0.994141 -0.004617
v -0.677734 0.982422 -0.004617
v -0.677734 0.998047 -0.004617
v -0.658203 0.986328 -0.004617
v -0.654297 0.998047 -0.004617
v -0.650391 0.994141 -0.004617
v -0.673828 0.994141 0.000000
v -0.669922 0.998047 0.000000
v -0.658203 0.994141 0.000000
vn -0.274881 -0.155926 -0.948750
vn -0.184974 0.216435 -0.958614
vn 0.046804 -0.291157 -0.955530
vn 0.160430 0.041227 -0.986186
vn -0.722992 -0.333883 -0.604817
vn -0.686427 0.240075 -0.686427
vn -0.270577 0.582882 -0.766183
vn -0.023745 -0.832564 -0.553419
vn 0.592265 -0.436192 -0.677464
vn 0.248958 0.337952 -0.907639
vn -0.225673 0.872704 -0.432967
vn 0.220275 0.833438 -0.506813
vn 0.599425 0.092986 -0.795011
vn -0.972346 0.059942 -0.225721
vn -0.766080 0.628264 -0.135668
vn -0.489508 0.864439 -0.114577
vn 0.410088 -0.910921 -0.045292
vn -0.942257 0.295090 0.158347
vn -0.731319 -0.669995 -0.127590
vn -0.373925 -0.915393 0.149115
vn 0.093221 -0.966046 0.240965
vn -0.867960 -0.234115 0.437990
vn -0.701545 0.484844 0.522265
vn -0.522701 -0.692825 0.496767
vn -0.370043 0.881070 0.294590
vn 0.674720 -0.722165 -0.152415
vn 0.888149 -0.324955 -0.324955
vn 0.724613 0.640744 -0.253738
vn -0.393459 -0.233986 0.889067
vn 0.090840 -0.741202 0.665107
vn -0.355789 -0.150829 0.922315
vn -0.526312 0.315909 0.789428
vn -0.120713 -0.376787 0.918401
vn -0.292527 0.833285 0.469110
vn 0.483602 -0.693868 0.533551
vn 0.320453 0.829924 0.456658
vn 0.856815 -0.076094 0.509978
vn -0.239350 0.039579 0.970126
vn -0.065409 0.700719 0.710432
vn 0.255034 0.045725 0.965850
f 5//5 22//22 14//14
f 22//22 5//5 19//19
f 9//9 13//13 27//27
f 3//3 9//9 8//8
f 22//22 18//18 14//14
f 20//20 30//30 24//24
f 3//3 4//4 10//10
f 4//4 2//2 10//10
f 2//2 7//7 10//10
f 18//18 15//15 14//14
f 29//29 22//22 24//24
f 6//6 7//7 2//2
f 6//6 5//5 14//14
f 15//15 6//6 14//14
f 12//12 13//13 10//10
f 17//17 35//35 30//30
f 17//17 26//26 35//35
f 40//40 39//39 38//38
f 37//37 40//40 35//35
f 40//40 36//36 39//39
f 36//36 40//40 37//37
f 29//29 33//33 31//31
f 31//31 33//33 38//38
f 33//33 40//40 38//38
f 13//13 28//28 27//27
f 12//12 28//28 13//13
f 28//28 37//37 27//27
f 28//28 36//36 37//37
f 23//23 15//15 18//18
f 32//32 23//23 22//22
f 23//23 18//18 22//22
f 20//20 21//21 30//30
f 21//21 17//17 30//30
f 3//3 13//13 9//9
f 13//13 3//3 10//10
f 5//5 20//20 19//19
f 20//20 5//5 8//8
f 22//22 20//20 24//24
f 20//20 22//22 19//19
f 1//1 4//4 3//3
f 4//4 1//1 2//2
f 5//5 1//1 8//8
f 1//1 3//3 8//8
f 37//37 26//26 27//27
f 26//26 37//37 35//35
f 1//1 6//6 2//2
f 6//6 1//1 5//5
f 11//11 6//6 16//16
f 6//6 15//15 16//16
f 7//7 6//6 11//11
f 12//12 7//7 11//11
f 7//7 12//12 10//10
f 32//32 29//29 31//31
f 32//32 31//31 38//38
f 29//29 32//32 22//22
f 9//9 17//17 8//8
f 17//17 9//9 27//27
f 26//26 17//17 27//27
f 33//33 29//29 24//24
f 30//30 33//33 24//24
f 35//35 33//33 30//30
f 40//40 33//33 35//35
f 34//34 32//32 38//38
f 39//39 34//34 38//38
f 21//21 20//20 8//8
f 17//17 21//21 8//8
f 28//28 25//25 36//36
f 25//25 11//11 16//16
f 25//25 12//12 11//11
f 25//25 28//28 12//12
f 36//36 25//25 39//39
f 25//25 34//34 39//39
f 15//15 25//25 16//16
f 23//23 25//25 15//15
f 34//34 25//25 32//32
f 25//25 23//23 32//32
