# OBJ file
v -0.744141 0.935547 -0.023085
v -0.740234 0.935547 -0.023085
v -0.724609 0.939453 -0.023085
v -0.720703 0.943359 -0.023085
v -0.720703 0.958984 -0.023085
v -0.716797 0.955078 -0.023085
v -0.751953 0.935547 -0.018468
v -0.744141 0.927734 -0.018468
v -0.740234 0.927734 -0.018468
v -0.724609 0.931641 -0.018468
v -0.720703 0.966797 -0.018468
v -0.708984 0.955078 -0.018468
v -0.755859 0.935547 -0.013851
v -0.755859 0.939453 -0.013851
v -0.748047 0.947266 -0.013851
v -0.744141 0.923828 -0.013851
v -0.736328 0.923828 -0.013851
v -0.712891 0.935547 -0.013851
v -0.705078 0.943359 -0.013851
v -0.755859 0.931641 -0.009234
v -0.748047 0.923828 -0.009234
v -0.732422 0.923828 -0.009234
v -0.705078 0.951172 -0.009234
v -0.755859 0.935547 -0.004617
v -0.748047 0.927734 -0.004617
v -0.728516 0.927734 -0.004617
v -0.716797 0.935547 -0.004617
v -0.705078 0.947266 -0.004617
v -0.705078 0.951172 -0.004617
v -0.751953 0.943359 0.000000
v -0.751953 0.947266 0.000000
v -0.748047 0.935547 0.000000
v -0.744141 0.955078 0.000000
v -0.736328 0.927734 0.000000
v -0.732422 0.927734 0.000000
v -0.716797 0.939453 0.000000
v -0.716797 0.962891 0.000000
v -0.708984 0.947266 0.000000
v -0.708984 0.955078 0.000000
v -0.744141 0.943359 0.004617
v -0.744141 0.947266 0.004617
v -0.732422 0.931641 0.004617
v -0.716797 0.947266 0.004617
v -0.716797 0.955078 0.004617
v -0.732422 0.939453 0.009234
vn -0.275616 -0.063461 -0.959171
vn 0.032687 -0.246233 -0.968659
vn 0.180204 -0.256036 -0.949722
vn 0.250105 -0.186495 -0.950088
vn -0.000000 0.330784 -0.943707
vn 0.299190 0.111082 -0.947706
vn -0.563581 -0.106366 -0.819184
vn -0.270577 -0.582882 -0.766183
vn 0.052824 -0.575939 -0.815784
vn 0.320882 -0.632422 -0.705037
vn 0.065310 0.908216 -0.413373
vn 0.727945 0.367904 -0.578569
vn -0.872704 -0.225673 -0.432967
vn -0.846340 0.329211 -0.418724
vn -0.571980 0.604815 -0.554109
vn -0.225673 -0.872704 -0.432967
vn 0.130670 -0.894765 -0.426991
vn 0.625549 -0.724060 -0.290559
vn 0.852416 -0.395811 -0.341643
vn -0.855131 -0.518412 0.000000
vn -0.467078 -0.880603 0.079857
vn 0.292427 -0.953962 0.066661
vn 0.925467 0.365110 -0.101021
vn -0.843647 -0.161410 0.512061
vn -0.399543 -0.567280 0.720110
vn 0.488742 -0.784591 0.381507
vn 0.558267 -0.697751 0.448867
vn 0.872118 -0.273541 0.405692
vn 0.905410 0.300194 0.300194
vn -0.558525 -0.076474 0.825955
vn -0.771149 0.450479 0.449886
vn -0.388519 -0.330906 0.859973
vn -0.504847 0.769449 0.391251
vn -0.120729 -0.740742 0.660852
vn 0.230601 -0.784512 0.575643
vn 0.484931 -0.520711 0.702639
vn 0.265249 0.810758 0.521838
vn 0.582882 -0.270577 0.766183
vn 0.706489 0.430384 0.561821
vn -0.390540 -0.109403 0.914062
vn -0.306933 0.241397 0.920608
vn 0.101663 -0.558278 0.823402
vn 0.374264 -0.177747 0.910128
vn 0.204280 0.268023 0.941506
vn 0.003466 -0.159523 0.987188
f 15//15 33//33 11//11
f 14//14 7//7 13//13
f 41//41 40//40 45//45
f 31//31 41//41 33//33
f 12//12 23//23 19//19
f 35//35 26//26 27//27
f 26//26 35//35 22//22
f 34//34 35//35 42//42
f 33//33 37//37 11//11
f 40//40 32//32 45//45
f 37//37 44//44 39//39
f 43//43 44//44 45//45
f 44//44 41//41 45//45
f 31//31 24//24 30//30
f 24//24 31//31 14//14
f 25//25 34//34 42//42
f 34//34 25//25 21//21
f 24//24 25//25 32//32
f 17//17 9//9 10//10
f 42//42 36//36 45//45
f 36//36 43//43 45//45
f 43//43 36//36 38//38
f 36//36 35//35 27//27
f 35//35 36//36 42//42
f 28//28 18//18 19//19
f 18//18 28//28 27//27
f 36//36 28//28 38//38
f 28//28 36//36 27//27
f 5//5 1//1 7//7
f 5//5 15//15 11//11
f 5//5 14//14 15//15
f 14//14 5//5 7//7
f 1//1 4//4 2//2
f 4//4 5//5 6//6
f 4//4 3//3 2//2
f 5//5 4//4 1//1
f 4//4 18//18 10//10
f 3//3 4//4 10//10
f 18//18 4//4 19//19
f 40//40 31//31 30//30
f 31//31 40//40 41//41
f 14//14 31//31 15//15
f 15//15 31//31 33//33
f 12//12 4//4 6//6
f 4//4 12//12 19//19
f 12//12 5//5 11//11
f 5//5 12//12 6//6
f 18//18 26//26 22//22
f 26//26 18//18 27//27
f 34//34 21//21 22//22
f 35//35 34//34 22//22
f 37//37 29//29 11//11
f 29//29 12//12 11//11
f 29//29 37//37 39//39
f 12//12 29//29 23//23
f 29//29 28//28 19//19
f 23//23 29//29 19//19
f 28//28 29//29 38//38
f 38//38 29//29 39//39
f 17//17 18//18 22//22
f 18//18 17//17 10//10
f 44//44 43//43 38//38
f 44//44 38//38 39//39
f 44//44 37//37 33//33
f 41//41 44//44 33//33
f 1//1 8//8 7//7
f 24//24 40//40 30//30
f 24//24 32//32 40//40
f 20//20 24//24 13//13
f 24//24 14//14 13//13
f 25//25 42//42 45//45
f 32//32 25//25 45//45
f 25//25 20//20 21//21
f 25//25 24//24 20//20
f 20//20 16//16 21//21
f 7//7 16//16 13//13
f 16//16 20//20 13//13
f 8//8 16//16 7//7
f 21//21 16//16 22//22
f 16//16 17//17 22//22
f 9//9 16//16 8//8
f 16//16 9//9 17//17
f 9//9 3//3 10//10
f 3//3 9//9 2//2
f 9//9 1//1 2//2
f 9//9 8//8 1//1
