# OBJ file
v -0.189453 0.240234 -0.023085
v -0.169922 0.251953 -0.023085
v -0.166016 0.244141 -0.023085
v -0.166016 0.248047 -0.023085
v -0.197266 0.240234 -0.018468
v -0.189453 0.232422 -0.018468
v -0.189453 0.248047 -0.018468
v -0.169922 0.259766 -0.018468
v -0.166016 0.236328 -0.018468
v -0.158203 0.244141 -0.018468
v -0.158203 0.248047 -0.018468
v -0.201172 0.240234 -0.013851
v -0.193359 0.232422 -0.013851
v -0.181641 0.259766 -0.013851
v -0.197266 0.240234 -0.009234
v -0.197266 0.244141 -0.009234
v -0.189453 0.232422 -0.009234
v -0.189453 0.251953 -0.009234
v -0.185547 0.232422 -0.009234
v -0.169922 0.244141 -0.009234
v -0.169922 0.259766 -0.009234
v -0.162109 0.251953 -0.009234
v -0.189453 0.240234 -0.004617
v -0.189453 0.244141 -0.004617
v -0.185547 0.240234 -0.004617
v -0.169922 0.251953 -0.004617
vn -0.242431 -0.056045 -0.968549
vn 0.067988 0.314976 -0.946661
vn 0.234985 -0.205160 -0.950101
vn 0.274881 0.155926 -0.948750
vn -0.630747 0.000000 -0.775989
vn -0.140607 -0.818128 -0.557581
vn -0.434664 0.508234 -0.743482
vn 0.239728 0.822051 -0.516490
vn 0.509440 -0.847683 -0.147999
vn 0.898824 -0.413435 -0.145559
vn 0.908938 0.267777 -0.319574
vn -0.996041 -0.062856 -0.062856
vn -0.518412 -0.855131 0.000000
vn -0.414225 0.906629 -0.080264
vn -0.582882 -0.270577 0.766183
vn -0.706489 0.430384 0.561821
vn -0.194817 -0.811454 0.550989
vn -0.530848 0.662914 0.527964
vn 0.165894 -0.841619 0.513962
vn 0.400522 -0.467824 0.787860
vn 0.261620 0.824195 0.502252
vn 0.762518 0.214819 0.610262
vn -0.218222 -0.218222 0.951188
vn -0.252436 0.188065 0.949162
vn 0.113724 -0.269177 0.956353
vn 0.213103 0.080253 0.973728
f 7//7 14//14 8//8
f 11//11 22//22 10//10
f 26//26 20//20 22//22
f 6//6 5//5 1//1
f 6//6 9//9 19//19
f 9//9 20//20 19//19
f 9//9 3//3 10//10
f 15//15 16//16 12//12
f 18//18 21//21 14//14
f 7//7 2//2 1//1
f 2//2 7//7 8//8
f 11//11 2//2 8//8
f 2//2 11//11 4//4
f 14//14 5//5 12//12
f 7//7 5//5 14//14
f 5//5 7//7 1//1
f 5//5 13//13 12//12
f 13//13 5//5 6//6
f 20//20 9//9 22//22
f 22//22 9//9 10//10
f 24//24 25//25 26//26
f 25//25 24//24 23//23
f 20//20 25//25 19//19
f 26//26 25//25 20//20
f 17//17 13//13 6//6
f 17//17 6//6 19//19
f 17//17 25//25 23//23
f 25//25 17//17 19//19
f 11//11 3//3 4//4
f 3//3 11//11 10//10
f 2//2 3//3 1//1
f 3//3 2//2 4//4
f 3//3 6//6 1//1
f 3//3 9//9 6//6
f 15//15 17//17 23//23
f 13//13 15//15 12//12
f 17//17 15//15 13//13
f 24//24 15//15 23//23
f 15//15 24//24 16//16
f 18//18 14//14 12//12
f 16//16 18//18 12//12
f 24//24 18//18 16//16
f 21//21 24//24 26//26
f 21//21 18//18 24//24
f 21//21 26//26 22//22
f 21//21 11//11 8//8
f 11//11 21//21 22//22
f 14//14 21//21 8//8
