# OBJ file
v 0.587891 -0.369141 -0.036935
v 0.564453 -0.349609 -0.032318
v 0.580078 -0.369141 -0.032318
v 0.587891 -0.376953 -0.032318
v 0.587891 -0.349609 -0.032318
v 0.591797 -0.353516 -0.032318
v 0.595703 -0.369141 -0.032318
v 0.556641 -0.349609 -0.027701
v 0.564453 -0.357422 -0.027701
v 0.564453 -0.341797 -0.027701
v 0.587891 -0.341797 -0.027701
v 0.591797 -0.376953 -0.027701
v 0.599609 -0.369141 -0.027701
v 0.599609 -0.353516 -0.027701
v 0.564453 -0.349609 -0.023085
v 0.580078 -0.341797 -0.023085
v 0.591797 -0.341797 -0.023085
v 0.595703 -0.373047 -0.023085
v 0.599609 -0.349609 -0.023085
v 0.603516 -0.365234 -0.023085
v 0.580078 -0.349609 -0.018468
v 0.591797 -0.349609 -0.018468
v 0.595703 -0.365234 -0.018468
vn 0.056214 -0.196090 -0.978973
vn -0.285584 0.107441 -0.952312
vn -0.502712 -0.469880 -0.725599
vn -0.163934 -0.918340 -0.360246
vn 0.178202 0.345616 -0.921300
vn 0.352494 0.249783 -0.901863
vn 0.573632 -0.237782 -0.783840
vn -0.999866 0.014950 0.006704
vn -0.661670 -0.722262 0.201323
vn -0.410971 0.910235 -0.050743
vn 0.194817 0.811454 -0.550989
vn 0.180273 -0.962525 0.202602
vn 0.777271 -0.444888 -0.444888
vn 0.721713 0.287117 -0.629836
vn -0.357421 0.019040 0.933749
vn -0.070345 0.831503 0.551049
vn 0.441351 0.859367 0.258259
vn 0.299441 -0.726950 0.617963
vn 0.822955 0.515075 0.239670
vn 0.961158 -0.187772 0.202278
vn -0.150060 0.137033 0.979134
vn 0.198827 0.241981 0.949691
vn 0.122708 -0.233063 0.964689
f 3//3 1//1 4//4
f 1//1 7//7 4//4
f 23//23 18//18 20//20
f 12//12 9//9 4//4
f 12//12 18//18 9//9
f 10//10 2//2 8//8
f 2//2 5//5 1//1
f 5//5 6//6 1//1
f 14//14 19//19 20//20
f 15//15 10//10 8//8
f 9//9 15//15 8//8
f 21//21 15//15 23//23
f 22//22 21//21 23//23
f 17//17 22//22 19//19
f 3//3 2//2 1//1
f 2//2 3//3 8//8
f 3//3 9//9 8//8
f 9//9 3//3 4//4
f 10//10 5//5 2//2
f 5//5 10//10 11//11
f 14//14 17//17 19//19
f 17//17 14//14 11//11
f 14//14 5//5 11//11
f 5//5 14//14 6//6
f 14//14 7//7 1//1
f 6//6 14//14 1//1
f 14//14 13//13 7//7
f 13//13 14//14 20//20
f 18//18 13//13 20//20
f 12//12 13//13 18//18
f 7//7 13//13 4//4
f 13//13 12//12 4//4
f 18//18 15//15 9//9
f 15//15 18//18 23//23
f 15//15 16//16 10//10
f 16//16 15//15 21//21
f 10//10 16//16 11//11
f 16//16 17//17 11//11
f 19//19 22//22 20//20
f 22//22 23//23 20//20
f 16//16 22//22 17//17
f 22//22 16//16 21//21
