# OBJ file
v -0.701172 0.052734 -0.018468
v -0.697266 0.044922 -0.018468
v -0.697266 0.052734 -0.018468
v -0.693359 0.044922 -0.018468
v -0.693359 0.048828 -0.018468
v -0.712891 0.044922 -0.013851
v -0.708984 0.052734 -0.013851
v -0.697266 0.037109 -0.013851
v -0.697266 0.060547 -0.013851
v -0.693359 0.037109 -0.013851
v -0.685547 0.044922 -0.013851
v -0.720703 0.044922 -0.009234
v -0.712891 0.037109 -0.009234
v -0.712891 0.056641 -0.009234
v -0.701172 0.068359 -0.009234
v -0.677734 0.060547 -0.009234
v -0.724609 0.044922 -0.004617
v -0.716797 0.037109 -0.004617
v -0.697266 0.037109 -0.004617
v -0.681641 0.041016 -0.004617
v -0.677734 0.068359 -0.004617
v -0.673828 0.048828 -0.004617
v -0.669922 0.056641 -0.004617
v -0.669922 0.060547 -0.004617
v -0.720703 0.044922 0.000000
v -0.716797 0.052734 0.000000
v -0.712891 0.037109 0.000000
v -0.708984 0.037109 0.000000
v -0.705078 0.064453 0.000000
v -0.677734 0.044922 0.000000
v -0.669922 0.052734 0.000000
v -0.712891 0.044922 0.004617
v -0.708984 0.044922 0.004617
v -0.708984 0.052734 0.004617
v -0.705078 0.056641 0.004617
v -0.681641 0.068359 0.004617
v -0.677734 0.068359 0.004617
v -0.669922 0.060547 0.004617
v -0.681641 0.060547 0.009234
v -0.677734 0.060547 0.009234
vn -0.200833 0.209818 -0.956892
vn -0.098037 -0.245533 -0.964418
vn 0.084036 0.247985 -0.965112
vn 0.218222 -0.218222 -0.951188
vn 0.234188 0.074498 -0.969333
vn -0.372806 -0.137019 -0.917737
vn -0.437409 0.315291 -0.842179
vn -0.070345 -0.831503 -0.551049
vn 0.092077 0.458928 -0.883689
vn 0.235708 -0.835425 -0.496494
vn 0.526312 -0.315909 -0.789428
vn -0.628021 -0.084971 -0.773543
vn -0.251498 -0.822863 -0.509554
vn -0.648383 0.595241 -0.474645
vn -0.286947 0.872550 -0.395371
vn 0.352355 0.253397 -0.900908
vn -0.997837 -0.064815 -0.010925
vn -0.518412 -0.855131 0.000000
vn 0.136666 -0.945458 0.295689
vn 0.499144 -0.866465 0.009682
vn 0.365193 0.825236 -0.430837
vn 0.721326 -0.555181 -0.414082
vn 0.844634 -0.103287 -0.525285
vn 0.822714 0.323411 -0.467491
vn -0.616662 -0.126915 0.776930
vn -0.657797 0.547989 0.516732
vn -0.194817 -0.811454 0.550989
vn 0.043411 -0.841251 0.538900
vn -0.484720 0.719642 0.497154
vn 0.484106 -0.689981 0.538115
vn 0.857720 -0.440661 0.264831
vn -0.271401 -0.157948 0.949418
vn 0.036308 -0.361908 0.931506
vn -0.311577 0.239329 0.919587
vn -0.280149 0.333108 0.900309
vn -0.079332 0.832128 0.548880
vn 0.323411 0.822714 0.467491
vn 0.821111 0.186188 0.539547
vn -0.071007 0.139976 0.987606
vn 0.236992 0.018139 0.971342
f 29//29 36//36 15//15
f 35//35 34//34 39//39
f 14//14 12//12 17//17
f 12//12 14//14 7//7
f 5//5 3//3 16//16
f 21//21 9//9 15//15
f 21//21 24//24 16//16
f 25//25 26//26 17//17
f 13//13 12//12 6//6
f 1//1 2//2 6//6
f 22//22 11//11 23//23
f 40//40 38//38 37//37
f 31//31 22//22 23//23
f 10//10 20//20 19//19
f 27//27 32//32 25//25
f 34//34 32//32 39//39
f 21//21 36//36 37//37
f 36//36 21//21 15//15
f 26//26 29//29 15//15
f 14//14 26//26 15//15
f 26//26 14//14 17//17
f 35//35 36//36 29//29
f 36//36 35//35 39//39
f 26//26 35//35 29//29
f 35//35 26//26 34//34
f 1//1 14//14 15//15
f 14//14 1//1 7//7
f 1//1 12//12 7//7
f 12//12 1//1 6//6
f 9//9 1//1 15//15
f 1//1 9//9 3//3
f 3//3 9//9 16//16
f 9//9 21//21 16//16
f 11//11 5//5 16//16
f 24//24 11//11 16//16
f 5//5 11//11 4//4
f 11//11 24//24 23//23
f 2//2 5//5 4//4
f 5//5 2//2 3//3
f 2//2 1//1 3//3
f 38//38 21//21 37//37
f 38//38 24//24 21//21
f 12//12 18//18 17//17
f 13//13 18//18 12//12
f 36//36 40//40 37//37
f 40//40 36//36 39//39
f 24//24 31//31 23//23
f 38//38 31//31 24//24
f 31//31 40//40 30//30
f 40//40 31//31 38//38
f 22//22 31//31 20//20
f 31//31 30//30 20//20
f 20//20 28//28 19//19
f 30//30 28//28 20//20
f 40//40 28//28 30//30
f 28//28 40//40 33//33
f 11//11 10//10 4//4
f 22//22 10//10 11//11
f 10//10 22//22 20//20
f 27//27 25//25 17//17
f 18//18 27//27 17//17
f 8//8 10//10 19//19
f 27//27 8//8 28//28
f 8//8 18//18 13//13
f 28//28 8//8 19//19
f 8//8 27//27 18//18
f 8//8 13//13 6//6
f 2//2 8//8 6//6
f 8//8 2//2 4//4
f 10//10 8//8 4//4
f 32//32 28//28 33//33
f 32//32 27//27 28//28
f 26//26 32//32 34//34
f 25//25 32//32 26//26
f 32//32 40//40 39//39
f 40//40 32//32 33//33
