# OBJ file
v 0.787109 -0.888672 -0.027701
v 0.787109 -0.880859 -0.027701
v 0.767578 -0.849609 -0.023085
v 0.787109 -0.896484 -0.023085
v 0.794922 -0.865234 -0.023085
v 0.806641 -0.896484 -0.023085
v 0.814453 -0.884766 -0.023085
v 0.767578 -0.841797 -0.018468
v 0.794922 -0.857422 -0.018468
v 0.802734 -0.904297 -0.018468
v 0.806641 -0.904297 -0.018468
v 0.814453 -0.896484 -0.018468
v 0.814453 -0.873047 -0.018468
v 0.822266 -0.884766 -0.018468
v 0.732422 -0.876953 -0.013851
v 0.732422 -0.869141 -0.013851
v 0.744141 -0.888672 -0.013851
v 0.767578 -0.837891 -0.013851
v 0.810547 -0.904297 -0.013851
v 0.814453 -0.865234 -0.013851
v 0.818359 -0.896484 -0.013851
v 0.822266 -0.873047 -0.013851
v 0.826172 -0.884766 -0.013851
v 0.826172 -0.880859 -0.013851
v 0.724609 -0.876953 -0.009234
v 0.724609 -0.869141 -0.009234
v 0.732422 -0.861328 -0.009234
v 0.744141 -0.896484 -0.009234
v 0.763672 -0.837891 -0.009234
v 0.775391 -0.837891 -0.009234
v 0.818359 -0.869141 -0.009234
v 0.826172 -0.876953 -0.009234
v 0.810547 -0.904297 -0.004617
v 0.818359 -0.896484 -0.004617
v 0.822266 -0.884766 -0.004617
v 0.822266 -0.880859 -0.004617
v 0.724609 -0.880859 0.000000
v 0.724609 -0.873047 0.000000
v 0.732422 -0.865234 0.000000
v 0.736328 -0.896484 0.000000
v 0.744141 -0.904297 0.000000
v 0.779297 -0.837891 0.000000
v 0.810547 -0.896484 0.000000
v 0.814453 -0.884766 0.000000
v 0.814453 -0.880859 0.000000
v 0.763672 -0.837891 0.004617
v 0.732422 -0.884766 0.009234
v 0.744141 -0.896484 0.009234
v 0.759766 -0.900391 0.009234
v 0.771484 -0.837891 0.009234
v 0.775391 -0.837891 0.009234
v 0.783203 -0.845703 0.009234
v 0.736328 -0.880859 0.013851
v 0.751953 -0.896484 0.013851
v 0.755859 -0.853516 0.013851
v 0.759766 -0.896484 0.013851
v 0.767578 -0.841797 0.013851
v 0.775391 -0.841797 0.013851
v 0.783203 -0.849609 0.013851
v 0.744141 -0.880859 0.018468
v 0.751953 -0.888672 0.018468
v 0.759766 -0.888672 0.018468
v 0.763672 -0.853516 0.018468
v 0.767578 -0.849609 0.018468
v 0.775391 -0.857422 0.018468
v 0.775391 -0.849609 0.018468
vn -0.067316 -0.213655 -0.974587
vn 0.001063 0.063793 -0.997963
vn -0.099909 0.305282 -0.947006
vn -0.139134 -0.556164 -0.819343
vn 0.227065 0.306730 -0.924315
vn 0.213797 -0.321694 -0.922390
vn 0.346111 0.013869 -0.938091
vn -0.072962 0.605170 -0.792746
vn 0.335660 0.538038 -0.773206
vn -0.022738 -0.849571 -0.526984
vn 0.194817 -0.811454 -0.550989
vn 0.525301 -0.435799 -0.730848
vn 0.368397 0.347065 -0.862455
vn 0.573469 -0.078885 -0.815420
vn -0.356672 -0.178783 -0.916963
vn -0.364725 0.174702 -0.914579
vn -0.307419 -0.361049 -0.880419
vn -0.079384 0.874214 -0.479007
vn 0.432967 -0.872704 -0.225673
vn 0.582852 0.692683 -0.424822
vn 0.739211 -0.591450 -0.322109
vn 0.670018 0.552834 -0.495429
vn 0.941270 -0.267738 -0.205734
vn 0.872861 0.156960 -0.462035
vn -0.815849 -0.223017 -0.533530
vn -0.840986 0.397688 -0.366860
vn -0.659087 0.691575 -0.295515
vn -0.373303 -0.568347 -0.733230
vn -0.366854 0.908742 -0.199013
vn 0.272590 0.898814 -0.343260
vn 0.677384 0.695384 0.239983
vn 0.907874 0.322520 0.267855
vn 0.369849 -0.826046 0.425277
vn 0.712188 -0.485481 0.507046
vn 0.689870 -0.152866 0.707610
vn 0.573180 0.091534 0.814301
vn -0.918671 -0.316272 0.236675
vn -0.856811 0.278974 0.433645
vn -0.624170 0.633533 0.457217
vn -0.724572 -0.689196 0.002155
vn -0.416227 -0.909218 -0.008873
vn 0.405948 0.913076 0.038719
vn 0.328181 -0.286350 0.900167
vn 0.394102 -0.074123 0.916073
vn 0.420381 0.044309 0.906265
vn -0.384132 0.883628 0.267664
vn -0.649616 -0.333498 0.683211
vn -0.449507 -0.552218 0.702139
vn 0.022800 -0.813564 0.581028
vn -0.060947 0.918335 0.391084
vn 0.263838 0.873468 0.409197
vn 0.607032 0.595909 0.525742
vn -0.527965 -0.017158 0.849093
vn -0.186912 -0.592281 0.783752
vn -0.507235 0.453314 0.732952
vn 0.082669 -0.571062 0.816733
vn -0.270468 0.610058 0.744766
vn 0.270577 0.582882 0.766183
vn 0.527906 0.369324 0.764797
vn -0.320435 -0.048600 0.946023
vn -0.155926 -0.274881 0.948750
vn 0.101702 -0.241117 0.965153
vn -0.226990 0.206141 0.951831
vn -0.155926 0.274881 0.948750
vn 0.194127 -0.030453 0.980504
vn 0.204920 0.229326 0.951534
f 40//40 37//37 25//25
f 37//37 40//40 47//47
f 33//33 49//49 41//41
f 56//56 49//49 33//33
f 49//49 54//54 41//41
f 54//54 49//49 56//56
f 28//28 4//4 41//41
f 4//4 10//10 41//41
f 2//2 7//7 1//1
f 7//7 2//2 5//5
f 3//3 2//2 1//1
f 2//2 3//3 5//5
f 7//7 6//6 1//1
f 13//13 7//7 5//5
f 20//20 30//30 42//42
f 30//30 8//8 18//18
f 31//31 20//20 42//42
f 29//29 27//27 46//46
f 27//27 29//29 18//18
f 8//8 27//27 18//18
f 54//54 48//48 41//41
f 17//17 15//15 1//1
f 15//15 3//3 1//1
f 9//9 30//30 20//20
f 30//30 9//9 8//8
f 22//22 13//13 20//20
f 51//51 31//31 42//42
f 27//27 39//39 46//46
f 53//53 55//55 38//38
f 35//35 34//34 23//23
f 32//32 35//35 23//23
f 57//57 50//50 46//46
f 34//34 43//43 33//33
f 32//32 24//24 22//22
f 24//24 32//32 23//23
f 24//24 14//14 22//22
f 14//14 24//24 23//23
f 32//32 36//36 35//35
f 59//59 36//36 32//32
f 59//59 32//32 52//52
f 44//44 65//65 43//43
f 43//43 65//65 62//62
f 40//40 28//28 41//41
f 28//28 40//40 25//25
f 38//38 26//26 25//25
f 37//37 38//38 25//25
f 17//17 4//4 28//28
f 4//4 17//17 1//1
f 26//26 27//27 16//16
f 27//27 8//8 3//3
f 16//16 27//27 3//3
f 48//48 40//40 41//41
f 40//40 48//48 47//47
f 15//15 26//26 16//16
f 26//26 15//15 25//25
f 15//15 28//28 25//25
f 15//15 17//17 28//28
f 15//15 16//16 3//3
f 13//13 9//9 20//20
f 9//9 13//13 5//5
f 8//8 9//9 3//3
f 3//3 9//9 5//5
f 30//30 51//51 42//42
f 51//51 29//29 46//46
f 29//29 51//51 18//18
f 51//51 30//30 18//18
f 50//50 51//51 46//46
f 38//38 39//39 26//26
f 39//39 27//27 26//26
f 53//53 48//48 54//54
f 61//61 53//53 54//54
f 48//48 53//53 47//47
f 53//53 61//61 60//60
f 53//53 38//38 37//37
f 53//53 37//37 47//47
f 62//62 61//61 54//54
f 62//62 54//54 56//56
f 11//11 19//19 33//33
f 11//11 33//33 41//41
f 10//10 11//11 41//41
f 11//11 4//4 1//1
f 4//4 11//11 10//10
f 6//6 11//11 1//1
f 34//34 19//19 21//21
f 19//19 34//34 33//33
f 34//34 21//21 23//23
f 32//32 22//22 20//20
f 31//31 32//32 20//20
f 51//51 32//32 31//31
f 52//52 32//32 51//51
f 63//63 53//53 60//60
f 53//53 63//63 55//55
f 55//55 57//57 38//38
f 57//57 39//39 38//38
f 39//39 57//57 46//46
f 57//57 63//63 64//64
f 63//63 57//57 55//55
f 22//22 14//14 13//13
f 13//13 14//14 7//7
f 43//43 62//62 56//56
f 43//43 56//56 33//33
f 58//58 51//51 50//50
f 57//57 58//58 50//50
f 66//66 58//58 64//64
f 58//58 57//57 64//64
f 12//12 11//11 6//6
f 14//14 12//12 7//7
f 12//12 6//6 7//7
f 19//19 12//12 21//21
f 11//11 12//12 19//19
f 21//21 12//12 23//23
f 12//12 14//14 23//23
f 44//44 43//43 34//34
f 44//44 34//34 35//35
f 59//59 58//58 66//66
f 59//59 52//52 51//51
f 58//58 59//59 51//51
f 61//61 65//65 60//60
f 62//62 65//65 61//61
f 63//63 65//65 64//64
f 65//65 66//66 64//64
f 65//65 63//63 60//60
f 45//45 59//59 66//66
f 59//59 45//45 36//36
f 65//65 45//45 66//66
f 45//45 65//65 44//44
f 45//45 44//44 35//35
f 36//36 45//45 35//35
