# OBJ file
v 0.572266 -0.564453 0.009234
v 0.572266 -0.560547 0.009234
v 0.583984 -0.564453 0.009234
v 0.556641 -0.568359 0.013851
v 0.556641 -0.564453 0.013851
v 0.568359 -0.580078 0.013851
v 0.572266 -0.552734 0.013851
v 0.580078 -0.576172 0.013851
v 0.583984 -0.556641 0.013851
v 0.587891 -0.572266 0.013851
v 0.591797 -0.560547 0.013851
v 0.548828 -0.568359 0.018468
v 0.548828 -0.564453 0.018468
v 0.556641 -0.556641 0.018468
v 0.564453 -0.552734 0.018468
v 0.568359 -0.587891 0.018468
v 0.580078 -0.583984 0.018468
v 0.587891 -0.580078 0.018468
v 0.591797 -0.552734 0.018468
v 0.595703 -0.572266 0.018468
v 0.599609 -0.564453 0.018468
v 0.599609 -0.560547 0.018468
v 0.548828 -0.576172 0.023085
v 0.556641 -0.556641 0.023085
v 0.560547 -0.587891 0.023085
v 0.583984 -0.583984 0.023085
v 0.603516 -0.564453 0.023085
v 0.544922 -0.568359 0.027701
v 0.576172 -0.587891 0.027701
v 0.595703 -0.580078 0.027701
v 0.603516 -0.572266 0.027701
v 0.544922 -0.568359 0.032318
v 0.552734 -0.560547 0.032318
v 0.560547 -0.587891 0.032318
v 0.564453 -0.552734 0.032318
v 0.568359 -0.587891 0.036935
v 0.568359 -0.552734 0.036935
v 0.580078 -0.583984 0.036935
v 0.591797 -0.552734 0.036935
v 0.599609 -0.568359 0.036935
v 0.599609 -0.560547 0.036935
v 0.544922 -0.576172 0.041552
v 0.552734 -0.583984 0.041552
v 0.552734 -0.568359 0.041552
v 0.583984 -0.556641 0.041552
v 0.587891 -0.576172 0.041552
v 0.587891 -0.556641 0.041552
v 0.595703 -0.568359 0.041552
v 0.595703 -0.564453 0.041552
v 0.552734 -0.576172 0.046169
v 0.564453 -0.583984 0.046169
v 0.568359 -0.564453 0.046169
v 0.587891 -0.568359 0.046169
v 0.587891 -0.564453 0.046169
v 0.564453 -0.576172 0.050786
v 0.568359 -0.572266 0.050786
vn -0.104018 -0.104018 -0.989121
vn -0.099710 0.262326 -0.959814
vn 0.217574 0.028016 -0.975642
vn -0.354843 -0.185400 -0.916359
vn -0.358255 0.195208 -0.912988
vn -0.132661 -0.376481 -0.916877
vn -0.063846 0.812085 -0.580035
vn 0.163963 -0.398607 -0.902346
vn 0.179685 0.464256 -0.867283
vn 0.329643 -0.341049 -0.880353
vn 0.370328 0.247014 -0.895456
vn -0.677133 -0.172058 -0.715463
vn -0.744885 0.390493 -0.540982
vn -0.532476 0.719236 -0.446282
vn -0.274888 0.914063 -0.298205
vn -0.058055 -0.810341 -0.583075
vn 0.274049 -0.715790 -0.642294
vn 0.393758 -0.623486 -0.675441
vn 0.373133 0.826096 -0.422301
vn 0.539197 -0.399164 -0.741576
vn 0.592375 -0.146210 -0.792284
vn 0.706489 0.430384 -0.561821
vn -0.711558 -0.487145 -0.506334
vn -0.582348 0.812315 0.031842
vn -0.380331 -0.831445 -0.405029
vn 0.372578 -0.877425 -0.302175
vn 0.942028 0.175078 -0.286236
vn -0.960418 0.208184 -0.185085
vn 0.248668 -0.968585 0.002820
vn 0.617200 -0.786777 0.006797
vn 0.906315 -0.422595 -0.002511
vn -0.872704 0.432967 0.225673
vn -0.614848 0.716401 0.329744
vn -0.219374 -0.970792 0.097150
vn -0.321554 0.924827 0.203221
vn 0.088134 -0.948460 0.304394
vn -0.175547 0.856409 0.485538
vn 0.353657 -0.803461 0.478932
vn 0.366194 0.835706 0.409264
vn 0.755014 -0.259169 0.602316
vn 0.770955 0.423268 0.475892
vn -0.867394 -0.165028 0.469462
vn -0.508686 -0.760136 0.404267
vn -0.448266 0.521996 0.725656
vn -0.009355 0.584250 0.811520
vn 0.421595 -0.566283 0.708224
vn 0.166824 0.540787 0.824451
vn 0.582882 -0.270577 0.766183
vn 0.540787 0.166824 0.824451
vn -0.383606 -0.006687 0.923473
vn 0.004183 -0.685769 0.727807
vn -0.174564 0.486692 0.855955
vn 0.336941 -0.194883 0.921136
vn 0.255309 0.247344 0.934686
vn -0.089155 -0.147931 0.984971
vn -0.014104 0.144064 0.989468
f 44//44 52//52 37//37
f 9//9 7//7 19//19
f 42//42 32//32 28//28
f 50//50 42//42 43//43
f 29//29 26//26 30//30
f 33//33 44//44 37//37
f 56//56 50//50 55//55
f 3//3 1//1 2//2
f 13//13 12//12 28//28
f 5//5 13//13 14//14
f 22//22 11//11 19//19
f 21//21 22//22 27//27
f 35//35 33//33 37//37
f 25//25 34//34 43//43
f 18//18 10//10 20//20
f 38//38 29//29 30//30
f 6//6 1//1 3//3
f 41//41 31//31 27//27
f 31//31 41//41 40//40
f 52//52 45//45 37//37
f 35//35 24//24 33//33
f 15//15 7//7 14//14
f 12//12 23//23 28//28
f 23//23 42//42 28//28
f 10//10 8//8 3//3
f 8//8 6//6 3//3
f 46//46 51//51 38//38
f 46//46 38//38 30//30
f 38//38 36//36 29//29
f 51//51 36//36 38//38
f 36//36 51//51 43//43
f 34//34 36//36 43//43
f 56//56 53//53 54//54
f 53//53 56//56 55//55
f 48//48 53//53 46//46
f 7//7 9//9 3//3
f 7//7 3//3 2//2
f 42//42 50//50 44//44
f 42//42 33//33 32//32
f 33//33 42//42 44//44
f 50//50 56//56 44//44
f 56//56 52//52 44//44
f 5//5 1//1 4//4
f 1//1 5//5 2//2
f 12//12 5//5 4//4
f 5//5 12//12 13//13
f 5//5 7//7 2//2
f 7//7 5//5 14//14
f 9//9 11//11 3//3
f 11//11 9//9 19//19
f 10//10 21//21 20//20
f 21//21 10//10 3//3
f 11//11 21//21 3//3
f 21//21 11//11 22//22
f 31//31 21//21 27//27
f 21//21 31//31 20//20
f 31//31 18//18 20//20
f 18//18 31//31 30//30
f 51//51 50//50 43//43
f 50//50 51//51 55//55
f 1//1 6//6 4//4
f 39//39 41//41 19//19
f 41//41 22//22 19//19
f 22//22 41//41 27//27
f 47//47 41//41 39//39
f 41//41 47//47 54//54
f 49//49 41//41 54//54
f 56//56 45//45 52//52
f 45//45 56//56 54//54
f 47//47 45//45 54//54
f 45//45 39//39 37//37
f 45//45 47//47 39//39
f 13//13 24//24 14//14
f 33//33 24//24 32//32
f 32//32 24//24 28//28
f 24//24 13//13 28//28
f 24//24 15//15 14//14
f 15//15 24//24 35//35
f 39//39 15//15 37//37
f 15//15 39//39 19//19
f 15//15 35//35 37//37
f 7//7 15//15 19//19
f 6//6 23//23 4//4
f 23//23 6//6 16//16
f 25//25 23//23 16//16
f 23//23 12//12 4//4
f 42//42 23//23 43//43
f 23//23 25//25 43//43
f 17//17 29//29 16//16
f 17//17 26//26 29//29
f 17//17 18//18 30//30
f 26//26 17//17 30//30
f 17//17 8//8 18//18
f 18//18 8//8 10//10
f 6//6 8//8 16//16
f 8//8 17//17 16//16
f 36//36 25//25 16//16
f 29//29 36//36 16//16
f 36//36 34//34 25//25
f 31//31 48//48 30//30
f 48//48 31//31 40//40
f 48//48 46//46 30//30
f 48//48 41//41 49//49
f 41//41 48//48 40//40
f 51//51 53//53 55//55
f 46//46 53//53 51//51
f 53//53 49//49 54//54
f 53//53 48//48 49//49
