# OBJ file
v 0.419922 0.943359 -0.027701
v 0.419922 0.951172 -0.027701
v 0.431641 0.951172 -0.027701
v 0.435547 0.943359 -0.027701
v 0.435547 0.947266 -0.027701
v 0.404297 0.927734 -0.023085
v 0.412109 0.951172 -0.023085
v 0.419922 0.958984 -0.023085
v 0.431641 0.958984 -0.023085
v 0.466797 0.943359 -0.023085
v 0.396484 0.927734 -0.018468
v 0.404297 0.919922 -0.018468
v 0.423828 0.962891 -0.018468
v 0.458984 0.931641 -0.018468
v 0.466797 0.951172 -0.018468
v 0.474609 0.947266 -0.018468
v 0.396484 0.939453 -0.013851
v 0.400391 0.947266 -0.013851
v 0.408203 0.955078 -0.013851
v 0.419922 0.962891 -0.013851
v 0.458984 0.923828 -0.013851
v 0.474609 0.927734 -0.013851
v 0.474609 0.955078 -0.013851
v 0.490234 0.939453 -0.013851
v 0.396484 0.916016 -0.009234
v 0.400391 0.943359 -0.009234
v 0.404297 0.908203 -0.009234
v 0.416016 0.908203 -0.009234
v 0.431641 0.962891 -0.009234
v 0.435547 0.962891 -0.009234
v 0.474609 0.919922 -0.009234
v 0.486328 0.951172 -0.009234
v 0.498047 0.939453 -0.009234
v 0.404297 0.916016 -0.004617
v 0.412109 0.951172 -0.004617
v 0.419922 0.958984 -0.004617
v 0.482422 0.955078 -0.004617
v 0.494141 0.923828 -0.004617
v 0.478516 0.955078 0.000000
v 0.486328 0.951172 0.000000
v 0.494141 0.916016 0.000000
v 0.498047 0.939453 0.000000
v 0.501953 0.923828 0.000000
v 0.416016 0.943359 0.004617
v 0.423828 0.951172 0.004617
v 0.462891 0.919922 0.004617
v 0.474609 0.951172 0.004617
v 0.494141 0.939453 0.004617
v 0.501953 0.931641 0.004617
v 0.423828 0.943359 0.009234
v 0.474609 0.943359 0.009234
v 0.494141 0.931641 0.009234
v 0.462891 0.935547 0.013851
vn -0.092089 -0.092089 -0.991483
vn -0.195425 0.240992 -0.950648
vn 0.068688 0.254099 -0.964736
vn 0.074032 -0.194558 -0.978093
vn 0.084135 0.055392 -0.994914
vn -0.241826 -0.214418 -0.946332
vn -0.523366 0.379371 -0.762997
vn -0.296730 0.646029 -0.703277
vn 0.120714 0.653297 -0.747416
vn 0.210547 0.022207 -0.977332
vn -0.804283 -0.099152 -0.585916
vn -0.200292 -0.491816 -0.847349
vn -0.080925 0.918197 -0.387769
vn 0.110694 -0.414908 -0.903105
vn 0.204548 0.447941 -0.870350
vn 0.321869 0.356248 -0.877205
vn -0.956974 0.277379 -0.085217
vn -0.806322 0.581587 -0.107709
vn -0.675347 0.737500 -0.000000
vn -0.355804 0.933765 0.038553
vn 0.100722 -0.462019 -0.881132
vn 0.198580 -0.400549 -0.894498
vn 0.286720 0.755220 -0.589436
vn 0.389135 0.007105 -0.921154
vn -0.878012 -0.450431 0.161888
vn -0.690566 0.332076 0.642529
vn -0.354118 -0.934539 0.035167
vn 0.059032 -0.988314 -0.140538
vn -0.017891 0.923477 0.383237
vn 0.082869 0.961606 0.261623
vn 0.169391 -0.557921 -0.812423
vn 0.589724 0.665117 -0.458088
vn 0.770628 0.272875 -0.575909
vn -0.304962 -0.291756 0.906574
vn -0.542687 0.518915 0.660468
vn -0.319116 0.723961 0.611593
vn 0.435093 0.900385 0.001052
vn 0.348348 -0.382853 -0.855615
vn 0.207168 0.822448 0.529775
vn 0.543678 0.690710 0.476796
vn 0.442149 -0.895621 0.048656
vn 0.755014 0.602316 0.259169
vn 0.867190 -0.496902 -0.032707
vn -0.500203 0.219602 0.837599
vn -0.208338 0.553606 0.806298
vn -0.010739 -0.566257 0.824159
vn 0.107762 0.558929 0.822184
vn 0.434664 0.508234 0.743482
vn 0.855755 0.091709 0.509189
vn -0.225340 0.127869 0.965853
vn 0.134436 0.383793 0.913581
vn 0.290584 -0.036168 0.956166
vn -0.000080 -0.019715 0.999806
f 50//50 34//34 53//53
f 34//34 25//25 27//27
f 6//6 12//12 11//11
f 25//25 17//17 11//11
f 41//41 38//38 43//43
f 33//33 49//49 43//43
f 32//32 23//23 37//37
f 12//12 28//28 27//27
f 4//4 5//5 10//10
f 1//1 4//4 6//6
f 1//1 6//6 2//2
f 26//26 17//17 25//25
f 17//17 7//7 11//11
f 42//42 49//49 33//33
f 23//23 9//9 13//13
f 15//15 9//9 23//23
f 16//16 24//24 10//10
f 24//24 22//22 10//10
f 22//22 24//24 38//38
f 52//52 51//51 53//53
f 4//4 14//14 6//6
f 14//14 4//4 10//10
f 22//22 14//14 10//10
f 28//28 31//31 41//41
f 26//26 18//18 17//17
f 18//18 7//7 17//17
f 5//5 3//3 10//10
f 9//9 8//8 13//13
f 8//8 20//20 13//13
f 8//8 19//19 20//20
f 49//49 48//48 52//52
f 48//48 40//40 47//47
f 23//23 30//30 37//37
f 30//30 23//23 13//13
f 39//39 40//40 37//37
f 30//30 39//39 37//37
f 40//40 39//39 47//47
f 20//20 36//36 29//29
f 19//19 36//36 20//20
f 45//45 44//44 50//50
f 44//44 26//26 25//25
f 44//44 35//35 26//26
f 46//46 34//34 27//27
f 34//34 46//46 53//53
f 46//46 52//52 53//53
f 52//52 46//46 41//41
f 25//25 12//12 27//27
f 12//12 25//25 11//11
f 49//49 52//52 41//41
f 49//49 41//41 43//43
f 16//16 15//15 23//23
f 15//15 16//16 10//10
f 28//28 46//46 27//27
f 46//46 28//28 41//41
f 6//6 7//7 2//2
f 7//7 6//6 11//11
f 24//24 16//16 23//23
f 32//32 24//24 23//23
f 24//24 32//32 33//33
f 24//24 33//33 43//43
f 38//38 24//24 43//43
f 32//32 40//40 33//33
f 40//40 32//32 37//37
f 40//40 42//42 33//33
f 45//45 51//51 47//47
f 45//45 50//50 53//53
f 51//51 45//45 53//53
f 31//31 22//22 38//38
f 31//31 38//38 41//41
f 3//3 5//5 4//4
f 1//1 3//3 4//4
f 3//3 1//1 2//2
f 3//3 15//15 10//10
f 3//3 9//9 15//15
f 8//8 3//3 2//2
f 3//3 8//8 9//9
f 7//7 8//8 2//2
f 8//8 18//18 19//19
f 18//18 8//8 7//7
f 40//40 48//48 42//42
f 42//42 48//48 49//49
f 51//51 48//48 47//47
f 48//48 51//51 52//52
f 20//20 30//30 13//13
f 30//30 20//20 29//29
f 36//36 45//45 47//47
f 39//39 36//36 47//47
f 36//36 39//39 30//30
f 36//36 30//30 29//29
f 34//34 44//44 25//25
f 44//44 34//34 50//50
f 14//14 21//21 6//6
f 21//21 12//12 6//6
f 21//21 28//28 12//12
f 21//21 31//31 28//28
f 31//31 21//21 22//22
f 21//21 14//14 22//22
f 35//35 18//18 26//26
f 18//18 35//35 19//19
f 35//35 36//36 19//19
f 36//36 35//35 45//45
f 35//35 44//44 45//45
