# OBJ file
v -0.478516 0.017578 -0.046169
v -0.474609 0.017578 -0.046169
v -0.470703 0.021484 -0.046169
v -0.470703 0.025391 -0.046169
v -0.494141 0.029297 -0.041552
v -0.494141 0.037109 -0.041552
v -0.478516 0.009766 -0.041552
v -0.474609 0.009766 -0.041552
v -0.470703 0.033203 -0.041552
v -0.501953 0.029297 -0.036935
v -0.501953 0.037109 -0.036935
v -0.498047 0.021484 -0.036935
v -0.494141 0.044922 -0.036935
v -0.466797 0.037109 -0.036935
v -0.455078 0.025391 -0.036935
v -0.451172 0.009766 -0.036935
v -0.505859 0.021484 -0.032318
v -0.498047 0.013672 -0.032318
v -0.462891 0.037109 -0.032318
v -0.455078 0.029297 -0.032318
v -0.451172 0.001953 -0.032318
v -0.443359 0.009766 -0.032318
v -0.486328 0.044922 -0.027701
v -0.517578 0.041016 -0.023085
v -0.509766 0.048828 -0.023085
v -0.505859 0.013672 -0.023085
v -0.498047 0.048828 -0.023085
v -0.462891 0.037109 -0.023085
v -0.455078 0.029297 -0.023085
v -0.509766 0.021484 -0.018468
v -0.498047 -0.001953 -0.018468
v -0.490234 -0.009766 -0.018468
v -0.455078 0.025391 -0.018468
v -0.498047 -0.001953 -0.013851
v -0.486328 -0.013672 -0.013851
v -0.478516 0.044922 -0.013851
v -0.474609 -0.001953 -0.013851
v -0.462891 0.013672 -0.013851
v -0.490234 -0.001953 -0.009234
v -0.490234 0.044922 -0.009234
v -0.486328 -0.005859 -0.009234
v -0.482422 -0.001953 -0.009234
v -0.482422 0.044922 -0.009234
v -0.466797 0.017578 -0.009234
v -0.466797 0.029297 -0.009234
v -0.509766 0.033203 -0.004617
v -0.501953 0.041016 -0.004617
v -0.490234 0.009766 -0.004617
v -0.486328 0.009766 -0.004617
v -0.482422 0.037109 -0.004617
v -0.478516 0.013672 -0.004617
v -0.474609 0.017578 -0.004617
v -0.474609 0.029297 -0.004617
v -0.501953 0.033203 0.000000
v -0.498047 0.029297 0.000000
v -0.494141 0.029297 0.000000
vn -0.180346 -0.222706 -0.958059
vn 0.072190 -0.244624 -0.966927
vn 0.195611 -0.069423 -0.978221
vn 0.195533 0.216188 -0.956572
vn -0.366809 -0.093105 -0.925625
vn -0.227975 0.261947 -0.937769
vn -0.179636 -0.548742 -0.816464
vn 0.047525 -0.566307 -0.822823
vn 0.236643 0.482723 -0.843195
vn -0.517992 -0.092802 -0.850336
vn -0.502815 0.211156 -0.838207
vn -0.418623 -0.312980 -0.852525
vn -0.053358 0.751045 -0.658091
vn 0.360714 0.717367 -0.596045
vn 0.592732 0.362337 -0.719291
vn 0.348072 -0.204403 -0.914913
vn -0.665173 -0.328205 -0.670691
vn -0.452146 -0.474752 -0.755099
vn 0.544897 0.791840 -0.275822
vn 0.745499 0.605683 -0.278171
vn 0.531940 -0.822836 -0.199953
vn 0.970896 -0.210262 -0.114676
vn 0.261451 0.940093 -0.218789
vn -0.947836 0.287192 -0.138305
vn -0.473780 0.876079 -0.089546
vn -0.849424 -0.460529 -0.257668
vn 0.071886 0.997261 -0.017420
vn 0.602316 0.755014 0.259169
vn 0.759904 0.584559 0.284319
vn -0.915064 -0.383568 0.124634
vn -0.740263 -0.587773 -0.326394
vn -0.455641 -0.754233 -0.472782
vn 0.710274 0.245546 0.659710
vn -0.720235 -0.533638 0.443274
vn -0.058580 -0.968510 0.241984
vn 0.427252 0.872815 0.235902
vn 0.481202 -0.435750 0.760636
vn 0.538774 -0.299172 0.787540
vn -0.367817 -0.347031 0.862717
vn -0.019667 0.850914 0.524937
vn 0.000380 -0.404064 0.914731
vn 0.366333 -0.348520 0.862748
vn 0.249660 0.765584 0.592918
vn 0.499122 -0.165350 0.850610
vn 0.542318 0.300064 0.784763
vn -0.720239 0.039238 0.692616
vn -0.231171 0.632701 0.739086
vn -0.145971 -0.259744 0.954581
vn 0.058290 -0.214880 0.974899
vn 0.240661 0.355729 0.903072
vn 0.192967 -0.223926 0.955312
vn 0.324615 -0.149957 0.933883
vn 0.345616 0.178202 0.921300
vn -0.231128 0.111446 0.966519
vn -0.133039 -0.171415 0.976175
vn 0.092021 0.032537 0.995225
f 47//47 46//46 54//54
f 21//21 16//16 22//22
f 33//33 44//44 22//22
f 53//53 56//56 52//52
f 56//56 50//50 54//54
f 56//56 53//53 50//50
f 10//10 17//17 24//24
f 38//38 37//37 22//22
f 38//38 44//44 37//37
f 44//44 38//38 22//22
f 29//29 33//33 22//22
f 45//45 44//44 33//33
f 25//25 27//27 13//13
f 27//27 43//43 36//36
f 43//43 40//40 47//47
f 40//40 25//25 47//47
f 6//6 4//4 1//1
f 56//56 51//51 52//52
f 51//51 56//56 49//49
f 55//55 56//56 54//54
f 48//48 41//41 49//49
f 41//41 51//51 49//49
f 32//32 18//18 7//7
f 26//26 17//17 31//31
f 26//26 30//30 24//24
f 17//17 26//26 24//24
f 5//5 6//6 1//1
f 12//12 5//5 1//1
f 11//11 10//10 24//24
f 20//20 29//29 22//22
f 3//3 4//4 16//16
f 15//15 20//20 22//22
f 2//2 3//3 16//16
f 14//14 9//9 13//13
f 28//28 19//19 36//36
f 23//23 27//27 36//36
f 19//19 23//23 36//36
f 27//27 23//23 13//13
f 39//39 46//46 34//34
f 46//46 39//39 54//54
f 21//21 37//37 35//35
f 37//37 21//21 22//22
f 50//50 43//43 54//54
f 43//43 47//47 54//54
f 25//25 46//46 47//47
f 46//46 25//25 24//24
f 44//44 42//42 37//37
f 42//42 44//44 52//52
f 32//32 21//21 35//35
f 8//8 32//32 7//7
f 32//32 8//8 21//21
f 34//34 32//32 35//35
f 31//31 32//32 34//34
f 30//30 46//46 24//24
f 46//46 30//30 34//34
f 44//44 45//45 52//52
f 45//45 53//53 52//52
f 45//45 43//43 50//50
f 53//53 45//45 50//50
f 40//40 27//27 25//25
f 27//27 40//40 43//43
f 4//4 6//6 13//13
f 9//9 4//4 13//13
f 43//43 28//28 36//36
f 45//45 28//28 43//43
f 29//29 28//28 33//33
f 28//28 45//45 33//33
f 55//55 48//48 49//49
f 56//56 55//55 49//49
f 41//41 39//39 34//34
f 41//41 34//34 35//35
f 39//39 41//41 54//54
f 55//55 41//41 48//48
f 41//41 55//55 54//54
f 37//37 41//41 35//35
f 42//42 41//41 37//37
f 41//41 42//42 52//52
f 51//51 41//41 52//52
f 18//18 32//32 31//31
f 17//17 18//18 31//31
f 18//18 12//12 7//7
f 7//7 12//12 1//1
f 12//12 18//18 17//17
f 26//26 31//31 34//34
f 30//30 26//26 34//34
f 5//5 12//12 17//17
f 5//5 17//17 10//10
f 11//11 5//5 10//10
f 5//5 11//11 6//6
f 25//25 11//11 24//24
f 11//11 25//25 13//13
f 6//6 11//11 13//13
f 4//4 15//15 16//16
f 16//16 15//15 22//22
f 3//3 2//2 4//4
f 4//4 2//2 1//1
f 2//2 8//8 7//7
f 2//2 7//7 1//1
f 8//8 2//2 21//21
f 2//2 16//16 21//21
f 14//14 4//4 9//9
f 14//14 15//15 4//4
f 19//19 28//28 29//29
f 20//20 19//19 29//29
f 14//14 19//19 15//15
f 15//15 19//19 20//20
f 23//23 19//19 14//14
f 23//23 14//14 13//13
