# OBJ file
v 0.236328 -0.564453 0.013851
v 0.236328 -0.560547 0.013851
v 0.224609 -0.568359 0.018468
v 0.228516 -0.541016 0.018468
v 0.236328 -0.572266 0.018468
v 0.244141 -0.560547 0.018468
v 0.216797 -0.568359 0.023085
v 0.220703 -0.541016 0.023085
v 0.224609 -0.576172 0.023085
v 0.228516 -0.533203 0.023085
v 0.236328 -0.541016 0.023085
v 0.240234 -0.576172 0.023085
v 0.251953 -0.564453 0.023085
v 0.220703 -0.544922 0.027701
v 0.228516 -0.537109 0.027701
v 0.236328 -0.544922 0.027701
v 0.244141 -0.576172 0.027701
v 0.251953 -0.568359 0.027701
v 0.228516 -0.544922 0.032318
v 0.240234 -0.576172 0.032318
v 0.244141 -0.576172 0.032318
v 0.251953 -0.568359 0.032318
v 0.228516 -0.564453 0.036935
v 0.236328 -0.572266 0.036935
v 0.236328 -0.556641 0.036935
v 0.244141 -0.568359 0.036935
v 0.244141 -0.564453 0.036935
v 0.236328 -0.564453 0.041552
vn 0.091264 -0.196119 -0.976324
vn 0.099875 0.125106 -0.987104
vn -0.335035 -0.216355 -0.917029
vn -0.051087 0.309928 -0.949386
vn 0.119670 -0.525270 -0.842479
vn 0.490300 0.206626 -0.846706
vn -0.938398 -0.320696 -0.128698
vn -0.839441 0.483574 -0.247982
vn -0.475218 -0.865337 -0.159247
vn 0.000000 0.992518 -0.122100
vn 0.735447 0.650517 -0.189593
vn 0.242399 -0.832253 -0.498595
vn 0.894765 0.084214 -0.438525
vn -0.766602 0.272852 0.581269
vn -0.004783 0.639140 0.769075
vn 0.574616 0.521366 0.630868
vn 0.432967 -0.872704 -0.225673
vn 0.872704 -0.432967 -0.225673
vn -0.147374 0.366153 0.918811
vn -0.060947 -0.918335 0.391084
vn 0.358062 -0.829250 0.429111
vn 0.863115 -0.136114 0.486319
vn -0.545493 -0.169007 0.820898
vn -0.162169 -0.590515 0.790565
vn 0.359895 0.457540 0.813101
vn 0.370328 -0.247014 0.895456
vn 0.505373 0.274304 0.818142
vn 0.001349 -0.017330 0.999849
f 14//14 8//8 7//7
f 23//23 14//14 7//7
f 23//23 24//24 28//28
f 6//6 11//11 13//13
f 11//11 22//22 13//13
f 22//22 11//11 16//16
f 22//22 26//26 21//21
f 27//27 22//22 16//16
f 3//3 9//9 7//7
f 9//9 20//20 24//24
f 24//24 20//20 21//21
f 5//5 12//12 9//9
f 22//22 18//18 13//13
f 19//19 15//15 14//14
f 11//11 4//4 10//10
f 4//4 8//8 10//10
f 27//27 25//25 28//28
f 3//3 2//2 1//1
f 4//4 2//2 3//3
f 23//23 9//9 24//24
f 9//9 23//23 7//7
f 23//23 19//19 14//14
f 19//19 23//23 28//28
f 26//26 24//24 21//21
f 24//24 26//26 28//28
f 26//26 27//27 28//28
f 27//27 26//26 22//22
f 3//3 5//5 9//9
f 5//5 3//3 1//1
f 12//12 5//5 13//13
f 5//5 1//1 13//13
f 15//15 8//8 14//14
f 8//8 15//15 10//10
f 15//15 11//11 10//10
f 11//11 15//15 16//16
f 4//4 3//3 7//7
f 8//8 4//4 7//7
f 17//17 20//20 9//9
f 12//12 17//17 9//9
f 20//20 17//17 21//21
f 17//17 22//22 21//21
f 17//17 18//18 22//22
f 17//17 12//12 13//13
f 18//18 17//17 13//13
f 25//25 19//19 28//28
f 25//25 15//15 19//19
f 15//15 25//25 16//16
f 25//25 27//27 16//16
f 1//1 2//2 13//13
f 2//2 6//6 13//13
f 2//2 11//11 6//6
f 2//2 4//4 11//11
