# OBJ file
v -0.998047 0.982422 -0.013851
v -0.998047 0.990234 -0.013851
v -0.998047 0.974609 -0.009234
v -0.998047 0.998047 -0.009234
v -0.990234 0.970703 -0.009234
v -0.986328 0.970703 -0.009234
v -0.998047 0.970703 -0.004617
v -0.990234 0.962891 -0.004617
v -0.986328 0.962891 -0.004617
v -0.978516 0.970703 -0.004617
v -0.974609 0.998047 -0.004617
v -0.966797 0.998047 0.000000
v -0.986328 0.970703 0.004617
v -0.970703 0.986328 0.004617
v -0.982422 0.978516 0.009234
v -0.974609 0.986328 0.009234
v -0.998047 0.986328 0.013851
v -0.990234 0.978516 0.013851
v -0.998047 0.994141 0.018468
v -0.998047 0.998047 0.018468
v -0.990234 0.986328 0.018468
v -0.986328 0.998047 0.018468
v -0.994141 0.998047 0.023085
vn -0.578106 -0.087983 -0.811205
vn -0.557812 0.148794 -0.816521
vn -0.778275 -0.314144 -0.543692
vn -0.570192 0.678698 -0.462872
vn -0.089927 -0.401437 -0.911461
vn 0.247930 -0.269610 -0.930506
vn -0.855131 -0.518412 -0.000000
vn -0.304471 -0.943890 -0.127945
vn 0.325193 -0.935373 -0.139024
vn 0.790093 -0.549445 -0.271778
vn 0.284302 0.676821 -0.679033
vn 0.851308 0.508848 -0.127862
vn 0.303885 -0.660774 0.686318
vn 0.866951 -0.342036 0.362502
vn 0.477048 -0.518739 0.709462
vn 0.598287 -0.260041 0.757912
vn -0.833285 -0.292527 0.469110
vn -0.094456 -0.575363 0.812426
vn -0.835691 -0.192406 0.514393
vn -0.717284 0.630262 0.297109
vn 0.052815 -0.360067 0.931430
vn 0.371658 0.649503 0.663337
vn -0.128495 0.491074 0.861589
f 6//6 5//5 1//1
f 7//7 3//3 8//8
f 22//22 16//16 12//12
f 11//11 2//2 4//4
f 10//10 9//9 6//6
f 14//14 10//10 12//12
f 16//16 14//14 12//12
f 20//20 19//19 23//23
f 13//13 15//15 18//18
f 5//5 3//3 1//1
f 3//3 5//5 8//8
f 18//18 17//17 7//7
f 18//18 7//7 8//8
f 11//11 10//10 6//6
f 10//10 11//11 12//12
f 2//2 11//11 1//1
f 11//11 6//6 1//1
f 5//5 9//9 8//8
f 9//9 5//5 6//6
f 20//20 11//11 4//4
f 22//22 20//20 23//23
f 20//20 22//22 12//12
f 11//11 20//20 12//12
f 21//21 22//22 23//23
f 22//22 21//21 16//16
f 13//13 18//18 8//8
f 9//9 13//13 8//8
f 19//19 3//3 7//7
f 2//2 19//19 4//4
f 19//19 2//2 1//1
f 3//3 19//19 1//1
f 17//17 19//19 7//7
f 19//19 20//20 4//4
f 18//18 19//19 17//17
f 19//19 21//21 23//23
f 21//21 19//19 18//18
f 15//15 9//9 10//10
f 14//14 15//15 10//10
f 15//15 14//14 16//16
f 15//15 13//13 9//9
f 21//21 15//15 16//16
f 15//15 21//21 18//18
