# OBJ file
v 0.123047 0.697266 -0.036935
v 0.115234 0.697266 -0.032318
v 0.123047 0.689453 -0.032318
v 0.123047 0.705078 -0.032318
v 0.130859 0.697266 -0.032318
v 0.099609 0.716797 -0.027701
v 0.103516 0.705078 -0.027701
v 0.138672 0.681641 -0.027701
v 0.091797 0.720703 -0.023085
v 0.095703 0.705078 -0.023085
v 0.099609 0.724609 -0.023085
v 0.103516 0.693359 -0.023085
v 0.111328 0.685547 -0.023085
v 0.119141 0.716797 -0.023085
v 0.134766 0.701172 -0.023085
v 0.138672 0.673828 -0.023085
v 0.146484 0.681641 -0.023085
v 0.083984 0.716797 -0.018468
v 0.083984 0.720703 -0.018468
v 0.091797 0.728516 -0.018468
v 0.123047 0.673828 -0.018468
v 0.126953 0.712891 -0.018468
v 0.130859 0.669922 -0.018468
v 0.134766 0.705078 -0.018468
v 0.083984 0.708984 -0.013851
v 0.091797 0.701172 -0.013851
v 0.126953 0.669922 -0.013851
v 0.138672 0.669922 -0.013851
v 0.146484 0.677734 -0.013851
v 0.146484 0.685547 -0.013851
v 0.130859 0.708984 -0.009234
v 0.083984 0.708984 -0.004617
v 0.091797 0.701172 -0.004617
v 0.099609 0.732422 -0.004617
v 0.126953 0.677734 -0.004617
v 0.134766 0.677734 -0.004617
v 0.138672 0.693359 -0.004617
v 0.142578 0.685547 -0.004617
v 0.080078 0.716797 0.000000
v 0.080078 0.720703 0.000000
v 0.134766 0.685547 0.000000
v 0.080078 0.724609 0.004617
v 0.083984 0.712891 0.004617
v 0.087891 0.732422 0.004617
v 0.091797 0.705078 0.004617
v 0.107422 0.732422 0.004617
v 0.115234 0.724609 0.004617
v 0.080078 0.724609 0.009234
v 0.087891 0.732422 0.009234
v 0.103516 0.732422 0.009234
v 0.115234 0.720703 0.009234
v 0.095703 0.732422 0.013851
v 0.103516 0.728516 0.013851
v 0.111328 0.697266 0.013851
v 0.111328 0.720703 0.013851
v 0.119141 0.705078 0.013851
v 0.087891 0.716797 0.018468
v 0.095703 0.708984 0.018468
v 0.103516 0.720703 0.018468
v 0.111328 0.705078 0.018468
v 0.095703 0.716797 0.023085
vn 0.020007 -0.015138 -0.999685
vn -0.427687 -0.314735 -0.847364
vn -0.215569 -0.477148 -0.851974
vn 0.347604 0.526100 -0.776138
vn 0.556462 0.310051 -0.770856
vn -0.227512 0.191838 -0.954692
vn -0.430441 -0.175660 -0.885361
vn 0.277306 -0.277306 -0.919893
vn -0.370328 0.247014 -0.895456
vn -0.520503 -0.282671 -0.805713
vn 0.086417 0.684694 -0.723690
vn -0.580796 -0.520273 -0.626093
vn -0.542410 -0.629679 -0.556144
vn 0.426735 0.718883 -0.548729
vn 0.677475 0.503609 -0.536102
vn 0.306119 -0.671417 -0.674900
vn 0.842686 -0.105772 -0.527914
vn -0.770155 -0.111731 -0.627995
vn -0.755934 0.290494 -0.586666
vn -0.277795 0.778519 -0.562794
vn -0.508024 -0.727983 -0.460383
vn 0.649526 0.697904 -0.301738
vn -0.106621 -0.875404 -0.471487
vn 0.766624 0.599112 -0.230982
vn -0.819514 -0.459774 -0.342060
vn -0.685548 -0.710190 -0.160166
vn -0.314679 -0.927671 0.201007
vn 0.402999 -0.889936 0.213554
vn 0.858552 -0.459298 0.227890
vn 0.951022 0.275745 0.139717
vn 0.775855 0.600971 0.192048
vn -0.784639 -0.604576 0.137222
vn -0.656996 -0.729841 0.188914
vn 0.120119 0.960577 -0.250725
vn -0.071774 -0.678143 0.731417
vn 0.234847 -0.573543 0.784790
vn 0.775592 0.426028 0.465787
vn 0.720839 -0.033920 0.692272
vn -0.961076 -0.266599 0.072508
vn -0.984580 0.088901 -0.150658
vn 0.354032 -0.329646 0.875212
vn -0.905735 0.411544 -0.101371
vn -0.747176 -0.550521 0.372365
vn -0.407668 0.906777 -0.107524
vn -0.609789 -0.690375 0.389281
vn 0.445709 0.886219 0.126329
vn 0.707855 0.633514 0.312411
vn -0.864454 0.251356 0.435362
vn -0.414246 0.829086 0.375522
vn 0.294590 0.881070 0.370043
vn 0.676960 0.457636 0.576449
vn -0.052918 0.800532 0.596950
vn 0.399164 0.539197 0.741576
vn -0.107242 -0.602276 0.791052
vn 0.539197 0.399164 0.741576
vn 0.568018 0.109364 0.815718
vn -0.635178 -0.154735 0.756708
vn -0.404853 -0.589434 0.699043
vn 0.341049 0.329643 0.880353
vn 0.221308 -0.163200 0.961451
vn -0.124209 0.045344 0.991219
f 58//58 45//45 27//27
f 16//16 8//8 17//17
f 51//51 56//56 38//38
f 11//11 20//20 34//34
f 20//20 44//44 34//34
f 25//25 32//32 39//39
f 28//28 23//23 16//16
f 23//23 28//28 27//27
f 57//57 58//58 61//61
f 5//5 15//15 17//17
f 37//37 31//31 47//47
f 51//51 37//37 47//47
f 37//37 51//51 38//38
f 15//15 24//24 17//17
f 46//46 14//14 34//34
f 14//14 11//11 34//34
f 51//51 55//55 56//56
f 54//54 58//58 27//27
f 45//45 33//33 27//27
f 23//23 3//3 16//16
f 21//21 23//23 27//27
f 21//21 3//3 23//23
f 3//3 21//21 13//13
f 32//32 43//43 39//39
f 30//30 24//24 31//31
f 37//37 30//30 31//31
f 30//30 37//37 38//38
f 24//24 30//30 17//17
f 22//22 14//14 46//46
f 4//4 5//5 1//1
f 14//14 4//4 11//11
f 60//60 59//59 61//61
f 35//35 54//54 27//27
f 18//18 25//25 39//39
f 33//33 26//26 27//27
f 26//26 21//21 27//27
f 21//21 26//26 13//13
f 53//53 50//50 52//52
f 53//53 59//59 55//55
f 35//35 36//36 54//54
f 10//10 12//12 25//25
f 18//18 10//10 25//25
f 12//12 10//10 2//2
f 41//41 36//36 38//38
f 42//42 19//19 40//40
f 7//7 6//6 1//1
f 28//28 16//16 17//17
f 29//29 28//28 17//17
f 5//5 8//8 1//1
f 8//8 5//5 17//17
f 48//48 52//52 49//49
f 57//57 52//52 48//48
f 52//52 57//57 61//61
f 54//54 60//60 61//61
f 58//58 54//54 61//61
f 42//42 40//40 39//39
f 48//48 42//42 39//39
f 44//44 42//42 49//49
f 42//42 48//48 49//49
f 8//8 3//3 1//1
f 3//3 8//8 16//16
f 57//57 43//43 58//58
f 43//43 45//45 58//58
f 33//33 43//43 32//32
f 43//43 33//33 45//45
f 43//43 48//48 39//39
f 43//43 57//57 48//48
f 29//29 30//30 38//38
f 30//30 29//29 17//17
f 24//24 22//22 31//31
f 31//31 22//22 47//47
f 22//22 46//46 47//47
f 4//4 24//24 15//15
f 5//5 4//4 15//15
f 22//22 4//4 14//14
f 4//4 22//22 24//24
f 50//50 44//44 49//49
f 44//44 50//50 34//34
f 50//50 46//46 34//34
f 52//52 50//50 49//49
f 55//55 59//59 56//56
f 59//59 60//60 56//56
f 3//3 12//12 1//1
f 12//12 3//3 13//13
f 12//12 2//2 1//1
f 26//26 33//33 32//32
f 26//26 32//32 25//25
f 26//26 12//12 13//13
f 12//12 26//26 25//25
f 46//46 53//53 47//47
f 53//53 55//55 51//51
f 53//53 51//51 47//47
f 50//50 53//53 46//46
f 53//53 52//52 61//61
f 59//59 53//53 61//61
f 36//36 29//29 38//38
f 36//36 28//28 29//29
f 28//28 36//36 27//27
f 36//36 35//35 27//27
f 60//60 41//41 56//56
f 56//56 41//41 38//38
f 54//54 41//41 60//60
f 36//36 41//41 54//54
f 9//9 19//19 20//20
f 19//19 42//42 44//44
f 20//20 19//19 44//44
f 40//40 19//19 39//39
f 19//19 18//18 39//39
f 6//6 19//19 9//9
f 19//19 6//6 18//18
f 4//4 6//6 11//11
f 6//6 4//4 1//1
f 6//6 9//9 20//20
f 6//6 20//20 11//11
f 2//2 7//7 1//1
f 10//10 7//7 2//2
f 6//6 7//7 18//18
f 7//7 10//10 18//18
