# OBJ file
v -0.587891 0.705078 -0.009234
v -0.611328 0.697266 -0.004617
v -0.603516 0.708984 -0.004617
v -0.587891 0.697266 -0.004617
v -0.587891 0.712891 -0.004617
v -0.580078 0.705078 -0.004617
v -0.619141 0.697266 0.000000
v -0.611328 0.689453 0.000000
v -0.611328 0.708984 0.000000
v -0.603516 0.689453 0.000000
v -0.603516 0.716797 0.000000
v -0.587891 0.693359 0.000000
v -0.583984 0.716797 0.000000
v -0.576172 0.708984 0.000000
v -0.623047 0.701172 0.004617
v -0.591797 0.689453 0.004617
v -0.583984 0.693359 0.004617
v -0.576172 0.701172 0.004617
v -0.623047 0.697266 0.009234
v -0.615234 0.689453 0.009234
v -0.607422 0.685547 0.009234
v -0.587891 0.689453 0.009234
v -0.572266 0.705078 0.009234
v -0.572266 0.708984 0.009234
v -0.626953 0.705078 0.013851
v -0.623047 0.697266 0.013851
v -0.615234 0.716797 0.013851
v -0.611328 0.685547 0.013851
v -0.591797 0.720703 0.013851
v -0.583984 0.720703 0.013851
v -0.603516 0.720703 0.018468
v -0.580078 0.720703 0.018468
v -0.572266 0.705078 0.018468
v -0.572266 0.712891 0.018468
v -0.587891 0.685547 0.023085
v -0.580078 0.693359 0.023085
v -0.619141 0.693359 0.027701
v -0.619141 0.708984 0.027701
v -0.611328 0.685547 0.027701
v -0.611328 0.716797 0.027701
v -0.603516 0.685547 0.032318
v -0.591797 0.720703 0.032318
v -0.619141 0.697266 0.036935
v -0.619141 0.705078 0.036935
v -0.611328 0.689453 0.036935
v -0.607422 0.716797 0.036935
v -0.587891 0.689453 0.036935
v -0.580078 0.697266 0.036935
v -0.580078 0.716797 0.036935
v -0.572266 0.708984 0.036935
v -0.611328 0.705078 0.041552
v -0.607422 0.708984 0.041552
v -0.603516 0.689453 0.041552
v -0.587891 0.697266 0.041552
v -0.580078 0.708984 0.041552
v -0.603516 0.697266 0.046169
vn 0.170842 0.017782 -0.985138
vn -0.286273 -0.131070 -0.949141
vn -0.264746 0.321941 -0.908991
vn 0.299961 -0.555426 -0.775581
vn 0.133070 0.528730 -0.838294
vn 0.593932 -0.104919 -0.797645
vn -0.652697 -0.225151 -0.723390
vn -0.307014 -0.712454 -0.630992
vn -0.507228 0.445972 -0.737447
vn 0.060376 -0.731075 -0.679620
vn -0.251805 0.748239 -0.613786
vn 0.382048 -0.716063 -0.584203
vn 0.327057 0.756572 -0.566245
vn 0.749123 0.257568 -0.610306
vn -0.793540 0.091921 -0.601535
vn 0.249795 -0.868776 -0.427588
vn 0.585218 -0.712857 -0.386465
vn 0.746729 -0.529522 -0.402495
vn -0.818173 -0.540463 -0.196194
vn -0.654372 -0.733928 -0.182063
vn -0.053174 -0.967018 -0.249097
vn 0.420396 -0.849909 -0.317682
vn 0.930515 -0.288771 -0.225285
vn 0.914063 0.298205 -0.274888
vn -0.967735 0.227759 -0.107770
vn -0.822823 -0.566307 0.047525
vn -0.560100 0.809746 -0.174924
vn -0.384571 -0.919694 -0.079175
vn -0.014570 0.986583 -0.162607
vn 0.114160 0.973993 -0.195715
vn -0.184658 0.982344 -0.030025
vn 0.438552 0.897392 -0.048578
vn 0.952888 -0.301554 0.032704
vn 0.891296 0.449507 -0.059452
vn 0.407619 -0.912961 0.018685
vn 0.757014 -0.652130 0.040689
vn -0.782592 -0.597160 0.175928
vn -0.703459 0.650827 0.285605
vn -0.397232 -0.902432 0.166804
vn -0.521694 0.823044 0.224575
vn -0.029759 -0.960696 0.276004
vn 0.011326 0.927687 0.373186
vn -0.734923 -0.297830 0.609249
vn -0.720961 0.293789 0.627617
vn -0.453251 -0.678175 0.578482
vn -0.313122 0.738680 0.596914
vn 0.402059 -0.721751 0.563404
vn 0.652759 -0.511175 0.559112
vn 0.361360 0.723203 0.588554
vn 0.851875 0.076906 0.518068
vn -0.387947 0.211362 0.897120
vn -0.195093 0.376241 0.905749
vn -0.084157 -0.671876 0.735867
vn 0.306614 -0.314008 0.898547
vn 0.284297 0.131406 0.949688
vn -0.105306 -0.137029 0.984954
f 2//2 3//3 1//1
f 26//26 37//37 25//25
f 37//37 43//43 25//25
f 49//49 55//55 50//50
f 46//46 49//49 42//42
f 55//55 52//52 56//56
f 52//52 51//51 56//56
f 8//8 10//10 21//21
f 28//28 8//8 21//21
f 6//6 4//4 1//1
f 31//31 46//46 42//42
f 27//27 31//31 11//11
f 44//44 38//38 25//25
f 43//43 44//44 25//25
f 49//49 32//32 42//42
f 35//35 22//22 17//17
f 48//48 36//36 50//50
f 36//36 18//18 23//23
f 54//54 55//55 56//56
f 48//48 54//54 47//47
f 20//20 8//8 28//28
f 8//8 7//7 2//2
f 31//31 40//40 46//46
f 40//40 31//31 27//27
f 31//31 29//29 11//11
f 41//41 35//35 47//47
f 53//53 41//41 47//47
f 4//4 12//12 10//10
f 33//33 36//36 23//23
f 36//36 33//33 50//50
f 19//19 15//15 7//7
f 15//15 19//19 25//25
f 19//19 26//26 25//25
f 14//14 24//24 23//23
f 12//12 16//16 10//10
f 10//10 16//16 21//21
f 16//16 35//35 21//21
f 16//16 22//22 35//35
f 32//32 13//13 30//30
f 15//15 9//9 7//7
f 45//45 37//37 39//39
f 37//37 45//45 43//43
f 49//49 52//52 55//55
f 52//52 49//49 46//46
f 8//8 4//4 10//10
f 4//4 2//2 1//1
f 4//4 8//8 2//2
f 45//45 53//53 43//43
f 43//43 53//53 56//56
f 44//44 52//52 46//46
f 52//52 44//44 51//51
f 44//44 43//43 56//56
f 51//51 44//44 56//56
f 34//34 32//32 50//50
f 32//32 49//49 50//50
f 36//36 48//48 47//47
f 35//35 36//36 47//47
f 18//18 36//36 17//17
f 36//36 35//35 17//17
f 53//53 54//54 56//56
f 54//54 53//53 47//47
f 54//54 48//48 50//50
f 55//55 54//54 50//50
f 40//40 27//27 25//25
f 38//38 40//40 25//25
f 44//44 40//40 38//38
f 40//40 44//44 46//46
f 29//29 32//32 30//30
f 29//29 31//31 42//42
f 32//32 29//29 42//42
f 28//28 41//41 39//39
f 41//41 28//28 21//21
f 35//35 41//41 21//21
f 41//41 45//45 39//39
f 41//41 53//53 45//45
f 5//5 3//3 11//11
f 3//3 5//5 1//1
f 18//18 12//12 6//6
f 12//12 18//18 17//17
f 12//12 4//4 6//6
f 33//33 34//34 50//50
f 33//33 24//24 34//34
f 24//24 33//33 23//23
f 19//19 37//37 26//26
f 19//19 28//28 39//39
f 37//37 19//19 39//39
f 19//19 20//20 28//28
f 20//20 19//19 8//8
f 19//19 7//7 8//8
f 14//14 18//18 6//6
f 18//18 14//14 23//23
f 16//16 12//12 17//17
f 22//22 16//16 17//17
f 13//13 32//32 34//34
f 24//24 13//13 34//34
f 14//14 13//13 24//24
f 13//13 29//29 30//30
f 29//29 13//13 11//11
f 5//5 13//13 1//1
f 13//13 6//6 1//1
f 13//13 14//14 6//6
f 13//13 5//5 11//11
f 9//9 27//27 11//11
f 27//27 9//9 25//25
f 9//9 15//15 25//25
f 7//7 9//9 2//2
f 9//9 3//3 2//2
f 3//3 9//9 11//11
