# OBJ file
v -0.919922 0.994141 -0.027701
v -0.916016 0.994141 -0.027701
v -0.873047 0.998047 -0.027701
v -0.927734 0.994141 -0.023085
v -0.923828 0.998047 -0.023085
v -0.869141 0.986328 -0.023085
v -0.865234 0.994141 -0.023085
v -0.865234 0.998047 -0.023085
v -0.869141 0.978516 -0.018468
v -0.861328 0.986328 -0.018468
v -0.857422 0.994141 -0.018468
v -0.923828 0.998047 -0.013851
v -0.853516 0.994141 -0.013851
v -0.943359 0.955078 -0.009234
v -0.865234 0.982422 -0.009234
v -0.857422 0.990234 -0.009234
v -0.853516 0.998047 -0.009234
v -0.951172 0.955078 -0.004617
v -0.869141 0.982422 -0.004617
v -0.857422 0.994141 -0.004617
v -0.958984 0.962891 0.000000
v -0.951172 0.947266 0.000000
v -0.943359 0.939453 0.000000
v -0.912109 0.998047 0.000000
v -0.876953 0.982422 0.000000
v -0.869141 0.998047 0.000000
v -0.865234 0.994141 0.000000
v -0.955078 0.958984 0.004617
v -0.904297 0.998047 0.004617
v -0.876953 0.990234 0.004617
v -0.951172 0.970703 0.013851
v -0.943359 0.978516 0.013851
v -0.943359 0.970703 0.018468
vn -0.160789 0.168437 -0.972510
vn 0.005616 -0.194277 -0.980931
vn 0.143038 0.567537 -0.810828
vn -0.689117 0.423735 -0.587849
vn -0.374994 0.834160 -0.404422
vn 0.241450 -0.337247 -0.909927
vn 0.425744 -0.115327 -0.897464
vn 0.343661 0.706268 -0.618937
vn 0.440381 -0.766831 -0.466943
vn 0.657797 -0.547989 -0.516732
vn 0.635877 0.115114 -0.763158
vn -0.383272 0.918154 0.100478
vn 0.954558 -0.095533 -0.282298
vn -0.241518 -0.317856 -0.916862
vn 0.618408 -0.725535 0.301945
vn 0.723617 -0.615146 0.313006
vn 0.803291 0.553119 0.220871
vn -0.528857 -0.257228 -0.808791
vn 0.464069 -0.595782 0.655503
vn 0.628816 -0.116911 0.768714
vn -0.983771 0.054175 -0.171052
vn -0.754873 -0.655854 -0.004710
vn -0.154645 -0.987453 0.031948
vn -0.182074 0.940761 0.286038
vn 0.351425 -0.479832 0.803904
vn 0.166784 0.780170 0.602925
vn 0.409399 0.007388 0.912325
vn -0.667138 -0.358517 0.652987
vn -0.001995 0.802189 0.597068
vn 0.255813 -0.050257 0.965419
vn -0.740037 0.254401 0.622596
vn -0.469199 0.687476 0.554282
vn -0.131518 -0.049561 0.990074
f 22//22 28//28 21//21
f 5//5 3//3 1//1
f 32//32 31//31 33//33
f 28//28 31//31 21//21
f 30//30 29//29 33//33
f 29//29 32//32 33//33
f 18//18 22//22 21//21
f 6//6 10//10 9//9
f 9//9 15//15 23//23
f 15//15 19//19 23//23
f 19//19 25//25 23//23
f 4//4 5//5 1//1
f 4//4 18//18 21//21
f 10//10 11//11 13//13
f 3//3 2//2 1//1
f 6//6 2//2 3//3
f 2//2 6//6 14//14
f 2//2 14//14 1//1
f 26//26 29//29 30//30
f 24//24 12//12 32//32
f 29//29 24//24 32//32
f 7//7 6//6 3//3
f 27//27 26//26 30//30
f 22//22 31//31 28//28
f 33//33 31//31 23//23
f 31//31 22//22 23//23
f 22//22 18//18 23//23
f 18//18 14//14 23//23
f 14//14 6//6 23//23
f 6//6 9//9 23//23
f 25//25 33//33 23//23
f 25//25 30//30 33//33
f 18//18 4//4 14//14
f 14//14 4//4 1//1
f 4//4 12//12 5//5
f 12//12 31//31 32//32
f 31//31 12//12 21//21
f 12//12 4//4 21//21
f 10//10 16//16 9//9
f 16//16 10//10 13//13
f 16//16 15//15 9//9
f 16//16 20//20 19//19
f 15//15 16//16 19//19
f 7//7 11//11 10//10
f 6//6 7//7 10//10
f 25//25 27//27 30//30
f 27//27 25//25 19//19
f 20//20 27//27 19//19
f 17//17 16//16 13//13
f 16//16 17//17 20//20
f 17//17 27//27 20//20
f 27//27 17//17 26//26
f 12//12 8//8 5//5
f 5//5 8//8 3//3
f 26//26 8//8 29//29
f 24//24 8//8 12//12
f 8//8 24//24 29//29
f 17//17 8//8 26//26
f 7//7 8//8 11//11
f 8//8 7//7 3//3
f 8//8 17//17 13//13
f 11//11 8//8 13//13
