# OBJ file
v -0.333984 -0.001953 -0.046169
v -0.330078 -0.005859 -0.046169
v -0.322266 -0.005859 -0.046169
v -0.322266 0.005859 -0.046169
v -0.318359 0.001953 -0.046169
v -0.341797 -0.001953 -0.041552
v -0.337891 0.005859 -0.041552
v -0.322266 -0.013672 -0.041552
v -0.322266 0.013672 -0.041552
v -0.310547 -0.001953 -0.041552
v -0.310547 0.009766 -0.041552
v -0.306641 0.005859 -0.041552
v -0.345703 0.005859 -0.036935
v -0.330078 0.021484 -0.036935
v -0.310547 -0.009766 -0.036935
v -0.310547 0.017578 -0.036935
v -0.302734 -0.001953 -0.036935
v -0.353516 -0.001953 -0.032318
v -0.353516 0.001953 -0.032318
v -0.337891 0.021484 -0.032318
v -0.330078 -0.029297 -0.032318
v -0.330078 0.029297 -0.032318
v -0.302734 -0.005859 -0.032318
v -0.298828 0.013672 -0.032318
v -0.291016 0.005859 -0.032318
v -0.357422 0.001953 -0.027701
v -0.345703 0.013672 -0.027701
v -0.341797 -0.025391 -0.027701
v -0.333984 -0.033203 -0.027701
v -0.353516 -0.005859 -0.023085
v -0.330078 -0.029297 -0.023085
v -0.298828 0.013672 -0.023085
v -0.291016 0.005859 -0.023085
v -0.353516 -0.001953 -0.018468
v -0.353516 0.001953 -0.018468
v -0.345703 0.009766 -0.018468
v -0.341797 -0.017578 -0.018468
v -0.333984 -0.025391 -0.018468
v -0.306641 0.017578 -0.018468
v -0.302734 -0.009766 -0.018468
v -0.294922 -0.001953 -0.018468
v -0.294922 0.005859 -0.018468
v -0.349609 0.001953 -0.013851
v -0.341797 0.009766 -0.013851
v -0.333984 0.013672 -0.013851
v -0.330078 -0.021484 -0.013851
v -0.326172 0.013672 -0.013851
v -0.322266 -0.017578 -0.013851
v -0.306641 0.009766 -0.013851
v -0.302734 -0.001953 -0.013851
v -0.302734 0.005859 -0.013851
v -0.341797 0.001953 -0.009234
v -0.337891 -0.005859 -0.009234
v -0.333984 0.005859 -0.009234
v -0.326172 0.005859 -0.009234
v -0.322266 -0.009766 -0.009234
v -0.330078 -0.005859 -0.004617
v -0.330078 -0.001953 -0.004617
vn -0.297321 -0.036388 -0.954084
vn -0.155926 -0.274881 -0.948750
vn 0.169834 -0.263385 -0.949624
vn 0.008833 0.258139 -0.966067
vn 0.218042 0.008637 -0.975901
vn -0.480114 -0.108495 -0.870471
vn -0.356248 0.321869 -0.877205
vn 0.242230 -0.491202 -0.836687
vn 0.077661 0.458170 -0.885465
vn 0.400412 -0.292101 -0.868532
vn 0.273005 0.367788 -0.888932
vn 0.398023 0.101871 -0.911702
vn -0.504957 0.333054 -0.796299
vn -0.209079 0.423952 -0.881221
vn 0.500807 -0.554582 -0.664553
vn 0.331586 0.633230 -0.699336
vn 0.509378 -0.417549 -0.752454
vn -0.707238 -0.271556 -0.652742
vn -0.630074 0.231690 -0.741166
vn -0.632853 0.622705 -0.460146
vn 0.173414 -0.726582 -0.664836
vn -0.178731 0.968102 -0.175598
vn 0.631156 -0.661935 -0.404331
vn 0.559250 0.715361 -0.418925
vn 0.885539 0.056314 -0.461139
vn -0.974376 0.181257 -0.133184
vn -0.680104 0.709442 0.184801
vn -0.732827 -0.659863 -0.165967
vn -0.184682 -0.978409 -0.092779
vn -0.845948 -0.485975 0.219547
vn 0.304515 -0.784301 0.540502
vn 0.602316 0.755014 0.259169
vn 0.939378 0.185710 0.288238
vn -0.759151 -0.255742 0.598569
vn -0.774885 0.330026 0.539107
vn -0.597157 0.656193 0.461319
vn -0.557567 -0.475479 0.680470
vn -0.313006 -0.615146 0.723617
vn 0.350019 0.761180 0.545979
vn 0.611957 -0.702365 0.363582
vn 0.761790 -0.460357 0.455794
vn 0.582882 0.270577 0.766183
vn -0.578328 0.151677 0.801580
vn -0.403129 0.571435 0.714807
vn -0.162759 0.606871 0.777957
vn -0.020900 -0.562161 0.826764
vn 0.026394 0.573323 0.818904
vn 0.325202 -0.554905 0.765718
vn 0.245757 0.365588 0.897746
vn 0.371197 -0.196441 0.907537
vn 0.364336 0.189595 0.911764
vn -0.370121 0.138471 0.918606
vn -0.442564 -0.318592 0.838234
vn -0.115327 0.425744 0.897464
vn 0.054844 0.431984 0.900212
vn 0.284188 -0.383720 0.878633
vn -0.062253 -0.234622 0.970091
vn -0.021309 0.161302 0.986675
f 30//30 34//34 26//26
f 18//18 28//28 26//26
f 28//28 30//30 26//26
f 21//21 8//8 15//15
f 23//23 21//21 15//15
f 27//27 36//36 22//22
f 36//36 44//44 22//22
f 24//24 16//16 22//22
f 33//33 41//41 25//25
f 37//37 53//53 34//34
f 21//21 40//40 29//29
f 23//23 40//40 21//21
f 6//6 19//19 13//13
f 19//19 6//6 18//18
f 19//19 18//18 26//26
f 20//20 19//19 26//26
f 19//19 20//20 13//13
f 34//34 35//35 26//26
f 16//16 9//9 22//22
f 58//58 52//52 57//57
f 33//33 42//42 41//41
f 40//40 31//31 29//29
f 43//43 52//52 44//44
f 43//43 35//35 34//34
f 53//53 43//43 34//34
f 49//49 58//58 51//51
f 31//31 48//48 46//46
f 48//48 31//31 40//40
f 50//50 40//40 41//41
f 56//56 50//50 57//57
f 49//49 55//55 58//58
f 44//44 45//45 22//22
f 58//58 54//54 52//52
f 37//37 28//28 38//38
f 38//38 28//28 29//29
f 30//30 28//28 34//34
f 28//28 37//37 34//34
f 2//2 8//8 21//21
f 8//8 2//2 3//3
f 17//17 23//23 15//15
f 23//23 17//17 25//25
f 20//20 27//27 22//22
f 27//27 20//20 26//26
f 7//7 6//6 13//13
f 6//6 7//7 1//1
f 6//6 2//2 21//21
f 6//6 21//21 29//29
f 28//28 6//6 29//29
f 2//2 6//6 1//1
f 6//6 28//28 18//18
f 53//53 37//37 38//38
f 46//46 53//53 38//38
f 53//53 46//46 57//57
f 40//40 23//23 25//25
f 41//41 40//40 25//25
f 14//14 20//20 22//22
f 20//20 14//14 13//13
f 14//14 7//7 13//13
f 14//14 4//4 1//1
f 7//7 14//14 1//1
f 35//35 27//27 26//26
f 35//35 36//36 27//27
f 9//9 14//14 22//22
f 14//14 9//9 4//4
f 5//5 2//2 1//1
f 4//4 5//5 1//1
f 2//2 5//5 3//3
f 10//10 17//17 15//15
f 8//8 10//10 15//15
f 10//10 8//8 3//3
f 5//5 10//10 3//3
f 10//10 5//5 12//12
f 17//17 10//10 25//25
f 10//10 12//12 25//25
f 11//11 16//16 24//24
f 11//11 24//24 25//25
f 12//12 11//11 25//25
f 9//9 11//11 4//4
f 11//11 9//9 16//16
f 11//11 5//5 4//4
f 5//5 11//11 12//12
f 39//39 32//32 22//22
f 32//32 24//24 22//22
f 24//24 32//32 25//25
f 32//32 33//33 25//25
f 42//42 32//32 39//39
f 32//32 42//42 33//33
f 31//31 46//46 38//38
f 31//31 38//38 29//29
f 35//35 43//43 36//36
f 36//36 43//43 44//44
f 43//43 53//53 57//57
f 52//52 43//43 57//57
f 42//42 49//49 51//51
f 49//49 42//42 39//39
f 46//46 48//48 57//57
f 48//48 56//56 57//57
f 48//48 50//50 56//56
f 50//50 48//48 40//40
f 58//58 50//50 51//51
f 50//50 58//58 57//57
f 50//50 42//42 51//51
f 42//42 50//50 41//41
f 55//55 49//49 39//39
f 47//47 55//55 39//39
f 45//45 39//39 22//22
f 45//45 47//47 39//39
f 54//54 55//55 47//47
f 55//55 54//54 58//58
f 45//45 54//54 47//47
f 52//52 54//54 44//44
f 54//54 45//45 44//44
