# OBJ file
v -0.900391 0.482422 -0.032318
v -0.896484 0.478516 -0.032318
v -0.888672 0.494141 -0.032318
v -0.880859 0.494141 -0.032318
v -0.880859 0.498047 -0.032318
v -0.908203 0.482422 -0.027701
v -0.904297 0.490234 -0.027701
v -0.896484 0.470703 -0.027701
v -0.880859 0.505859 -0.027701
v -0.912109 0.490234 -0.023085
v -0.900391 0.478516 -0.023085
v -0.900391 0.505859 -0.023085
v -0.880859 0.478516 -0.023085
v -0.873047 0.505859 -0.023085
v -0.865234 0.494141 -0.023085
v -0.865234 0.498047 -0.023085
v -0.908203 0.505859 -0.018468
v -0.900391 0.513672 -0.018468
v -0.892578 0.478516 -0.018468
v -0.876953 0.482422 -0.018468
v -0.865234 0.494141 -0.018468
v -0.904297 0.505859 -0.013851
v -0.900391 0.494141 -0.013851
v -0.880859 0.482422 -0.013851
v -0.873047 0.490234 -0.013851
v -0.892578 0.494141 -0.009234
v -0.880859 0.490234 -0.009234
v -0.892578 0.517578 -0.004617
v -0.884766 0.525391 -0.004617
v -0.876953 0.517578 -0.004617
v -0.884766 0.517578 0.000000
vn -0.304296 -0.055865 -0.950938
vn 0.000000 -0.330784 -0.943707
vn -0.138591 0.199406 -0.970067
vn 0.274881 -0.155926 -0.948750
vn 0.158154 0.247277 -0.955951
vn -0.845356 -0.422104 -0.327417
vn -0.381683 0.278268 -0.881411
vn -0.145376 -0.973778 -0.174989
vn 0.137339 0.555899 -0.819826
vn -0.995496 -0.092359 -0.021378
vn -0.477048 -0.518739 0.709462
vn -0.308544 0.383286 -0.870570
vn 0.528972 -0.813095 -0.243035
vn 0.513804 0.606965 -0.606299
vn 0.822714 -0.323411 -0.467491
vn 0.859983 0.293741 -0.417307
vn -0.912079 0.401955 -0.080898
vn -0.494836 0.755179 -0.429932
vn -0.205311 -0.565653 0.798676
vn 0.615146 -0.723617 0.313006
vn 0.873995 -0.271896 0.402748
vn -0.603718 0.019167 0.796967
vn -0.447151 -0.273597 0.851587
vn 0.233986 -0.637237 0.734289
vn 0.523322 -0.389972 0.757664
vn -0.292124 -0.307275 0.905674
vn 0.165820 -0.347482 0.922908
vn -0.637996 0.348346 0.686743
vn 0.059680 0.974996 0.214057
vn 0.786678 0.418675 0.453705
vn 0.005925 0.117091 0.993103
f 31//31 30//30 29//29
f 28//28 31//31 29//29
f 23//23 22//22 10//10
f 14//14 9//9 29//29
f 25//25 27//27 24//24
f 26//26 27//27 31//31
f 25//25 21//21 30//30
f 21//21 16//16 30//30
f 16//16 21//21 15//15
f 19//19 8//8 24//24
f 8//8 19//19 11//11
f 12//12 17//17 18//18
f 22//22 17//17 10//10
f 28//28 17//17 22//22
f 3//3 12//12 5//5
f 8//8 13//13 24//24
f 13//13 20//20 24//24
f 23//23 28//28 22//22
f 23//23 26//26 31//31
f 28//28 23//23 31//31
f 16//16 14//14 29//29
f 30//30 16//16 29//29
f 16//16 9//9 14//14
f 9//9 16//16 5//5
f 27//27 25//25 30//30
f 27//27 30//30 31//31
f 4//4 16//16 15//15
f 16//16 4//4 5//5
f 9//9 18//18 29//29
f 19//19 27//27 26//26
f 27//27 19//19 24//24
f 23//23 19//19 26//26
f 19//19 23//23 10//10
f 11//11 19//19 10//10
f 12//12 9//9 5//5
f 12//12 18//18 9//9
f 8//8 1//1 2//2
f 8//8 6//6 1//1
f 8//8 11//11 10//10
f 6//6 8//8 10//10
f 7//7 6//6 10//10
f 6//6 7//7 1//1
f 17//17 7//7 10//10
f 7//7 17//17 12//12
f 18//18 17//17 29//29
f 17//17 28//28 29//29
f 4//4 3//3 5//5
f 3//3 4//4 2//2
f 1//1 3//3 2//2
f 7//7 3//3 1//1
f 3//3 7//7 12//12
f 13//13 4//4 15//15
f 4//4 13//13 2//2
f 13//13 8//8 2//2
f 20//20 25//25 24//24
f 20//20 21//21 25//25
f 21//21 20//20 15//15
f 20//20 13//13 15//15
