# OBJ file
v 0.630859 -0.076172 -0.036935
v 0.630859 -0.072266 -0.036935
v 0.634766 -0.048828 -0.036935
v 0.638672 -0.080078 -0.036935
v 0.638672 -0.044922 -0.036935
v 0.646484 -0.080078 -0.036935
v 0.646484 -0.052734 -0.036935
v 0.658203 -0.068359 -0.036935
v 0.623047 -0.076172 -0.032318
v 0.623047 -0.072266 -0.032318
v 0.626953 -0.048828 -0.032318
v 0.630859 -0.083984 -0.032318
v 0.638672 -0.087891 -0.032318
v 0.638672 -0.037109 -0.032318
v 0.646484 -0.087891 -0.032318
v 0.654297 -0.052734 -0.032318
v 0.658203 -0.080078 -0.032318
v 0.662109 -0.076172 -0.032318
v 0.666016 -0.068359 -0.032318
v 0.642578 -0.037109 -0.027701
v 0.654297 -0.048828 -0.027701
v 0.658203 -0.087891 -0.027701
v 0.669922 -0.076172 -0.027701
v 0.669922 -0.068359 -0.027701
v 0.623047 -0.072266 -0.023085
v 0.623047 -0.068359 -0.023085
v 0.630859 -0.044922 -0.023085
v 0.638672 -0.037109 -0.023085
v 0.642578 -0.091797 -0.023085
v 0.650391 -0.095703 -0.023085
v 0.669922 -0.076172 -0.023085
v 0.630859 -0.072266 -0.018468
v 0.646484 -0.087891 -0.018468
v 0.650391 -0.087891 -0.018468
v 0.662109 -0.076172 -0.018468
v 0.646484 -0.080078 -0.013851
v 0.634766 -0.052734 -0.009234
v 0.642578 -0.044922 -0.009234
v 0.650391 -0.052734 -0.009234
v 0.642578 -0.052734 -0.004617
vn -0.258049 -0.181461 -0.948938
vn -0.240985 0.020955 -0.970302
vn -0.262194 0.173039 -0.949375
vn -0.071661 -0.259697 -0.963028
vn 0.000000 0.330784 -0.943707
vn 0.110246 -0.261649 -0.958846
vn 0.225188 0.207385 -0.951988
vn 0.296821 0.013436 -0.954838
vn -0.840986 -0.397688 -0.366860
vn -0.848942 0.054794 -0.525638
vn -0.832188 0.389509 -0.394648
vn -0.585526 -0.725690 -0.361295
vn -0.252484 -0.728533 -0.636782
vn -0.131292 0.836383 -0.532190
vn 0.121824 -0.561611 -0.818384
vn 0.541150 0.456005 -0.706552
vn 0.336849 -0.375993 -0.863228
vn 0.388306 -0.313048 -0.866729
vn 0.571911 0.137360 -0.808733
vn 0.482996 0.871327 -0.086629
vn 0.732997 0.668288 -0.126910
vn 0.555898 -0.663643 -0.500556
vn 0.829250 -0.358062 -0.429111
vn 0.936156 0.333072 -0.112585
vn -0.825733 -0.286690 0.485771
vn -0.934642 0.100146 0.341196
vn -0.769370 0.552175 0.321205
vn -0.235225 0.910958 0.338859
vn -0.490261 -0.783770 0.381245
vn 0.163933 -0.974101 0.155733
vn 0.838827 -0.272027 0.471562
vn -0.409565 -0.332843 0.849396
vn -0.210523 -0.455907 0.864771
vn 0.213087 -0.411617 0.886096
vn 0.397217 -0.245129 0.884382
vn -0.057251 -0.346150 0.936431
vn -0.617671 0.177752 0.766085
vn 0.079936 0.707965 0.701709
vn 0.620876 0.350103 0.701384
vn -0.026326 0.103705 0.994260
f 24//24 16//16 21//21
f 1//1 12//12 9//9
f 19//19 16//16 24//24
f 19//19 24//24 23//23
f 33//33 29//29 30//30
f 37//37 26//26 25//25
f 26//26 37//37 27//27
f 38//38 37//37 40//40
f 11//11 26//26 27//27
f 11//11 10//10 26//26
f 39//39 24//24 21//21
f 36//36 34//34 35//35
f 36//36 35//35 40//40
f 32//32 36//36 40//40
f 38//38 20//20 28//28
f 28//28 20//20 14//14
f 15//15 22//22 30//30
f 13//13 15//15 30//30
f 39//39 31//31 24//24
f 24//24 31//31 23//23
f 13//13 1//1 4//4
f 1//1 13//13 12//12
f 19//19 18//18 8//8
f 18//18 19//19 23//23
f 32//32 37//37 25//25
f 37//37 32//32 40//40
f 13//13 29//29 12//12
f 29//29 13//13 30//30
f 29//29 25//25 9//9
f 12//12 29//29 9//9
f 37//37 38//38 27//27
f 38//38 28//28 27//27
f 7//7 19//19 8//8
f 19//19 7//7 16//16
f 16//16 7//7 14//14
f 7//7 5//5 14//14
f 25//25 10//10 9//9
f 26//26 10//10 25//25
f 11//11 5//5 3//3
f 5//5 11//11 14//14
f 28//28 11//11 27//27
f 11//11 28//28 14//14
f 39//39 38//38 40//40
f 34//34 36//36 30//30
f 36//36 33//33 30//30
f 36//36 32//32 25//25
f 36//36 29//29 33//33
f 29//29 36//36 25//25
f 39//39 20//20 38//38
f 20//20 39//39 21//21
f 20//20 16//16 14//14
f 16//16 20//20 21//21
f 5//5 2//2 3//3
f 7//7 2//2 5//5
f 1//1 2//2 4//4
f 2//2 6//6 4//4
f 2//2 7//7 8//8
f 6//6 2//2 8//8
f 2//2 11//11 3//3
f 11//11 2//2 10//10
f 10//10 2//2 9//9
f 2//2 1//1 9//9
f 22//22 17//17 23//23
f 17//17 18//18 23//23
f 18//18 17//17 8//8
f 17//17 6//6 8//8
f 17//17 15//15 6//6
f 15//15 17//17 22//22
f 15//15 13//13 4//4
f 6//6 15//15 4//4
f 31//31 39//39 40//40
f 35//35 31//31 40//40
f 22//22 31//31 30//30
f 31//31 22//22 23//23
f 34//34 31//31 35//35
f 31//31 34//34 30//30
