# OBJ file
v 0.216797 0.509766 -0.032318
v 0.216797 0.513672 -0.032318
v 0.220703 0.505859 -0.032318
v 0.220703 0.517578 -0.032318
v 0.224609 0.509766 -0.032318
v 0.224609 0.513672 -0.032318
v 0.181641 0.494141 -0.027701
v 0.185547 0.490234 -0.027701
v 0.185547 0.498047 -0.027701
v 0.220703 0.498047 -0.027701
v 0.220703 0.525391 -0.027701
v 0.232422 0.509766 -0.027701
v 0.236328 0.521484 -0.027701
v 0.173828 0.494141 -0.023085
v 0.177734 0.501953 -0.023085
v 0.181641 0.505859 -0.023085
v 0.185547 0.482422 -0.023085
v 0.220703 0.494141 -0.023085
v 0.232422 0.505859 -0.023085
v 0.236328 0.529297 -0.023085
v 0.244141 0.521484 -0.023085
v 0.169922 0.501953 -0.018468
v 0.177734 0.486328 -0.018468
v 0.181641 0.513672 -0.018468
v 0.185547 0.478516 -0.018468
v 0.220703 0.494141 -0.018468
v 0.228516 0.501953 -0.018468
v 0.232422 0.509766 -0.018468
v 0.236328 0.521484 -0.018468
v 0.224609 0.509766 -0.013851
v 0.177734 0.494141 -0.009234
v 0.177734 0.509766 -0.009234
v 0.185547 0.486328 -0.009234
v 0.193359 0.486328 -0.009234
v 0.193359 0.525391 -0.009234
v 0.197266 0.525391 -0.009234
v 0.185547 0.494141 -0.004617
v 0.185547 0.509766 -0.004617
v 0.193359 0.517578 -0.004617
v 0.197266 0.494141 -0.004617
v 0.197266 0.517578 -0.004617
v 0.193359 0.501953 0.000000
v 0.197266 0.501953 0.000000
v 0.197266 0.505859 0.000000
vn -0.058623 -0.023620 -0.998001
vn -0.127490 0.108460 -0.985892
vn 0.159355 -0.257949 -0.952926
vn -0.053028 0.278120 -0.959082
vn 0.255548 -0.174126 -0.950987
vn 0.164358 0.054933 -0.984870
vn -0.331421 -0.059350 -0.941614
vn -0.146915 -0.329208 -0.932759
vn -0.265699 0.275580 -0.923829
vn 0.342973 -0.551311 -0.760543
vn -0.133077 0.715314 -0.686015
vn 0.555729 -0.384057 -0.737337
vn 0.332320 0.190504 -0.923727
vn -0.757940 -0.253377 -0.601105
vn -0.388306 0.313048 -0.866729
vn -0.335160 0.372328 -0.865471
vn -0.181609 -0.612519 -0.769310
vn 0.498050 -0.793371 -0.350011
vn 0.746096 -0.631234 -0.211859
vn 0.408839 0.912223 -0.026464
vn 0.991891 0.127088 -0.001025
vn -0.974413 0.175171 -0.140834
vn -0.759601 -0.650282 0.011818
vn -0.563758 0.662394 -0.493367
vn -0.198572 -0.979801 -0.023623
vn 0.543171 -0.729446 0.415780
vn 0.658989 -0.547708 0.515509
vn 0.483194 -0.213654 0.849044
vn 0.376428 0.174260 0.909909
vn 0.430715 -0.168545 0.886610
vn -0.639752 -0.283570 0.714356
vn -0.706489 0.430384 0.561821
vn -0.270577 -0.582882 0.766183
vn 0.199420 -0.665541 0.719226
vn -0.368270 0.889497 0.270505
vn 0.068398 0.732252 0.677590
vn -0.277306 -0.277306 0.919893
vn -0.387947 0.211362 0.897120
vn -0.195093 0.376241 0.905749
vn 0.225216 -0.477889 0.849058
vn 0.117222 0.376065 0.919149
vn -0.177612 -0.114351 0.977434
vn 0.201278 -0.230373 0.952058
vn 0.087544 0.155211 0.983995
f 31//31 32//32 22//22
f 11//11 24//24 35//35
f 7//7 2//2 1//1
f 33//33 37//37 31//31
f 34//34 33//33 25//25
f 26//26 34//34 25//25
f 27//27 19//19 21//21
f 18//18 26//26 25//25
f 44//44 29//29 41//41
f 39//39 44//44 41//41
f 14//14 23//23 22//22
f 43//43 44//44 42//42
f 43//43 29//29 44//44
f 36//36 20//20 35//35
f 20//20 11//11 35//35
f 4//4 9//9 16//16
f 4//4 13//13 6//6
f 40//40 34//34 26//26
f 43//43 30//30 29//29
f 28//28 27//27 21//21
f 13//13 5//5 6//6
f 19//19 12//12 21//21
f 24//24 32//32 35//35
f 32//32 24//24 22//22
f 27//27 18//18 19//19
f 18//18 27//27 26//26
f 18//18 17//17 10//10
f 17//17 18//18 25//25
f 36//36 39//39 41//41
f 39//39 36//36 35//35
f 23//23 33//33 31//31
f 33//33 23//23 25//25
f 23//23 17//17 25//25
f 17//17 23//23 14//14
f 23//23 31//31 22//22
f 37//37 38//38 31//31
f 38//38 32//32 31//31
f 38//38 37//37 42//42
f 44//44 38//38 42//42
f 39//39 38//38 44//44
f 32//32 38//38 35//35
f 38//38 39//39 35//35
f 13//13 20//20 21//21
f 20//20 36//36 41//41
f 29//29 20//20 41//41
f 20//20 29//29 21//21
f 14//14 15//15 7//7
f 15//15 14//14 22//22
f 24//24 15//15 22//22
f 16//16 15//15 24//24
f 15//15 9//9 7//7
f 9//9 15//15 16//16
f 4//4 16//16 24//24
f 4//4 24//24 11//11
f 9//9 4//4 7//7
f 4//4 2//2 7//7
f 4//4 20//20 13//13
f 20//20 4//4 11//11
f 43//43 40//40 27//27
f 27//27 40//40 26//26
f 37//37 40//40 42//42
f 34//34 40//40 33//33
f 40//40 37//37 33//33
f 40//40 43//43 42//42
f 8//8 17//17 14//14
f 8//8 14//14 7//7
f 3//3 8//8 1//1
f 8//8 7//7 1//1
f 17//17 8//8 10//10
f 8//8 3//3 10//10
f 29//29 28//28 21//21
f 30//30 28//28 29//29
f 28//28 43//43 27//27
f 28//28 30//30 43//43
f 5//5 4//4 6//6
f 2//2 5//5 1//1
f 5//5 3//3 1//1
f 4//4 5//5 2//2
f 3//3 12//12 10//10
f 5//5 12//12 3//3
f 12//12 13//13 21//21
f 12//12 5//5 13//13
f 18//18 12//12 19//19
f 12//12 18//18 10//10
