# OBJ file
v -0.912109 -0.380859 -0.036935
v -0.908203 -0.384766 -0.036935
v -0.908203 -0.376953 -0.036935
v -0.900391 -0.388672 -0.036935
v -0.931641 -0.373047 -0.032318
v -0.927734 -0.376953 -0.032318
v -0.908203 -0.392578 -0.032318
v -0.908203 -0.369141 -0.032318
v -0.900391 -0.396484 -0.032318
v -0.900391 -0.376953 -0.032318
v -0.892578 -0.388672 -0.032318
v -0.939453 -0.373047 -0.027701
v -0.931641 -0.365234 -0.027701
v -0.927734 -0.384766 -0.027701
v -0.927734 -0.365234 -0.027701
v -0.892578 -0.380859 -0.027701
v -0.939453 -0.376953 -0.023085
v -0.931641 -0.384766 -0.023085
v -0.904297 -0.396484 -0.023085
v -0.900391 -0.396484 -0.023085
v -0.888672 -0.384766 -0.023085
v -0.943359 -0.373047 -0.018468
v -0.935547 -0.380859 -0.018468
v -0.935547 -0.365234 -0.018468
v -0.912109 -0.361328 -0.013851
v -0.908203 -0.361328 -0.013851
v -0.916016 -0.361328 -0.009234
v -0.892578 -0.361328 -0.009234
v -0.884766 -0.376953 -0.009234
v -0.884766 -0.369141 -0.009234
v -0.935547 -0.373047 -0.004617
v -0.927734 -0.365234 -0.004617
v -0.916016 -0.361328 -0.004617
v -0.896484 -0.361328 -0.004617
v -0.892578 -0.388672 -0.004617
v -0.884766 -0.380859 -0.004617
v -0.931641 -0.376953 0.000000
v -0.923828 -0.384766 0.000000
v -0.896484 -0.365234 0.000000
v -0.888672 -0.376953 0.000000
v -0.888672 -0.373047 0.000000
v -0.923828 -0.373047 0.004617
v -0.916016 -0.384766 0.004617
v -0.916016 -0.365234 0.004617
v -0.908203 -0.361328 0.004617
v -0.904297 -0.384766 0.004617
v -0.916016 -0.376953 0.009234
v -0.916016 -0.373047 0.009234
v -0.908203 -0.369141 0.009234
v -0.904297 -0.376953 0.009234
v -0.904297 -0.373047 0.009234
vn -0.179639 -0.088738 -0.979722
vn -0.166051 -0.233560 -0.958059
vn 0.133221 0.274497 -0.952315
vn 0.191999 -0.155355 -0.969021
vn -0.324559 0.060862 -0.943905
vn -0.348520 -0.366333 -0.862748
vn -0.349870 -0.643468 -0.680838
vn 0.204628 0.652122 -0.729975
vn 0.186924 -0.849628 -0.493145
vn 0.496095 0.416941 -0.761610
vn 0.764607 -0.262323 -0.588696
vn -0.734798 0.065503 -0.675116
vn -0.299934 0.777517 -0.552727
vn -0.432986 -0.626874 -0.647728
vn 0.011937 0.851192 -0.524719
vn 0.644702 0.382614 -0.661790
vn -0.723617 -0.615146 -0.313006
vn -0.568815 -0.801002 -0.186670
vn -0.191682 -0.973362 0.125794
vn 0.324052 -0.932142 0.161561
vn 0.910076 -0.304794 -0.280826
vn -0.996493 0.045478 0.070240
vn -0.666864 -0.724514 0.174274
vn -0.540471 0.840669 0.034161
vn -0.026433 0.987069 -0.158101
vn 0.047387 0.971183 -0.233575
vn -0.102587 0.994064 -0.036225
vn 0.505473 0.860870 -0.058309
vn 0.984870 -0.054933 -0.164358
vn 0.880603 0.472559 -0.035017
vn -0.749437 0.225408 0.622523
vn -0.461501 0.745100 0.481500
vn -0.174595 0.975741 0.132085
vn 0.307836 0.883640 0.352730
vn 0.452718 -0.761884 0.463227
vn 0.859130 -0.340001 0.382486
vn -0.656930 -0.260890 0.707375
vn -0.440862 -0.732496 0.518739
vn 0.475942 0.530208 0.701682
vn 0.540787 -0.166824 0.824451
vn 0.628567 0.263482 0.731766
vn -0.474813 0.254878 0.842372
vn -0.179532 -0.691055 0.700151
vn -0.353991 0.572971 0.739185
vn 0.042293 0.805601 0.590947
vn 0.147540 -0.660925 0.735806
vn -0.218222 -0.218222 0.951188
vn -0.258049 0.181461 0.948938
vn 0.084622 0.309546 0.947112
vn 0.218222 -0.218222 0.951188
vn 0.274881 0.155926 0.948750
f 19//19 18//18 9//9
f 18//18 19//19 38//38
f 19//19 43//43 38//38
f 30//30 36//36 29//29
f 23//23 18//18 38//38
f 12//12 13//13 5//5
f 20//20 19//19 9//9
f 21//21 30//30 29//29
f 30//30 21//21 11//11
f 36//36 21//21 29//29
f 12//12 17//17 22//22
f 16//16 10//10 30//30
f 16//16 30//30 11//11
f 10//10 16//16 11//11
f 4//4 11//11 9//9
f 13//13 15//15 8//8
f 37//37 31//31 22//22
f 42//42 31//31 37//37
f 10//10 3//3 8//8
f 3//3 1//1 5//5
f 24//24 27//27 13//13
f 27//27 25//25 13//13
f 26//26 28//28 8//8
f 15//15 26//26 8//8
f 30//30 41//41 36//36
f 33//33 27//27 24//24
f 32//32 33//33 24//24
f 41//41 40//40 36//36
f 45//45 39//39 34//34
f 44//44 45//45 32//32
f 43//43 37//37 38//38
f 37//37 43//43 47//47
f 37//37 23//23 38//38
f 23//23 37//37 22//22
f 11//11 21//21 9//9
f 20//20 21//21 35//35
f 21//21 36//36 35//35
f 21//21 20//20 9//9
f 10//10 28//28 30//30
f 28//28 10//10 8//8
f 17//17 23//23 22//22
f 23//23 17//17 18//18
f 17//17 14//14 18//18
f 14//14 17//17 12//12
f 24//24 12//12 22//22
f 12//12 24//24 13//13
f 6//6 1//1 2//2
f 1//1 6//6 5//5
f 6//6 14//14 12//12
f 6//6 12//12 5//5
f 4//4 7//7 2//2
f 7//7 4//4 9//9
f 14//14 7//7 18//18
f 18//18 7//7 9//9
f 7//7 6//6 2//2
f 6//6 7//7 14//14
f 46//46 20//20 35//35
f 20//20 46//46 19//19
f 46//46 43//43 19//19
f 43//43 46//46 47//47
f 46//46 50//50 47//47
f 48//48 37//37 47//47
f 48//48 42//42 37//37
f 4//4 3//3 11//11
f 3//3 10//10 11//11
f 1//1 3//3 2//2
f 3//3 4//4 2//2
f 13//13 3//3 5//5
f 3//3 13//13 8//8
f 26//26 15//15 13//13
f 25//25 26//26 13//13
f 32//32 24//24 22//22
f 31//31 32//32 22//22
f 48//48 44//44 42//42
f 44//44 32//32 31//31
f 44//44 31//31 42//42
f 36//36 40//40 35//35
f 46//46 40//40 50//50
f 40//40 46//46 35//35
f 40//40 51//51 50//50
f 51//51 40//40 41//41
f 28//28 39//39 30//30
f 34//34 39//39 28//28
f 39//39 41//41 30//30
f 27//27 45//45 25//25
f 45//45 34//34 28//28
f 33//33 45//45 27//27
f 45//45 26//26 25//25
f 26//26 45//45 28//28
f 45//45 33//33 32//32
f 50//50 49//49 47//47
f 49//49 48//48 47//47
f 51//51 49//49 50//50
f 49//49 51//51 41//41
f 39//39 49//49 41//41
f 45//45 49//49 39//39
f 49//49 44//44 48//48
f 49//49 45//45 44//44
