# OBJ file
v 0.607422 0.119141 -0.041552
v 0.611328 0.119141 -0.041552
v 0.599609 0.119141 -0.036935
v 0.607422 0.107422 -0.036935
v 0.607422 0.126953 -0.036935
v 0.611328 0.126953 -0.036935
v 0.615234 0.107422 -0.036935
v 0.619141 0.115234 -0.036935
v 0.599609 0.107422 -0.032318
v 0.599609 0.123047 -0.032318
v 0.607422 0.099609 -0.032318
v 0.607422 0.130859 -0.032318
v 0.615234 0.099609 -0.032318
v 0.615234 0.130859 -0.032318
v 0.626953 0.115234 -0.032318
v 0.626953 0.119141 -0.032318
v 0.623047 0.099609 -0.027701
v 0.630859 0.107422 -0.027701
v 0.611328 0.095703 -0.023085
v 0.626953 0.130859 -0.023085
v 0.634766 0.123047 -0.023085
v 0.583984 0.103516 -0.018468
v 0.591797 0.095703 -0.018468
v 0.591797 0.115234 -0.018468
v 0.615234 0.095703 -0.018468
v 0.638672 0.111328 -0.018468
v 0.583984 0.103516 -0.013851
v 0.591797 0.095703 -0.013851
v 0.607422 0.095703 -0.013851
v 0.607422 0.130859 -0.013851
v 0.615234 0.134766 -0.013851
v 0.623047 0.130859 -0.013851
v 0.630859 0.099609 -0.013851
v 0.638672 0.107422 -0.013851
v 0.638672 0.115234 -0.013851
v 0.619141 0.099609 -0.009234
v 0.626953 0.126953 -0.009234
v 0.630859 0.103516 -0.009234
v 0.634766 0.119141 -0.009234
v 0.638672 0.111328 -0.009234
v 0.587891 0.107422 -0.004617
v 0.587891 0.111328 -0.004617
v 0.595703 0.099609 -0.004617
v 0.603516 0.099609 -0.004617
v 0.603516 0.126953 -0.004617
v 0.611328 0.130859 -0.004617
v 0.615234 0.130859 -0.004617
v 0.623047 0.103516 -0.004617
v 0.623047 0.126953 -0.004617
v 0.630859 0.119141 -0.004617
v 0.595703 0.107422 0.000000
v 0.595703 0.111328 0.000000
v 0.603516 0.107422 0.000000
v 0.603516 0.119141 0.000000
v 0.611328 0.123047 0.000000
v 0.615234 0.123047 0.000000
v 0.623047 0.111328 0.000000
v 0.623047 0.119141 0.000000
vn -0.217772 0.066285 -0.973746
vn 0.185736 0.097293 -0.977771
vn -0.632680 0.171452 -0.755195
vn -0.213249 -0.370667 -0.903953
vn -0.270577 0.582882 -0.766183
vn 0.166824 0.540787 -0.824451
vn 0.227077 -0.342849 -0.911532
vn 0.425744 -0.115327 -0.897464
vn -0.470461 -0.354013 -0.808295
vn -0.725883 0.613411 -0.311161
vn -0.175441 -0.674563 -0.717067
vn -0.375375 0.843690 -0.383772
vn 0.179532 -0.691055 -0.700151
vn 0.228312 0.772637 -0.592373
vn 0.558525 -0.076474 -0.825955
vn 0.553606 0.208338 -0.806298
vn 0.411822 -0.737538 -0.535202
vn 0.636473 -0.354313 -0.685101
vn 0.048306 -0.969159 -0.241656
vn 0.537538 0.803469 -0.255909
vn 0.804717 0.475737 -0.355112
vn -0.919886 -0.152546 -0.361303
vn -0.411743 -0.843948 -0.343829
vn -0.776365 0.624620 -0.084307
vn 0.170670 -0.984800 0.032269
vn 0.910498 -0.111433 -0.398215
vn -0.949454 -0.215729 0.228030
vn -0.385377 -0.881920 0.271479
vn 0.053010 -0.963217 0.263445
vn -0.558525 0.825955 0.076474
vn 0.010786 0.989452 0.144461
vn 0.456487 0.834481 0.308644
vn 0.521249 -0.840840 0.145901
vn 0.866522 -0.496387 0.052344
vn 0.943570 0.317465 0.094296
vn 0.157189 -0.830991 0.533616
vn 0.573561 0.712032 0.405017
vn 0.449507 -0.552218 0.702139
vn 0.719757 0.527643 0.451157
vn 0.822957 -0.095063 0.560094
vn -0.672821 -0.227483 0.703962
vn -0.771961 0.386049 0.505017
vn -0.227483 -0.672821 0.703962
vn 0.048696 -0.702910 0.709610
vn -0.523522 0.686867 0.504122
vn -0.217861 0.752285 0.621775
vn 0.172058 0.715463 0.677133
vn 0.238699 -0.588333 0.772585
vn 0.393758 0.623486 0.675441
vn 0.538579 0.311070 0.783051
vn -0.218222 -0.218222 0.951188
vn -0.274881 0.155926 0.948750
vn 0.025556 -0.243122 0.969659
vn -0.196726 0.239124 0.950852
vn -0.071661 0.259697 0.963028
vn 0.071661 0.259697 0.963028
vn 0.237891 -0.202603 0.949926
vn 0.258049 0.181461 0.948938
f 42//42 24//24 22//22
f 12//12 30//30 31//31
f 19//19 11//11 13//13
f 3//3 5//5 1//1
f 10//10 3//3 22//22
f 24//24 10//10 22//22
f 3//3 9//9 22//22
f 14//14 12//12 31//31
f 27//27 42//42 22//22
f 27//27 41//41 42//42
f 23//23 11//11 19//19
f 50//50 40//40 39//39
f 50//50 49//49 58//58
f 17//17 19//19 13//13
f 17//17 25//25 19//19
f 25//25 17//17 33//33
f 34//34 18//18 26//26
f 46//46 47//47 31//31
f 2//2 8//8 7//7
f 40//40 35//35 39//39
f 35//35 21//21 39//39
f 21//21 35//35 26//26
f 20//20 14//14 31//31
f 48//48 33//33 38//38
f 29//29 25//25 33//33
f 43//43 51//51 41//41
f 32//32 20//20 31//31
f 48//48 36//36 33//33
f 36//36 29//29 33//33
f 32//32 37//37 20//20
f 36//36 44//44 29//29
f 44//44 36//36 48//48
f 7//7 11//11 4//4
f 11//11 7//7 13//13
f 5//5 10//10 12//12
f 10//10 5//5 3//3
f 45//45 24//24 42//42
f 45//45 10//10 24//24
f 45//45 30//30 12//12
f 10//10 45//45 12//12
f 30//30 45//45 31//31
f 45//45 46//46 31//31
f 11//11 9//9 4//4
f 9//9 3//3 1//1
f 4//4 9//9 1//1
f 2//2 7//7 4//4
f 2//2 4//4 1//1
f 43//43 27//27 28//28
f 27//27 43//43 41//41
f 23//23 9//9 11//11
f 9//9 23//23 22//22
f 27//27 23//23 28//28
f 23//23 27//27 22//22
f 40//40 50//50 57//57
f 57//57 50//50 58//58
f 7//7 17//17 13//13
f 17//17 7//7 18//18
f 34//34 17//17 18//18
f 17//17 34//34 33//33
f 34//34 40//40 38//38
f 33//33 34//34 38//38
f 18//18 8//8 15//15
f 7//7 8//8 18//18
f 6//6 2//2 1//1
f 5//5 6//6 1//1
f 6//6 5//5 12//12
f 14//14 6//6 12//12
f 34//34 35//35 40//40
f 35//35 34//34 26//26
f 16//16 18//18 15//15
f 18//18 16//16 26//26
f 16//16 21//21 26//26
f 8//8 16//16 15//15
f 16//16 8//8 2//2
f 6//6 16//16 2//2
f 16//16 6//6 14//14
f 16//16 20//20 21//21
f 20//20 16//16 14//14
f 48//48 40//40 57//57
f 40//40 48//48 38//38
f 23//23 29//29 28//28
f 29//29 23//23 19//19
f 25//25 29//29 19//19
f 45//45 55//55 46//46
f 54//54 55//55 45//45
f 52//52 45//45 42//42
f 52//52 54//54 45//45
f 41//41 52//52 42//42
f 51//51 52//52 41//41
f 56//56 57//57 58//58
f 56//56 55//55 54//54
f 57//57 56//56 53//53
f 56//56 51//51 53//53
f 56//56 52//52 51//51
f 52//52 56//56 54//54
f 47//47 56//56 49//49
f 49//49 56//56 58//58
f 55//55 56//56 46//46
f 56//56 47//47 46//46
f 37//37 47//47 49//49
f 47//47 37//37 31//31
f 37//37 32//32 31//31
f 37//37 50//50 39//39
f 50//50 37//37 49//49
f 20//20 37//37 21//21
f 21//21 37//37 39//39
f 44//44 43//43 28//28
f 29//29 44//44 28//28
f 51//51 44//44 53//53
f 44//44 51//51 43//43
f 44//44 57//57 53//53
f 44//44 48//48 57//57
