# OBJ file
v 0.923828 0.763672 -0.046169
v 0.927734 0.759766 -0.046169
v 0.927734 0.767578 -0.046169
v 0.935547 0.759766 -0.046169
v 0.935547 0.767578 -0.046169
v 0.939453 0.763672 -0.046169
v 0.916016 0.763672 -0.041552
v 0.927734 0.751953 -0.041552
v 0.927734 0.775391 -0.041552
v 0.935547 0.751953 -0.041552
v 0.935547 0.775391 -0.041552
v 0.943359 0.771484 -0.041552
v 0.947266 0.763672 -0.041552
v 0.916016 0.771484 -0.036935
v 0.923828 0.779297 -0.036935
v 0.943359 0.779297 -0.036935
v 0.951172 0.771484 -0.036935
v 0.916016 0.751953 -0.032318
v 0.923828 0.744141 -0.032318
v 0.951172 0.763672 -0.032318
v 0.912109 0.759766 -0.027701
v 0.927734 0.783203 -0.027701
v 0.935547 0.783203 -0.027701
v 0.939453 0.748047 -0.027701
v 0.947266 0.755859 -0.027701
v 0.912109 0.763672 -0.023085
v 0.916016 0.771484 -0.023085
v 0.923828 0.779297 -0.023085
v 0.939453 0.783203 -0.023085
v 0.955078 0.767578 -0.023085
v 0.943359 0.748047 -0.018468
v 0.951172 0.755859 -0.018468
v 0.919922 0.767578 -0.013851
v 0.923828 0.775391 -0.013851
v 0.931641 0.783203 -0.013851
v 0.935547 0.783203 -0.013851
v 0.943359 0.748047 -0.013851
v 0.943359 0.779297 -0.013851
v 0.951172 0.755859 -0.013851
v 0.951172 0.771484 -0.013851
v 0.923828 0.767578 -0.009234
v 0.935547 0.779297 -0.009234
v 0.923828 0.755859 -0.004617
v 0.931641 0.748047 -0.004617
v 0.931641 0.767578 -0.004617
v 0.935547 0.771484 -0.004617
v 0.943359 0.759766 -0.004617
v 0.931641 0.755859 0.000000
v 0.935547 0.759766 0.000000
vn -0.330784 0.000000 -0.943707
vn -0.155926 -0.274881 -0.948750
vn -0.155926 0.274881 -0.948750
vn 0.155926 -0.274881 -0.948750
vn 0.100117 0.253017 -0.962268
vn 0.304296 -0.055865 -0.950938
vn -0.709832 -0.016464 -0.704178
vn -0.208338 -0.553606 -0.806298
vn -0.166824 0.540787 -0.824451
vn 0.314329 -0.656191 -0.686010
vn 0.076474 0.558525 -0.825955
vn 0.346031 0.346031 -0.872081
vn 0.653082 -0.238721 -0.718676
vn -0.764822 0.486102 -0.422791
vn -0.428608 0.762592 -0.484509
vn 0.418448 0.759572 -0.497947
vn 0.803973 0.341722 -0.486675
vn -0.776369 -0.589310 -0.223529
vn -0.326473 -0.912012 -0.248291
vn 0.850726 -0.375523 -0.367759
vn -0.970341 -0.241634 0.007097
vn -0.333998 0.934816 -0.120682
vn 0.060996 0.971160 -0.230494
vn 0.468524 -0.828508 -0.306692
vn 0.689337 -0.617829 -0.378288
vn -0.954196 0.080652 0.288107
vn -0.801468 0.540659 0.255611
vn -0.674511 0.718226 0.170839
vn 0.379565 0.925124 -0.008752
vn 0.987762 0.155970 -0.000386
vn 0.504104 -0.855026 -0.121700
vn 0.827114 -0.542535 -0.146758
vn -0.721971 0.288581 0.628871
vn -0.609371 0.514813 0.603021
vn -0.298930 0.833339 0.464959
vn 0.166804 0.902432 0.397232
vn 0.467790 -0.817667 0.335548
vn 0.568267 0.686357 0.453857
vn 0.813427 -0.406277 0.416263
vn 0.757622 0.424919 0.495431
vn -0.552998 0.318362 0.769961
vn 0.024465 0.535466 0.844202
vn -0.667263 -0.219646 0.711699
vn -0.089648 -0.773391 0.627558
vn -0.375993 0.336849 0.863228
vn 0.021339 0.393774 0.918960
vn 0.530500 -0.102837 0.841424
vn -0.099853 -0.162870 0.981582
vn 0.160414 0.034991 0.986429
f 43//43 26//26 21//21
f 18//18 43//43 21//21
f 7//7 18//18 21//21
f 43//43 44//44 48//48
f 17//17 12//12 16//16
f 20//20 17//17 30//30
f 33//33 26//26 43//43
f 41//41 33//33 43//43
f 33//33 41//41 34//34
f 28//28 35//35 22//22
f 38//38 29//29 36//36
f 23//23 29//29 16//16
f 14//14 7//7 21//21
f 26//26 14//14 21//21
f 8//8 10//10 19//19
f 10//10 24//24 19//19
f 37//37 44//44 19//19
f 32//32 20//20 30//30
f 39//39 32//32 30//30
f 40//40 39//39 30//30
f 5//5 12//12 6//6
f 24//24 31//31 19//19
f 31//31 37//37 19//19
f 40//40 47//47 39//39
f 42//42 38//38 36//36
f 35//35 42//42 36//36
f 20//20 13//13 17//17
f 18//18 44//44 43//43
f 44//44 18//18 19//19
f 18//18 8//8 19//19
f 8//8 18//18 7//7
f 27//27 33//33 34//34
f 33//33 27//27 26//26
f 35//35 28//28 34//34
f 28//28 27//27 34//34
f 45//45 41//41 43//43
f 45//45 43//43 48//48
f 29//29 23//23 22//22
f 35//35 29//29 22//22
f 29//29 35//35 36//36
f 27//27 14//14 26//26
f 40//40 17//17 16//16
f 17//17 40//40 30//30
f 40//40 29//29 38//38
f 29//29 40//40 16//16
f 4//4 8//8 2//2
f 4//4 10//10 8//8
f 5//5 11//11 16//16
f 12//12 5//5 16//16
f 37//37 31//31 39//39
f 31//31 32//32 39//39
f 46//46 45//45 48//48
f 49//49 46//46 48//48
f 47//47 37//37 39//39
f 37//37 47//47 44//44
f 44//44 47//47 48//48
f 47//47 49//49 48//48
f 47//47 46//46 49//49
f 46//46 47//47 40//40
f 42//42 40//40 38//38
f 42//42 46//46 40//40
f 42//42 35//35 34//34
f 45//45 42//42 41//41
f 41//41 42//42 34//34
f 46//46 42//42 45//45
f 31//31 25//25 32//32
f 25//25 31//31 24//24
f 13//13 25//25 24//24
f 10//10 13//13 24//24
f 25//25 13//13 32//32
f 32//32 13//13 20//20
f 13//13 4//4 6//6
f 4//4 13//13 10//10
f 12//12 13//13 6//6
f 13//13 12//12 17//17
f 11//11 15//15 16//16
f 9//9 15//15 11//11
f 15//15 23//23 16//16
f 23//23 15//15 22//22
f 15//15 28//28 22//22
f 15//15 14//14 27//27
f 28//28 15//15 27//27
f 5//5 3//3 11//11
f 3//3 9//9 11//11
f 4//4 1//1 6//6
f 1//1 5//5 6//6
f 1//1 4//4 2//2
f 1//1 3//3 5//5
f 1//1 8//8 7//7
f 8//8 1//1 2//2
f 15//15 1//1 14//14
f 1//1 15//15 9//9
f 14//14 1//1 7//7
f 3//3 1//1 9//9
