# OBJ file
v 0.853516 -0.048828 -0.036935
v 0.841797 -0.033203 -0.032318
v 0.845703 -0.048828 -0.032318
v 0.849609 -0.025391 -0.032318
v 0.853516 -0.056641 -0.032318
v 0.861328 -0.021484 -0.032318
v 0.865234 -0.052734 -0.032318
v 0.873047 -0.033203 -0.032318
v 0.833984 -0.033203 -0.027701
v 0.841797 -0.052734 -0.027701
v 0.849609 -0.060547 -0.027701
v 0.849609 -0.017578 -0.027701
v 0.861328 -0.013672 -0.027701
v 0.865234 -0.060547 -0.027701
v 0.873047 -0.052734 -0.027701
v 0.880859 -0.033203 -0.027701
v 0.841797 -0.052734 -0.023085
v 0.841797 -0.021484 -0.023085
v 0.849609 -0.060547 -0.023085
v 0.849609 -0.013672 -0.023085
v 0.865234 -0.056641 -0.023085
v 0.865234 -0.013672 -0.023085
v 0.873047 -0.048828 -0.023085
v 0.873047 -0.021484 -0.023085
v 0.833984 -0.037109 -0.018468
v 0.849609 -0.052734 -0.018468
v 0.849609 -0.021484 -0.018468
v 0.865234 -0.048828 -0.018468
v 0.865234 -0.021484 -0.018468
v 0.841797 -0.037109 -0.013851
vn -0.098045 -0.195676 -0.975755
vn -0.360044 0.152615 -0.920368
vn -0.466021 -0.259605 -0.845830
vn -0.219483 0.311247 -0.924636
vn -0.119670 -0.525270 -0.842479
vn 0.120852 0.340774 -0.932345
vn 0.303497 -0.301343 -0.903926
vn 0.351422 0.116145 -0.928985
vn -0.880238 0.189104 -0.435225
vn -0.734545 -0.512551 -0.444674
vn -0.366194 -0.835706 -0.409264
vn -0.359326 0.553723 -0.751183
vn 0.139840 0.805385 -0.576021
vn 0.412796 -0.899539 -0.142927
vn 0.798293 -0.557784 -0.227166
vn 0.991337 0.115564 -0.062413
vn -0.712546 -0.563813 0.417605
vn -0.717233 0.675930 0.169400
vn -0.285645 -0.823573 0.490035
vn -0.393673 0.900518 0.184631
vn 0.338212 -0.561110 0.755492
vn 0.441351 0.859367 0.258259
vn 0.654894 -0.298878 0.694108
vn 0.796240 0.531286 0.289373
vn -0.861707 -0.051975 0.504737
vn -0.130889 -0.377637 0.916656
vn -0.177747 0.374264 0.910128
vn 0.276419 -0.222700 0.934878
vn 0.243792 0.240953 0.939419
vn -0.246093 -0.002311 0.969243
f 28//28 29//29 30//30
f 10//10 25//25 9//9
f 3//3 10//10 9//9
f 25//25 18//18 9//9
f 29//29 27//27 30//30
f 2//2 4//4 1//1
f 26//26 28//28 30//30
f 10//10 17//17 25//25
f 14//14 19//19 11//11
f 5//5 14//14 11//11
f 24//24 22//22 29//29
f 22//22 13//13 20//20
f 13//13 12//12 20//20
f 8//8 7//7 1//1
f 14//14 21//21 19//19
f 4//4 6//6 1//1
f 21//21 23//23 28//28
f 23//23 15//15 16//16
f 15//15 14//14 7//7
f 27//27 25//25 30//30
f 27//27 18//18 25//25
f 18//18 27//27 20//20
f 27//27 22//22 20//20
f 22//22 27//27 29//29
f 5//5 3//3 1//1
f 5//5 10//10 3//3
f 10//10 5//5 11//11
f 12//12 18//18 20//20
f 18//18 12//12 9//9
f 3//3 2//2 1//1
f 2//2 3//3 9//9
f 12//12 2//2 9//9
f 2//2 12//12 4//4
f 25//25 17//17 30//30
f 26//26 17//17 19//19
f 17//17 26//26 30//30
f 17//17 10//10 11//11
f 19//19 17//17 11//11
f 14//14 5//5 1//1
f 7//7 14//14 1//1
f 13//13 24//24 16//16
f 24//24 13//13 22//22
f 21//21 26//26 19//19
f 26//26 21//21 28//28
f 6//6 13//13 16//16
f 8//8 6//6 16//16
f 12//12 6//6 4//4
f 13//13 6//6 12//12
f 6//6 8//8 1//1
f 23//23 29//29 28//28
f 23//23 24//24 29//29
f 24//24 23//23 16//16
f 15//15 23//23 21//21
f 15//15 21//21 14//14
f 15//15 8//8 16//16
f 8//8 15//15 7//7
