# OBJ file
v 0.560547 0.771484 -0.036935
v 0.564453 0.763672 -0.036935
v 0.568359 0.767578 -0.036935
v 0.552734 0.775391 -0.032318
v 0.556641 0.763672 -0.032318
v 0.560547 0.783203 -0.032318
v 0.564453 0.783203 -0.032318
v 0.576172 0.775391 -0.032318
v 0.544922 0.771484 -0.027701
v 0.544922 0.775391 -0.027701
v 0.556641 0.755859 -0.027701
v 0.560547 0.791016 -0.027701
v 0.564453 0.748047 -0.027701
v 0.564453 0.791016 -0.027701
v 0.576172 0.783203 -0.027701
v 0.583984 0.767578 -0.027701
v 0.583984 0.775391 -0.027701
v 0.544922 0.771484 -0.023085
v 0.548828 0.787109 -0.023085
v 0.552734 0.759766 -0.023085
v 0.556641 0.794922 -0.023085
v 0.564453 0.794922 -0.023085
v 0.568359 0.748047 -0.023085
v 0.580078 0.755859 -0.023085
v 0.587891 0.763672 -0.023085
v 0.587891 0.767578 -0.023085
v 0.556641 0.755859 -0.018468
v 0.564453 0.748047 -0.018468
v 0.576172 0.783203 -0.018468
v 0.583984 0.775391 -0.018468
v 0.544922 0.779297 -0.013851
v 0.560547 0.794922 -0.013851
v 0.564453 0.755859 -0.013851
v 0.576172 0.759766 -0.013851
v 0.583984 0.767578 -0.013851
v 0.583984 0.771484 -0.013851
v 0.552734 0.779297 -0.009234
v 0.556641 0.775391 -0.009234
v 0.560547 0.787109 -0.009234
v 0.568359 0.767578 -0.009234
v 0.576172 0.767578 -0.009234
v 0.576172 0.771484 -0.009234
vn -0.197543 0.076604 -0.977297
vn -0.026208 -0.314912 -0.948759
vn 0.270405 -0.069735 -0.960218
vn -0.411617 0.213087 -0.886096
vn -0.454459 -0.325023 -0.829353
vn -0.192355 0.389056 -0.900908
vn 0.132288 0.383102 -0.914184
vn 0.362342 0.230815 -0.903013
vn -0.843178 -0.245032 -0.478550
vn -0.820220 0.185450 -0.541154
vn -0.647343 -0.607302 -0.460578
vn -0.166824 0.540787 -0.824451
vn -0.156774 -0.831972 -0.532207
vn 0.191318 0.590706 -0.783877
vn 0.578740 0.645554 -0.498317
vn 0.540787 -0.166824 -0.824451
vn 0.746512 0.407594 -0.525916
vn -0.929166 -0.329108 0.168339
vn -0.734422 0.610601 -0.296295
vn -0.796914 -0.602917 0.037669
vn -0.436955 0.846284 -0.304751
vn 0.362209 0.900755 -0.239678
vn 0.408253 -0.912869 -0.000000
vn 0.657282 -0.738524 -0.150210
vn 0.893070 -0.425095 -0.147380
vn 0.982956 0.112037 -0.145758
vn -0.654387 -0.587257 0.476348
vn -0.185458 -0.845435 0.500844
vn 0.669984 0.677761 0.302919
vn 0.781791 0.558771 0.276729
vn -0.836640 0.121016 0.534217
vn -0.015564 0.822839 0.568062
vn -0.145872 -0.399072 0.905242
vn 0.378967 -0.539225 0.752077
vn 0.672821 -0.227483 0.703962
vn 0.705047 0.247297 0.664645
vn -0.324041 0.026345 0.945676
vn -0.150420 -0.159247 0.975712
vn 0.000000 0.330784 0.943707
vn -0.051095 -0.172862 0.983620
vn 0.235911 -0.198364 0.951314
vn 0.274881 0.155926 0.948750
f 33//33 27//27 28//28
f 32//32 22//22 21//21
f 24//24 34//34 28//28
f 2//2 1//1 3//3
f 20//20 18//18 9//9
f 27//27 18//18 20//20
f 18//18 27//27 31//31
f 11//11 20//20 9//9
f 40//40 33//33 41//41
f 34//34 35//35 41//41
f 17//17 8//8 15//15
f 26//26 30//30 36//36
f 30//30 26//26 17//17
f 19//19 10//10 31//31
f 13//13 23//23 28//28
f 24//24 23//23 13//13
f 23//23 24//24 28//28
f 5//5 11//11 9//9
f 33//33 38//38 37//37
f 40//40 38//38 33//33
f 7//7 8//8 3//3
f 1//1 7//7 3//3
f 6//6 7//7 1//1
f 29//29 22//22 32//32
f 4//4 6//6 1//1
f 14//14 22//22 15//15
f 32//32 19//19 31//31
f 19//19 32//32 21//21
f 33//33 34//34 41//41
f 34//34 33//33 28//28
f 27//27 33//33 31//31
f 31//31 33//33 37//37
f 39//39 32//32 31//31
f 39//39 31//31 37//37
f 11//11 27//27 20//20
f 11//11 13//13 28//28
f 27//27 11//11 28//28
f 35//35 24//24 25//25
f 24//24 35//35 34//34
f 35//35 42//42 41//41
f 42//42 35//35 36//36
f 39//39 42//42 32//32
f 42//42 36//36 32//32
f 16//16 24//24 13//13
f 2//2 16//16 13//13
f 24//24 16//16 25//25
f 16//16 2//2 3//3
f 8//8 16//16 3//3
f 16//16 8//8 17//17
f 26//26 35//35 25//25
f 35//35 26//26 36//36
f 16//16 26//26 25//25
f 26//26 16//16 17//17
f 10//10 18//18 31//31
f 18//18 10//10 9//9
f 2//2 5//5 1//1
f 1//1 5//5 9//9
f 5//5 2//2 13//13
f 11//11 5//5 13//13
f 38//38 39//39 37//37
f 38//38 40//40 41//41
f 38//38 42//42 39//39
f 42//42 38//38 41//41
f 22//22 29//29 15//15
f 29//29 17//17 15//15
f 29//29 30//30 17//17
f 36//36 29//29 32//32
f 30//30 29//29 36//36
f 4//4 19//19 21//21
f 4//4 12//12 6//6
f 12//12 4//4 21//21
f 4//4 10//10 19//19
f 10//10 4//4 9//9
f 4//4 1//1 9//9
f 14//14 12//12 21//21
f 22//22 14//14 21//21
f 7//7 14//14 8//8
f 8//8 14//14 15//15
f 12//12 14//14 6//6
f 14//14 7//7 6//6
