# OBJ file
v -0.904297 -0.669922 -0.023085
v -0.900391 -0.666016 -0.023085
v -0.896484 -0.654297 -0.023085
v -0.951172 -0.736328 -0.018468
v -0.951172 -0.732422 -0.018468
v -0.947266 -0.740234 -0.018468
v -0.919922 -0.716797 -0.018468
v -0.904297 -0.654297 -0.018468
v -0.896484 -0.646484 -0.018468
v -0.892578 -0.666016 -0.018468
v -0.888672 -0.654297 -0.018468
v -0.958984 -0.736328 -0.013851
v -0.958984 -0.732422 -0.013851
v -0.947266 -0.748047 -0.013851
v -0.935547 -0.744141 -0.013851
v -0.912109 -0.716797 -0.013851
v -0.955078 -0.724609 -0.009234
v -0.935547 -0.751953 -0.009234
v -0.935547 -0.693359 -0.009234
v -0.927734 -0.744141 -0.009234
v -0.908203 -0.654297 -0.009234
v -0.900391 -0.646484 -0.009234
v -0.896484 -0.646484 -0.009234
v -0.888672 -0.654297 -0.009234
v -0.947266 -0.755859 -0.004617
v -0.888672 -0.666016 -0.004617
v -0.962891 -0.744141 0.000000
v -0.962891 -0.740234 0.000000
v -0.955078 -0.751953 0.000000
v -0.935547 -0.751953 0.000000
v -0.927734 -0.744141 0.000000
v -0.908203 -0.720703 0.000000
v -0.962891 -0.740234 0.004617
v -0.955078 -0.748047 0.004617
v -0.943359 -0.751953 0.004617
v -0.931641 -0.685547 0.004617
v -0.912109 -0.666016 0.004617
v -0.908203 -0.716797 0.004617
v -0.955078 -0.740234 0.009234
v -0.939453 -0.748047 0.009234
v -0.931641 -0.740234 0.009234
v -0.923828 -0.685547 0.009234
v -0.919922 -0.724609 0.009234
v -0.908203 -0.666016 0.009234
v -0.896484 -0.654297 0.009234
v -0.888672 -0.662109 0.009234
v -0.943359 -0.736328 0.013851
v -0.939453 -0.740234 0.013851
v -0.935547 -0.720703 0.013851
v -0.927734 -0.724609 0.013851
v -0.900391 -0.666016 0.013851
v -0.896484 -0.662109 0.013851
vn -0.059492 -0.000287 -0.998229
vn 0.235942 -0.111800 -0.965314
vn 0.067230 0.217223 -0.973804
vn -0.291801 -0.165006 -0.942139
vn -0.302464 0.091520 -0.948757
vn -0.090702 -0.308416 -0.946918
vn 0.281078 -0.229238 -0.931904
vn -0.601084 0.487943 -0.632938
vn 0.076094 0.856815 -0.509978
vn 0.717428 -0.271983 -0.641344
vn 0.836122 0.240744 -0.492892
vn -0.716631 -0.213681 -0.663913
vn -0.802689 0.257538 -0.537926
vn -0.224684 -0.571266 -0.789413
vn 0.279679 -0.373511 -0.884460
vn 0.654555 -0.367931 -0.660442
vn -0.861817 0.503302 -0.062919
vn 0.414684 -0.772641 -0.480690
vn -0.802078 0.526377 -0.282133
vn 0.661631 -0.589239 -0.463726
vn -0.748620 0.662916 0.010509
vn -0.426165 0.896182 0.123452
vn 0.359480 0.909915 0.206953
vn 0.899380 0.422486 0.112343
vn -0.190066 -0.967141 -0.168857
vn 0.970432 -0.226101 -0.084496
vn -0.871736 -0.489195 -0.027662
vn -0.975824 0.187120 -0.112934
vn -0.560021 -0.822408 0.100111
vn 0.495640 -0.819223 0.288469
vn 0.703411 -0.644690 0.299312
vn 0.853354 -0.517652 0.061832
vn -0.840005 0.009336 0.542498
vn -0.377713 -0.559139 0.738036
vn 0.000862 -0.796269 0.604943
vn -0.735197 0.502343 0.455124
vn -0.608295 0.613581 0.503483
vn 0.684758 -0.349065 0.639734
vn -0.374705 -0.121305 0.919174
vn 0.186877 -0.602328 0.776066
vn 0.519746 -0.455916 0.722499
vn -0.387343 0.267859 0.882166
vn 0.469443 -0.307331 0.827751
vn -0.502712 0.469880 0.725599
vn 0.051228 0.734809 0.676337
vn 0.829480 0.116731 0.546202
vn -0.218042 -0.008637 0.975901
vn 0.082762 -0.298466 0.950825
vn -0.212263 0.120841 0.969712
vn 0.234248 -0.154704 0.959789
vn -0.224243 0.207326 0.952224
vn 0.097850 0.203567 0.974159
f 26//26 46//46 32//32
f 26//26 10//10 11//11
f 10//10 26//26 32//32
f 46//46 38//38 32//32
f 39//39 48//48 47//47
f 35//35 29//29 25//25
f 30//30 35//35 25//25
f 40//40 35//35 30//30
f 29//29 35//35 34//34
f 35//35 40//40 34//34
f 52//52 46//46 45//45
f 38//38 31//31 32//32
f 31//31 20//20 32//32
f 14//14 18//18 25//25
f 18//18 30//30 25//25
f 16//16 10//10 32//32
f 20//20 16//16 32//32
f 13//13 19//19 8//8
f 49//49 39//39 47//47
f 49//49 42//42 39//39
f 42//42 49//49 51//51
f 33//33 28//28 27//27
f 41//41 31//31 38//38
f 43//43 41//41 38//38
f 18//18 15//15 20//20
f 15//15 6//6 7//7
f 17//17 33//33 36//36
f 19//19 17//17 36//36
f 13//13 17//17 19//19
f 22//22 37//37 45//45
f 3//3 9//9 11//11
f 9//9 3//3 8//8
f 21//21 19//19 36//36
f 19//19 21//21 8//8
f 1//1 6//6 4//4
f 1//1 4//4 5//5
f 3//3 1//1 5//5
f 6//6 1//1 7//7
f 23//23 22//22 45//45
f 23//23 9//9 22//22
f 1//1 2//2 7//7
f 2//2 1//1 3//3
f 29//29 14//14 25//25
f 12//12 14//14 27//27
f 14//14 29//29 27//27
f 26//26 24//24 46//46
f 24//24 26//26 11//11
f 48//48 39//39 34//34
f 40//40 48//48 34//34
f 44//44 42//42 51//51
f 42//42 44//44 36//36
f 52//52 44//44 51//51
f 44//44 52//52 45//45
f 6//6 14//14 12//12
f 4//4 6//6 12//12
f 18//18 31//31 30//30
f 31//31 18//18 20//20
f 4//4 13//13 5//5
f 13//13 4//4 12//12
f 13//13 12//12 27//27
f 28//28 13//13 27//27
f 33//33 42//42 36//36
f 42//42 33//33 39//39
f 29//29 33//33 27//27
f 33//33 29//29 34//34
f 39//39 33//33 34//34
f 41//41 40//40 30//30
f 31//31 41//41 30//30
f 41//41 48//48 40//40
f 50//50 52//52 51//51
f 49//49 50//50 51//51
f 48//48 50//50 47//47
f 50//50 49//49 47//47
f 52//52 50//50 46//46
f 50//50 38//38 46//46
f 50//50 43//43 38//38
f 41//41 50//50 48//48
f 50//50 41//41 43//43
f 13//13 3//3 5//5
f 3//3 13//13 8//8
f 15//15 16//16 20//20
f 16//16 15//15 7//7
f 6//6 15//15 14//14
f 15//15 18//18 14//14
f 17//17 13//13 28//28
f 33//33 17//17 28//28
f 44//44 37//37 36//36
f 37//37 44//44 45//45
f 37//37 21//21 36//36
f 21//21 37//37 22//22
f 9//9 21//21 22//22
f 21//21 9//9 8//8
f 24//24 23//23 46//46
f 46//46 23//23 45//45
f 23//23 24//24 11//11
f 9//9 23//23 11//11
f 2//2 16//16 7//7
f 16//16 2//2 10//10
f 10//10 2//2 11//11
f 2//2 3//3 11//11
