# OBJ file
v 0.162109 -0.337891 -0.032318
v 0.138672 -0.337891 -0.027701
v 0.162109 -0.345703 -0.027701
v 0.162109 -0.330078 -0.027701
v 0.169922 -0.337891 -0.027701
v 0.130859 -0.337891 -0.023085
v 0.138672 -0.345703 -0.023085
v 0.138672 -0.330078 -0.023085
v 0.162109 -0.349609 -0.023085
v 0.166016 -0.349609 -0.023085
v 0.166016 -0.326172 -0.023085
v 0.173828 -0.341797 -0.023085
v 0.173828 -0.333984 -0.023085
v 0.130859 -0.333984 -0.018468
v 0.138672 -0.326172 -0.018468
v 0.162109 -0.349609 -0.018468
v 0.177734 -0.337891 -0.018468
v 0.126953 -0.337891 -0.013851
v 0.134766 -0.345703 -0.013851
v 0.134766 -0.330078 -0.013851
v 0.166016 -0.326172 -0.013851
v 0.173828 -0.333984 -0.013851
v 0.134766 -0.337891 -0.009234
v 0.162109 -0.330078 -0.009234
v 0.166016 -0.349609 -0.009234
v 0.166016 -0.330078 -0.009234
v 0.173828 -0.341797 -0.009234
v 0.173828 -0.337891 -0.009234
v 0.162109 -0.337891 -0.004617
v 0.166016 -0.341797 -0.004617
v 0.166016 -0.337891 -0.004617
vn 0.137195 0.000000 -0.990544
vn -0.297432 0.000000 -0.954743
vn 0.100242 -0.541128 -0.834945
vn 0.095972 0.558143 -0.824176
vn 0.507597 0.000000 -0.861594
vn -0.734798 -0.065503 -0.675116
vn -0.341122 -0.771489 -0.537066
vn -0.334457 0.574715 -0.746888
vn -0.070005 -0.923022 -0.378324
vn 0.366194 -0.835706 -0.409264
vn 0.348960 0.839077 -0.417344
vn 0.725758 -0.466262 -0.505841
vn 0.725758 0.466262 -0.505841
vn -0.723617 0.615146 -0.313006
vn -0.335355 0.940017 -0.062487
vn -0.078445 -0.996720 0.019896
vn 0.994337 0.010302 -0.105772
vn -0.958327 -0.044320 0.282214
vn -0.475676 -0.812547 0.336898
vn -0.473032 0.700379 0.534518
vn 0.324926 0.879142 0.348616
vn 0.723617 0.615146 0.313006
vn -0.295814 0.007226 0.955218
vn -0.065631 0.597832 0.798930
vn 0.253506 -0.831866 0.493694
vn 0.270577 0.582882 0.766183
vn 0.744885 -0.390493 0.540982
vn 0.686427 0.240075 0.686427
vn -0.087433 0.175452 0.980598
vn 0.159254 -0.242783 0.956919
vn 0.218222 0.218222 0.951188
f 15//15 21//21 11//11
f 4//4 15//15 11//11
f 15//15 4//4 8//8
f 3//3 10//10 9//9
f 7//7 3//3 9//9
f 22//22 28//28 17//17
f 28//28 26//26 31//31
f 28//28 27//27 17//17
f 27//27 30//30 25//25
f 19//19 16//16 25//25
f 19//19 23//23 18//18
f 16//16 19//19 9//9
f 19//19 7//7 9//9
f 14//14 6//6 18//18
f 6//6 2//2 7//7
f 2//2 6//6 8//8
f 24//24 26//26 21//21
f 29//29 30//30 31//31
f 30//30 29//29 23//23
f 13//13 5//5 11//11
f 4//4 5//5 1//1
f 5//5 4//4 11//11
f 5//5 13//13 17//17
f 12//12 5//5 17//17
f 16//16 10//10 25//25
f 10//10 16//16 9//9
f 10//10 3//3 12//12
f 5//5 3//3 1//1
f 3//3 5//5 12//12
f 22//22 13//13 11//11
f 13//13 22//22 17//17
f 21//21 22//22 11//11
f 26//26 22//22 21//21
f 22//22 26//26 28//28
f 10//10 27//27 25//25
f 27//27 12//12 17//17
f 27//27 10//10 12//12
f 30//30 27//27 28//28
f 30//30 28//28 31//31
f 19//19 30//30 23//23
f 30//30 19//19 25//25
f 6//6 19//19 18//18
f 19//19 6//6 7//7
f 14//14 15//15 8//8
f 6//6 14//14 8//8
f 3//3 2//2 1//1
f 2//2 3//3 7//7
f 2//2 4//4 1//1
f 4//4 2//2 8//8
f 24//24 29//29 26//26
f 26//26 29//29 31//31
f 14//14 20//20 15//15
f 20//20 14//14 18//18
f 15//15 20//20 21//21
f 20//20 24//24 21//21
f 23//23 20//20 18//18
f 20//20 29//29 24//24
f 29//29 20//20 23//23
