# OBJ file
v 0.755859 0.482422 -0.023085
v 0.755859 0.486328 -0.023085
v 0.748047 0.482422 -0.018468
v 0.748047 0.486328 -0.018468
v 0.755859 0.474609 -0.018468
v 0.755859 0.494141 -0.018468
v 0.771484 0.478516 -0.018468
v 0.744141 0.490234 -0.013851
v 0.751953 0.498047 -0.013851
v 0.771484 0.470703 -0.013851
v 0.779297 0.478516 -0.013851
v 0.748047 0.474609 -0.004617
v 0.755859 0.466797 -0.004617
v 0.763672 0.462891 -0.004617
v 0.771484 0.466797 -0.004617
v 0.775391 0.498047 -0.004617
v 0.783203 0.490234 -0.004617
v 0.744141 0.482422 0.000000
v 0.748047 0.474609 0.000000
v 0.748047 0.494141 0.000000
v 0.755859 0.466797 0.000000
v 0.755859 0.501953 0.000000
v 0.763672 0.462891 0.000000
v 0.767578 0.462891 0.000000
v 0.783203 0.474609 0.000000
v 0.791016 0.482422 0.000000
v 0.748047 0.490234 0.004617
v 0.759766 0.501953 0.004617
v 0.767578 0.462891 0.004617
v 0.775391 0.498047 0.004617
v 0.783203 0.490234 0.004617
v 0.748047 0.478516 0.009234
v 0.748047 0.482422 0.009234
v 0.755859 0.470703 0.009234
v 0.771484 0.498047 0.009234
v 0.779297 0.470703 0.009234
v 0.783203 0.486328 0.009234
v 0.787109 0.478516 0.009234
v 0.767578 0.466797 0.013851
v 0.759766 0.478516 0.018468
v 0.767578 0.470703 0.018468
v 0.767578 0.486328 0.018468
v 0.775391 0.478516 0.018468
v 0.767578 0.478516 0.023085
vn -0.123382 -0.200958 -0.971799
vn -0.042882 0.249072 -0.967535
vn -0.702139 -0.312736 -0.639686
vn -0.540787 0.166824 -0.824451
vn -0.289470 -0.614511 -0.733882
vn 0.022317 0.561239 -0.827353
vn 0.344645 -0.058248 -0.936924
vn -0.882751 0.280427 -0.376977
vn -0.353977 0.803420 -0.478767
vn 0.346996 -0.655755 -0.670507
vn 0.616989 -0.151810 -0.772191
vn -0.797115 -0.570516 -0.197787
vn -0.555732 -0.794772 -0.243926
vn -0.073713 -0.934170 -0.349132
vn 0.524908 -0.787464 -0.323066
vn 0.465961 0.785528 -0.407218
vn 0.666613 0.574886 -0.474483
vn -0.984422 -0.097706 0.146171
vn -0.792284 -0.592375 0.146210
vn -0.773858 0.560841 0.294281
vn -0.564335 -0.803168 0.190909
vn -0.344482 0.933485 0.099690
vn -0.274881 -0.948750 0.155926
vn 0.328279 -0.934083 -0.140436
vn 0.664721 -0.715468 -0.215061
vn 0.992282 0.018487 -0.122617
vn -0.701546 0.396460 0.592159
vn -0.151741 0.885245 0.439678
vn 0.102692 -0.960362 0.259150
vn 0.514603 0.820399 0.249258
vn 0.698497 0.644220 0.311581
vn -0.749580 -0.318350 0.580330
vn -0.694303 0.191362 0.693775
vn -0.531326 -0.661356 0.529434
vn 0.260257 0.728273 0.633944
vn 0.592381 -0.725611 0.350105
vn 0.596768 0.428156 0.678639
vn 0.807468 -0.257419 0.530783
vn 0.000000 -0.807391 0.590017
vn -0.489674 -0.047813 0.870594
vn 0.000000 -0.587617 0.809139
vn -0.000627 0.462055 0.886851
vn 0.496506 -0.045459 0.866842
vn 0.000000 0.000000 1.000000
f 5//5 10//10 14//14
f 42//42 35//35 28//28
f 11//11 10//10 7//7
f 41//41 39//39 36//36
f 39//39 29//29 36//36
f 18//18 27//27 20//20
f 18//18 20//20 8//8
f 18//18 33//33 27//27
f 33//33 18//18 32//32
f 37//37 38//38 26//26
f 31//31 37//37 26//26
f 22//22 16//16 9//9
f 16//16 22//22 28//28
f 25//25 15//15 10//10
f 13//13 5//5 14//14
f 40//40 41//41 44//44
f 40//40 33//33 32//32
f 41//41 34//34 39//39
f 41//41 43//43 44//44
f 37//37 43//43 38//38
f 24//24 25//25 36//36
f 29//29 24//24 36//36
f 25//25 24//24 15//15
f 16//16 6//6 9//9
f 11//11 17//17 26//26
f 35//35 30//30 28//28
f 30//30 16//16 28//28
f 3//3 1//1 5//5
f 4//4 3//3 8//8
f 1//1 2//2 7//7
f 12//12 19//19 18//18
f 18//18 19//19 32//32
f 1//1 10//10 5//5
f 10//10 1//1 7//7
f 22//22 27//27 28//28
f 27//27 22//22 20//20
f 22//22 9//9 8//8
f 20//20 22//22 8//8
f 25//25 38//38 36//36
f 38//38 25//25 26//26
f 25//25 11//11 26//26
f 11//11 25//25 10//10
f 27//27 40//40 28//28
f 40//40 42//42 28//28
f 42//42 40//40 44//44
f 33//33 40//40 27//27
f 40//40 34//34 41//41
f 34//34 40//40 32//32
f 38//38 43//43 36//36
f 43//43 41//41 36//36
f 43//43 42//42 44//44
f 42//42 43//43 35//35
f 43//43 37//37 35//35
f 15//15 24//24 10//10
f 10//10 24//24 14//14
f 23//23 34//34 21//21
f 23//23 29//29 39//39
f 34//34 23//23 39//39
f 23//23 13//13 14//14
f 13//13 23//23 21//21
f 24//24 23//23 14//14
f 23//23 24//24 29//29
f 30//30 17//17 16//16
f 30//30 31//31 26//26
f 17//17 30//30 26//26
f 37//37 30//30 35//35
f 30//30 37//37 31//31
f 2//2 6//6 16//16
f 2//2 11//11 7//7
f 17//17 2//2 16//16
f 2//2 17//17 11//11
f 9//9 2//2 8//8
f 2//2 4//4 8//8
f 6//6 2//2 9//9
f 3//3 2//2 1//1
f 2//2 3//3 4//4
f 13//13 12//12 5//5
f 12//12 3//3 5//5
f 12//12 18//18 8//8
f 3//3 12//12 8//8
f 19//19 34//34 32//32
f 34//34 19//19 21//21
f 19//19 13//13 21//21
f 19//19 12//12 13//13
