# OBJ file
v -0.634766 -0.841797 -0.032318
v -0.626953 -0.833984 -0.032318
v -0.650391 -0.837891 -0.027701
v -0.646484 -0.841797 -0.027701
v -0.634766 -0.849609 -0.027701
v -0.626953 -0.826172 -0.027701
v -0.619141 -0.833984 -0.027701
v -0.658203 -0.837891 -0.023085
v -0.654297 -0.818359 -0.023085
v -0.646484 -0.849609 -0.023085
v -0.623047 -0.841797 -0.023085
v -0.623047 -0.826172 -0.023085
v -0.615234 -0.833984 -0.023085
v -0.662109 -0.818359 -0.018468
v -0.654297 -0.810547 -0.018468
v -0.634766 -0.849609 -0.018468
v -0.626953 -0.826172 -0.018468
v -0.619141 -0.833984 -0.018468
v -0.666016 -0.845703 -0.013851
v -0.658203 -0.853516 -0.013851
v -0.654297 -0.818359 -0.013851
v -0.634766 -0.841797 -0.013851
v -0.626953 -0.833984 -0.013851
v -0.658203 -0.845703 -0.009234
v -0.654297 -0.841797 -0.009234
v -0.650391 -0.841797 -0.009234
vn 0.009427 -0.229395 -0.973288
vn 0.236199 0.060078 -0.969846
vn -0.353200 -0.112709 -0.928734
vn -0.336849 -0.375993 -0.863228
vn 0.204937 -0.801953 -0.561135
vn 0.304110 0.639907 -0.705717
vn 0.630747 0.000000 -0.775989
vn -0.530963 -0.140663 -0.835639
vn -0.257407 0.304192 -0.917174
vn -0.305940 -0.544647 -0.780871
vn 0.692291 -0.721618 -0.000000
vn 0.630364 0.776286 -0.004595
vn 1.000000 0.000000 0.000000
vn -0.899019 0.437149 -0.025786
vn -0.178432 0.983305 0.035686
vn 0.378420 -0.801246 0.463469
vn 0.412867 0.600931 0.684414
vn 0.630747 0.000000 0.775989
vn -0.945801 -0.309165 0.099388
vn -0.344786 -0.929509 0.130906
vn -0.112871 0.336199 0.935003
vn 0.295916 -0.354994 0.886799
vn 0.351262 0.028389 0.935847
vn -0.175215 -0.186239 0.966755
vn -0.060998 0.102447 0.992867
vn 0.134073 -0.124983 0.983058
f 12//12 6//6 15//15
f 23//23 21//21 26//26
f 21//21 25//25 26//26
f 20//20 24//24 19//19
f 21//21 24//24 25//25
f 25//25 24//24 26//26
f 16//16 20//20 5//5
f 3//3 9//9 1//1
f 4//4 3//3 1//1
f 9//9 2//2 1//1
f 7//7 2//2 6//6
f 14//14 8//8 19//19
f 9//9 14//14 15//15
f 14//14 21//21 15//15
f 17//17 12//12 15//15
f 22//22 23//23 26//26
f 18//18 17//17 23//23
f 11//11 16//16 5//5
f 20//20 10//10 5//5
f 12//12 7//7 6//6
f 7//7 12//12 13//13
f 2//2 9//9 15//15
f 6//6 2//2 15//15
f 2//2 5//5 1//1
f 2//2 7//7 5//5
f 14//14 3//3 8//8
f 3//3 14//14 9//9
f 14//14 24//24 21//21
f 24//24 14//14 19//19
f 17//17 21//21 23//23
f 21//21 17//17 15//15
f 22//22 24//24 20//20
f 24//24 22//22 26//26
f 16//16 22//22 20//20
f 18//18 22//22 16//16
f 22//22 18//18 23//23
f 12//12 18//18 13//13
f 17//17 18//18 12//12
f 7//7 11//11 5//5
f 11//11 7//7 13//13
f 11//11 18//18 16//16
f 18//18 11//11 13//13
f 10//10 20//20 19//19
f 8//8 10//10 19//19
f 10//10 3//3 4//4
f 3//3 10//10 8//8
f 5//5 10//10 1//1
f 10//10 4//4 1//1
