# OBJ file
v 0.208984 -0.064453 -0.046169
v 0.208984 -0.060547 -0.046169
v 0.212891 -0.064453 -0.046169
v 0.212891 -0.060547 -0.046169
v 0.201172 -0.064453 -0.041552
v 0.201172 -0.060547 -0.041552
v 0.208984 -0.072266 -0.041552
v 0.208984 -0.052734 -0.041552
v 0.212891 -0.072266 -0.041552
v 0.220703 -0.064453 -0.041552
v 0.232422 -0.044922 -0.041552
v 0.232422 -0.041016 -0.041552
v 0.197266 -0.064453 -0.036935
v 0.205078 -0.072266 -0.036935
v 0.240234 -0.044922 -0.036935
v 0.240234 -0.041016 -0.036935
v 0.197266 -0.060547 -0.032318
v 0.208984 -0.076172 -0.032318
v 0.216797 -0.072266 -0.032318
v 0.224609 -0.064453 -0.032318
v 0.244141 -0.044922 -0.027701
v 0.197266 -0.068359 -0.023085
v 0.205078 -0.076172 -0.023085
v 0.208984 -0.076172 -0.023085
v 0.224609 -0.017578 -0.023085
v 0.232422 -0.009766 -0.023085
v 0.240234 -0.017578 -0.023085
v 0.244141 -0.044922 -0.023085
v 0.197266 -0.064453 -0.013851
v 0.205078 -0.072266 -0.013851
v 0.220703 -0.025391 -0.013851
v 0.228516 -0.017578 -0.009234
v 0.236328 -0.009766 -0.009234
v 0.244141 -0.017578 -0.009234
v 0.205078 -0.056641 -0.004617
v 0.220703 -0.072266 -0.004617
v 0.224609 -0.072266 -0.004617
v 0.232422 -0.064453 -0.004617
v 0.236328 -0.017578 -0.004617
v 0.205078 -0.060547 0.000000
v 0.212891 -0.068359 0.000000
v 0.220703 -0.068359 0.000000
v 0.228516 -0.060547 0.000000
v 0.212891 -0.060547 0.004617
v 0.216797 -0.056641 0.004617
v 0.220703 -0.060547 0.004617
vn -0.218222 -0.218222 -0.951188
vn -0.248807 0.185828 -0.950559
vn 0.181702 -0.251025 -0.950774
vn 0.074141 0.074141 -0.994488
vn -0.582882 -0.270577 -0.766183
vn -0.649536 0.299594 -0.698818
vn -0.240075 -0.686427 -0.686427
vn -0.387069 0.481136 -0.786566
vn 0.308876 -0.719672 -0.621826
vn 0.581942 -0.499901 -0.641437
vn 0.352938 -0.098270 -0.930472
vn 0.164138 0.275539 -0.947173
vn -0.894290 -0.182581 -0.408546
vn -0.573561 -0.712032 -0.405017
vn 0.712257 -0.272449 -0.646885
vn 0.691055 0.179532 -0.700151
vn -0.929057 0.348463 -0.124204
vn -0.045619 -0.968174 -0.246084
vn 0.570545 -0.786025 -0.237999
vn 0.692267 -0.660624 -0.290419
vn 0.931686 -0.263802 -0.249738
vn -0.888459 -0.457207 0.040037
vn -0.420688 -0.902296 0.094249
vn 0.092089 -0.991483 0.092089
vn -0.729175 0.647247 -0.222205
vn -0.084970 0.909724 -0.406427
vn 0.723812 0.452367 -0.521018
vn 0.955968 -0.253574 0.147737
vn -0.922593 -0.097123 0.373348
vn -0.472370 -0.751586 0.460419
vn -0.793947 0.531853 0.294585
vn -0.613577 0.555574 0.561125
vn 0.097061 0.902283 0.420077
vn 0.867663 0.337989 0.364588
vn -0.782852 0.468221 0.409770
vn -0.049157 -0.870680 0.489387
vn 0.444334 -0.817604 0.366184
vn 0.760342 -0.523492 0.384495
vn 0.069461 0.297195 0.952287
vn -0.686976 -0.014249 0.726540
vn -0.265127 -0.647554 0.714410
vn 0.166824 -0.540787 0.824451
vn 0.503256 -0.194792 0.841897
vn -0.272018 -0.077744 0.959146
vn -0.119668 0.201967 0.972054
vn 0.215891 -0.193879 0.956976
f 34//34 28//28 21//21
f 27//27 34//34 21//21
f 16//16 27//27 21//21
f 40//40 41//41 44//44
f 31//31 17//17 29//29
f 28//28 38//38 21//21
f 38//38 28//28 34//34
f 43//43 38//38 34//34
f 38//38 20//20 21//21
f 39//39 33//33 32//32
f 33//33 39//39 34//34
f 40//40 35//35 29//29
f 35//35 31//31 29//29
f 31//31 25//25 17//17
f 25//25 31//31 32//32
f 15//15 16//16 21//21
f 18//18 24//24 23//23
f 18//18 19//19 37//37
f 24//24 18//18 37//37
f 45//45 39//39 44//44
f 45//45 46//46 39//39
f 46//46 45//45 44//44
f 14//14 18//18 23//23
f 6//6 5//5 13//13
f 17//17 6//6 13//13
f 25//25 6//6 17//17
f 14//14 7//7 18//18
f 2//2 6//6 8//8
f 18//18 9//9 19//19
f 7//7 9//9 18//18
f 4//4 2//2 12//12
f 1//1 7//7 5//5
f 9//9 3//3 10//10
f 27//27 16//16 12//12
f 27//27 12//12 26//26
f 40//40 39//39 32//32
f 39//39 40//40 44//44
f 20//20 38//38 19//19
f 19//19 38//38 37//37
f 17//17 22//22 29//29
f 22//22 17//17 13//13
f 40//40 30//30 41//41
f 30//30 40//40 29//29
f 22//22 30//30 29//29
f 30//30 22//22 23//23
f 24//24 36//36 23//23
f 36//36 24//24 37//37
f 30//30 36//36 41//41
f 36//36 30//30 23//23
f 39//39 46//46 34//34
f 46//46 43//43 34//34
f 33//33 27//27 26//26
f 27//27 33//33 34//34
f 35//35 40//40 32//32
f 31//31 35//35 32//32
f 25//25 33//33 26//26
f 33//33 25//25 32//32
f 16//16 15//15 12//12
f 15//15 11//11 12//12
f 36//36 42//42 41//41
f 42//42 36//36 37//37
f 41//41 42//42 44//44
f 42//42 46//46 44//44
f 38//38 42//42 37//37
f 46//46 42//42 43//43
f 42//42 38//38 43//43
f 20//20 10//10 21//21
f 10//10 15//15 21//21
f 14//14 22//22 13//13
f 22//22 14//14 23//23
f 6//6 25//25 26//26
f 8//8 6//6 26//26
f 5//5 7//7 13//13
f 7//7 14//14 13//13
f 12//12 2//2 26//26
f 2//2 8//8 26//26
f 9//9 20//20 19//19
f 9//9 10//10 20//20
f 2//2 1//1 6//6
f 6//6 1//1 5//5
f 15//15 3//3 11//11
f 10//10 3//3 15//15
f 11//11 3//3 12//12
f 3//3 4//4 12//12
f 1//1 3//3 7//7
f 3//3 9//9 7//7
f 3//3 1//1 2//2
f 4//4 3//3 2//2
