# OBJ file
v -0.212891 0.673828 -0.023085
v -0.220703 0.673828 -0.018468
v -0.212891 0.666016 -0.018468
v -0.212891 0.681641 -0.018468
v -0.197266 0.662109 -0.018468
v -0.193359 0.685547 -0.018468
v -0.181641 0.662109 -0.018468
v -0.181641 0.677734 -0.018468
v -0.220703 0.677734 -0.013851
v -0.208984 0.689453 -0.013851
v -0.197266 0.654297 -0.013851
v -0.193359 0.693359 -0.013851
v -0.181641 0.654297 -0.013851
v -0.181641 0.685547 -0.013851
v -0.173828 0.677734 -0.013851
v -0.166016 0.658203 -0.013851
v -0.166016 0.662109 -0.013851
v -0.212891 0.677734 -0.009234
v -0.208984 0.681641 -0.009234
v -0.189453 0.654297 -0.009234
v -0.185547 0.689453 -0.009234
v -0.166016 0.650391 -0.009234
v -0.158203 0.658203 -0.009234
v -0.158203 0.662109 -0.009234
v -0.189453 0.662109 -0.004617
v -0.189453 0.677734 -0.004617
v -0.185547 0.681641 -0.004617
v -0.162109 0.650391 -0.004617
v -0.162109 0.666016 -0.004617
v -0.154297 0.658203 -0.004617
v -0.162109 0.658203 0.000000
vn -0.229998 0.003565 -0.973185
vn -0.925688 -0.220579 -0.307322
vn -0.580982 -0.770263 -0.262973
vn -0.356873 0.520301 -0.775841
vn -0.039669 -0.396129 -0.917338
vn 0.101048 0.354073 -0.929743
vn 0.120617 -0.228051 -0.966149
vn 0.275145 0.215355 -0.936973
vn -0.925688 0.220579 0.307322
vn -0.421346 0.906385 0.030570
vn -0.420658 -0.903310 -0.084125
vn 0.029888 0.993938 -0.105798
vn 0.034042 -0.570617 -0.820510
vn 0.569400 0.656098 -0.495298
vn 0.650838 0.555154 -0.517895
vn 0.301641 -0.235284 -0.923934
vn 0.370771 0.082759 -0.925030
vn -0.382416 0.005570 0.923973
vn -0.251707 0.330793 0.909516
vn -0.266152 -0.689164 0.673955
vn 0.354178 0.810835 0.465945
vn 0.162074 -0.866789 -0.471602
vn 0.582882 -0.270577 -0.766183
vn 0.723387 0.414629 -0.552082
vn -0.250834 -0.246501 0.936119
vn -0.142232 0.079357 0.986647
vn 0.030537 0.320971 0.946597
vn 0.366291 -0.883470 0.292081
vn 0.581696 0.642629 0.498657
vn 0.980471 -0.075543 0.181577
vn 0.188699 -0.068723 0.979627
f 31//31 28//28 30//30
f 1//1 8//8 7//7
f 6//6 8//8 1//1
f 4//4 10//10 12//12
f 10//10 21//21 12//12
f 26//26 25//25 31//31
f 27//27 26//26 31//31
f 25//25 26//26 18//18
f 21//21 14//14 12//12
f 14//14 15//15 8//8
f 29//29 31//31 30//30
f 5//5 1//1 7//7
f 11//11 28//28 20//20
f 11//11 22//22 28//28
f 23//23 24//24 30//30
f 28//28 25//25 20//20
f 25//25 28//28 31//31
f 4//4 6//6 1//1
f 6//6 4//4 12//12
f 4//4 1//1 2//2
f 19//19 21//21 10//10
f 21//21 19//19 27//27
f 4//4 9//9 10//10
f 9//9 4//4 2//2
f 9//9 19//19 10//10
f 19//19 9//9 18//18
f 26//26 19//19 18//18
f 19//19 26//26 27//27
f 14//14 6//6 12//12
f 6//6 14//14 8//8
f 29//29 21//21 27//27
f 29//29 27//27 31//31
f 1//1 3//3 2//2
f 11//11 13//13 22//22
f 25//25 11//11 20//20
f 11//11 25//25 18//18
f 9//9 11//11 18//18
f 3//3 11//11 2//2
f 11//11 9//9 2//2
f 11//11 5//5 7//7
f 13//13 11//11 7//7
f 11//11 3//3 1//1
f 5//5 11//11 1//1
f 16//16 13//13 7//7
f 13//13 16//16 22//22
f 8//8 16//16 7//7
f 17//17 16//16 8//8
f 28//28 23//23 30//30
f 22//22 23//23 28//28
f 16//16 23//23 22//22
f 24//24 14//14 21//21
f 29//29 24//24 21//21
f 14//14 24//24 15//15
f 24//24 29//29 30//30
f 24//24 17//17 8//8
f 15//15 24//24 8//8
f 24//24 16//16 17//17
f 24//24 23//23 16//16
